<svg id="outline_icon" enable-background="new 0 0 64 64" height="64" viewBox="0 0 64 64" width="64" xmlns="http://www.w3.org/2000/svg"><g style="fill:none;stroke:#000;stroke-width:1.5;stroke-linecap:round;stroke-linejoin:round;stroke-miterlimit:10"><path d="m47.575 46h-26.007c-2.022 0-3.725-1.508-3.971-3.515l-2.623-21.485h38.219c2.401 0 4.262 2.101 3.971 4.485l-1.648 13.485c-.49 4.013-3.897 7.03-7.941 7.03z"/><path d="m53.132 54h-38.158v-1c0-3.866 3.134-7 7-7h.632"/><circle cx="48.553" cy="57.5" r="3.5"/><circle cx="21.079" cy="57.5" r="3.5"/><path d="m14.974 21-3.053-9.158"/><path d="m13.447 16.421h-6.868c-1.264 0-2.289-1.025-2.289-2.289 0-1.264 1.025-2.289 2.289-2.289h5.342z"/><path d="m24.132 27.421v12.474"/><path d="m30.237 27.421v12.474"/><path d="m36.342 27.421v12.474"/><path d="m42.447 27.421v12.474"/><path d="m48.553 27.421v12.474"/><g><path d="m33 11v-7h-15v17h12v-10z"/><path d="m45.158 2.684-4.158 8.316h9v10h1.263l6.105-12.211z"/><path d="m41 11h-8-3v10h3 3 14v-10z"/></g></g></svg>