<svg width="152" height="40" viewBox="0 0 152 40" fill="none" xmlns="http://www.w3.org/2000/svg">
<path d="M86.0355 28.6834C84.4845 28.6834 83.0588 28.3256 81.7585 27.6099C80.4738 26.8943 79.4477 25.8987 78.68 24.6231C77.928 23.3319 77.552 21.8851 77.552 20.2828C77.552 18.6805 77.928 17.2415 78.68 15.9658C79.4477 14.6902 80.4738 13.6946 81.7585 12.979C83.0588 12.2634 84.4845 11.9056 86.0355 11.9056C87.5865 11.9056 89.0043 12.2634 90.289 12.979C91.5893 13.6946 92.6076 14.6902 93.344 15.9658C94.096 17.2415 94.472 18.6805 94.472 20.2828C94.472 21.8851 94.096 23.3319 93.344 24.6231C92.592 25.8987 91.5736 26.8943 90.289 27.6099C89.0043 28.3256 87.5865 28.6834 86.0355 28.6834ZM86.0355 25.0431C87.3515 25.0431 88.4011 24.6075 89.1845 23.7364C89.9835 22.8652 90.383 21.714 90.383 20.2828C90.383 18.836 89.9835 17.6848 89.1845 16.8292C88.4011 15.9581 87.3515 15.5225 86.0355 15.5225C84.7038 15.5225 83.6385 15.9503 82.8395 16.8059C82.0561 17.6615 81.6645 18.8205 81.6645 20.2828C81.6645 21.7296 82.0561 22.8885 82.8395 23.7597C83.6385 24.6153 84.7038 25.0431 86.0355 25.0431Z" fill="#2C3C28"/>
<path d="M112.86 12.1216V28.6834H111.207V15.4579L105.396 28.6834H104.192L98.3813 15.5059V28.6834H96.7279V12.1216H98.4758L104.782 26.4751L111.089 12.1216H112.86Z" fill="#6DA82D"/>
<path d="M124.996 24.6989H117.485L116.044 28.6834H114.296L120.319 12.1216H122.185L128.185 28.6834H126.437L124.996 24.6989ZM124.5 23.3068L121.241 14.2338L117.981 23.3068H124.5Z" fill="#6DA82D"/>
<path d="M138.444 28.6834L134.358 21.6746H131.311V28.6834H129.657V11.9056H134.618C136.46 11.9056 137.854 12.3536 138.798 13.2497C139.759 14.1458 140.239 15.3219 140.239 16.7781C140.239 17.9942 139.893 19.0343 139.2 19.8984C138.523 20.7465 137.515 21.2986 136.177 21.5546L140.428 28.6834H138.444ZM131.311 20.3065H134.641C135.932 20.3065 136.901 19.9864 137.547 19.3464C138.208 18.7063 138.539 17.8502 138.539 16.7781C138.539 15.674 138.224 14.8259 137.594 14.2338C136.964 13.6257 135.972 13.3217 134.618 13.3217H131.311V20.3065Z" fill="#6DA82D"/>
<path d="M152 11.9056V13.2977H147.418V28.6834H145.764V13.2977H141.158V11.9056H152Z" fill="#6DA82D"/>
<path d="M56.2091 15.1799V18.5737H61.6156V21.7285H56.2091V25.4091H62.3239V28.6834H52.1719V11.9056H62.3239V15.1799H56.2091Z" fill="#2C3C28"/>
<path d="M73.7048 28.6834L68.0867 21.2744V28.6834H64.016V11.9056H68.0867V19.2668L73.6571 11.9056H78.442L71.967 20.1272L78.68 28.6834H73.7048Z" fill="#2C3C28"/>
<path d="M37.4878 26.6473C41.228 16.92 36.3746 6.00244 26.6473 2.26222C16.92 -1.478 6.00244 3.37547 2.26222 13.1028C-1.478 22.83 3.37547 33.7476 13.1028 37.4878C22.83 41.228 33.7476 36.3746 37.4878 26.6473Z" fill="#FFFFEA"/>
<path d="M28.7569 19.8734C28.7569 24.7786 24.7806 28.7578 19.8726 28.7578C14.9674 28.7578 10.9883 24.7815 10.9883 19.8734C10.9883 14.9683 14.9646 10.992 19.8726 10.992C24.7778 10.9891 28.7569 14.9683 28.7569 19.8734Z" fill="#FFD379"/>
<path d="M19.8766 28.7578C24.7817 28.7578 28.7609 24.7815 28.7609 19.8734C28.7609 19.0822 28.6491 18.3196 28.4541 17.5914C24.6441 18.2967 21.0491 19.3087 17.7895 20.6475C15.648 19.9881 13.3832 19.4664 11.0353 19.0679C11.0123 19.3345 10.9951 19.604 10.9951 19.8763C10.9951 24.7786 14.9714 28.7578 19.8766 28.7578Z" fill="#D0DB58"/>
<path d="M28.7569 19.8734C28.7569 24.7786 24.7806 28.7578 19.8726 28.7578C14.9674 28.7578 10.9883 24.7815 10.9883 19.8734C10.9883 14.9683 14.9646 10.992 19.8726 10.992C24.7778 10.9891 28.7569 14.9683 28.7569 19.8734Z" stroke="#2C3C28" stroke-width="1.5" stroke-miterlimit="10" stroke-linecap="round" stroke-linejoin="round"/>
<path d="M38.7265 19.2112C38.715 18.8615 38.695 18.5146 38.6634 18.1705C24.3808 18.7812 11.5116 23.0929 5.00391 31.4841C5.84962 32.5649 6.80715 33.5569 7.86501 34.4312C8.92 35.3028 10.0753 36.0567 11.3023 36.6846C12.5236 37.3095 13.8223 37.8084 15.1812 38.1553C16.5429 38.5021 17.9649 38.6971 19.4241 38.7315C19.5732 38.7344 19.7222 38.743 19.8742 38.743C21.3219 38.743 22.7296 38.5738 24.0827 38.2671C26.0063 37.8284 27.8211 37.0974 29.4695 36.1198C32.9298 34.0729 35.6819 30.9509 37.2615 27.2154C37.6113 26.3898 37.9008 25.5326 38.1331 24.6525C38.2793 24.0906 38.3997 23.5143 38.4943 22.9324C38.5688 22.4737 38.6262 22.0092 38.6663 21.5391C38.7007 21.1349 38.7236 20.7278 38.7322 20.3178C38.7351 20.1687 38.7437 20.0225 38.7437 19.8734C38.7437 19.6527 38.7351 19.432 38.7265 19.2112Z" fill="#7BAB47"/>
<path d="M38.1646 21.1807C37.9181 22.1325 37.6027 23.0556 37.2271 23.9444C35.5242 27.9751 32.5571 31.3379 28.8273 33.5454C27.047 34.6004 25.0947 35.3888 23.0191 35.8589C21.5599 36.1915 20.0433 36.3721 18.4809 36.3721C18.3175 36.3721 18.1569 36.3635 17.9964 36.3606C16.4196 36.3234 14.8888 36.1141 13.4209 35.7385C11.956 35.363 10.557 34.824 9.24109 34.1532C7.91661 33.4766 6.6724 32.6624 5.53427 31.725C5.39093 31.6045 5.25045 31.4784 5.10998 31.3551C5.07558 31.3981 5.03831 31.4411 5.00391 31.487C5.84962 32.5678 6.80715 33.5597 7.86501 34.4341C8.92 35.3056 10.0753 36.0596 11.3023 36.6874C12.5236 37.3124 13.8223 37.8112 15.1812 38.1581C16.5429 38.505 17.9649 38.7 19.4241 38.7344C19.5732 38.7372 19.7222 38.7458 19.8742 38.7458C21.3219 38.7458 22.7296 38.5767 24.0827 38.2699C26.0063 37.8313 27.8211 37.1003 29.4695 36.1227C32.9298 34.0758 35.6819 30.9538 37.2615 27.2183C37.6113 26.3926 37.9008 25.5355 38.1331 24.6553C38.2793 24.0934 38.3997 23.5172 38.4943 22.9352C38.5688 22.4765 38.6262 22.0121 38.6663 21.542C38.7007 21.1377 38.7236 20.7306 38.7322 20.3207C38.7351 20.1716 38.7437 20.0254 38.7437 19.8763C38.7437 19.6556 38.7351 19.4348 38.7265 19.2141C38.7179 18.9475 38.6978 18.6837 38.6778 18.4171C38.6434 18.7239 38.6032 19.0277 38.5545 19.3288C38.4513 19.9537 38.3223 20.573 38.1646 21.1807Z" fill="#A0C73A"/>
<path d="M37.2618 27.2125C34.0796 29.8586 31.402 33.038 29.4697 36.1169C32.93 34.07 35.6822 30.9509 37.2618 27.2125Z" stroke="#2C3C28" stroke-width="1.5412" stroke-miterlimit="10" stroke-linecap="round" stroke-linejoin="round"/>
<path d="M38.6657 21.5391C38.7001 21.1349 38.723 20.7278 38.7316 20.3178C26.215 22.5453 15.516 28.689 11.3018 36.6817C12.523 37.3067 13.8217 37.8055 15.1806 38.1524C18.6036 31.0484 27.7115 24.5005 38.6657 21.5391Z" stroke="#2C3C28" stroke-width="1.5412" stroke-miterlimit="10" stroke-linecap="round" stroke-linejoin="round"/>
<path d="M38.7315 20.3178C38.7343 20.1687 38.7429 20.0225 38.7429 19.8735C38.7429 19.6527 38.7343 19.432 38.7257 19.2112C25.1083 20.6274 13.1478 25.9626 7.86426 34.4284C8.91925 35.2999 10.0746 36.0539 11.3016 36.6817C15.5158 28.689 26.2149 22.5453 38.7315 20.3178Z" stroke="#2C3C28" stroke-width="1.2" stroke-miterlimit="10" stroke-linecap="round" stroke-linejoin="round"/>
<path d="M38.7265 19.2112C38.715 18.8615 38.695 18.5146 38.6634 18.1705C24.3808 18.7812 11.5116 23.0929 5.00391 31.4841C5.84962 32.5649 6.80715 33.5569 7.86501 34.4312C13.1486 25.9626 25.109 20.6246 38.7265 19.2112Z" stroke="#2C3C28" stroke-width="1.2" stroke-miterlimit="10" stroke-linecap="round" stroke-linejoin="round"/>
<path d="M37.2609 27.2125C37.6106 26.3869 37.9002 25.5297 38.1324 24.6496C31.8225 28.1729 26.7195 33.4622 24.082 38.2642C26.0057 37.8256 27.8204 37.0945 29.4688 36.1169C31.4011 33.038 34.0787 29.8615 37.2609 27.2125Z" stroke="#2C3C28" stroke-width="1.2" stroke-miterlimit="10" stroke-linecap="round" stroke-linejoin="round"/>
<path d="M38.1348 24.6496C38.281 24.0877 38.4014 23.5115 38.496 22.9295C29.6146 26.4012 22.3873 32.7312 19.4287 38.7286C19.5778 38.7315 19.7269 38.7401 19.8788 38.7401C21.3266 38.7401 22.7342 38.571 24.0873 38.2642C26.7219 33.4651 31.8249 28.1758 38.1348 24.6496Z" stroke="#2C3C28" stroke-width="1.2" stroke-miterlimit="10" stroke-linecap="round" stroke-linejoin="round"/>
<path d="M38.4947 22.9324C38.5693 22.4737 38.6266 22.0093 38.6668 21.5391C27.7126 24.5034 18.6046 31.0513 15.1816 38.1553C16.5434 38.5022 17.9653 38.6971 19.4246 38.7315C22.386 32.7341 29.6133 26.4041 38.4947 22.9324Z" stroke="#2C3C28" stroke-width="1.2" stroke-miterlimit="10" stroke-linecap="round" stroke-linejoin="round"/>
<path d="M1.00684 19.8477C1.00684 19.8563 1.00684 19.8649 1.00684 19.8735C1.00684 20.1487 1.01544 20.421 1.0269 20.6905C1.04124 20.9887 1.06131 21.2868 1.08711 21.5821C1.11578 21.906 1.15304 22.23 1.19891 22.5482C1.25052 22.9152 1.31072 23.2793 1.38239 23.6376C1.47126 24.082 1.58307 24.5177 1.70348 24.9478C1.87262 25.5613 2.0733 26.1604 2.30265 26.7453C3.99981 31.0828 7.25367 34.6348 11.3819 36.719C12.8297 37.45 14.3806 38.0033 16.0119 38.3416C17.2589 38.6025 18.5519 38.7401 19.8764 38.7401C19.971 38.7401 20.0627 38.7344 20.1573 38.7344C25.4638 38.657 30.24 36.3893 33.62 32.7943C27.7888 24.2999 15.0343 20.1257 1.00684 19.8477Z" fill="#A0C73A"/>
<path d="M22.1297 36.1198C20.6045 36.1198 19.1138 35.9621 17.6775 35.6611C15.7997 35.2712 14.0108 34.6319 12.3423 33.7919C7.58909 31.3895 3.83927 27.2957 1.88409 22.3017C1.62034 21.628 1.38813 20.9371 1.19318 20.2318C1.15878 20.1057 1.12724 19.9767 1.09284 19.8505C1.06417 19.8505 1.0355 19.8477 1.00684 19.8477C1.00684 19.8563 1.00684 19.8649 1.00684 19.8735C1.00684 20.1487 1.01544 20.421 1.0269 20.6905C1.04124 20.9887 1.06131 21.2868 1.08711 21.5821C1.11578 21.906 1.15304 22.23 1.19891 22.5482C1.25052 22.9152 1.31072 23.2793 1.38239 23.6376C1.47126 24.082 1.58307 24.5177 1.70348 24.9478C1.87262 25.5613 2.0733 26.1604 2.30265 26.7453C3.99981 31.0828 7.25367 34.6348 11.3819 36.719C12.8297 37.45 14.3806 38.0033 16.0119 38.3416C17.2589 38.6025 18.5519 38.7401 19.8763 38.7401C19.971 38.7401 20.0627 38.7344 20.1573 38.7344C25.4265 38.657 30.1683 36.4208 33.5454 32.8688C30.3145 34.8699 26.5217 36.051 22.4536 36.1112C22.3476 36.1141 22.2386 36.1198 22.1297 36.1198Z" fill="#D0DB58"/>
<path d="M1.70215 24.9506C1.87129 25.5641 2.07197 26.1633 2.30132 26.7481C6.14288 29.5146 9.31933 33.2272 11.3806 36.7218C12.8283 37.4529 14.3793 38.0062 16.0105 38.3445C13.5164 33.5654 8.22133 28.1615 1.70215 24.9506Z" stroke="#2C3C28" stroke-width="1.5412" stroke-miterlimit="10" stroke-linecap="round" stroke-linejoin="round"/>
<path d="M2.30469 26.7453C4.00185 31.0828 7.25571 34.6348 11.384 36.719C9.3227 33.2272 6.14625 29.5146 2.30469 26.7453Z" stroke="#2C3C28" stroke-width="1.2" stroke-miterlimit="10" stroke-linecap="round" stroke-linejoin="round"/>
<path d="M1.38379 23.6405C1.47266 24.0848 1.58447 24.5206 1.70487 24.9506C8.22406 28.1643 13.5191 33.5655 16.0132 38.3445C17.2603 38.6054 18.5533 38.743 19.8777 38.743C19.9723 38.743 20.0641 38.7372 20.1587 38.7372C17.461 32.9147 10.2108 26.665 1.38379 23.6405Z" stroke="#2C3C28" stroke-width="1.2" stroke-miterlimit="10" stroke-linecap="round" stroke-linejoin="round"/>
<path d="M1.0269 20.6905C1.01544 20.421 1.00684 20.1487 1.00684 19.8735C1.00684 19.8649 1.00684 19.8563 1.00684 19.8477C15.0343 20.1257 27.7888 24.2999 33.62 32.7943C30.24 36.3893 25.4638 38.657 20.1573 38.7344C17.4596 32.9147 10.2122 26.665 1.38239 23.6376C1.31072 23.2793 1.25052 22.9152 1.19891 22.5482M1.0269 20.6905C14.2172 21.7168 25.9397 26.7911 30.7044 35.0505C25.9426 26.7911 14.2172 21.7168 1.0269 20.6905ZM1.0269 20.6905C1.04124 20.9887 1.06131 21.2868 1.08711 21.5821M1.08711 21.5821C13.0418 23.3452 23.4112 29.0703 27.3359 36.6244C23.4112 29.0674 13.0447 23.3423 1.08711 21.5821ZM1.08711 21.5821C1.11578 21.906 1.15304 22.23 1.19891 22.5482M1.19891 22.5482C11.8807 25.0366 20.874 31.3609 23.9645 38.1983" stroke="#2C3C28" stroke-width="1.2" stroke-miterlimit="10" stroke-linecap="round" stroke-linejoin="round"/>
<path d="M37.4878 26.6473C41.228 16.92 36.3746 6.00244 26.6473 2.26222C16.92 -1.478 6.00244 3.37547 2.26222 13.1028C-1.478 22.83 3.37547 33.7476 13.1028 37.4878C22.83 41.228 33.7476 36.3746 37.4878 26.6473Z" stroke="#2C3C28" stroke-width="1.5" stroke-miterlimit="10" stroke-linecap="round" stroke-linejoin="round"/>
</svg>
