<svg width="40" height="40" viewBox="0 0 40 40" fill="none" xmlns="http://www.w3.org/2000/svg">
  <!-- Insulation roll and flooring icon -->
  <g transform="translate(2, 2)">
    <!-- Insulation roll -->
    <ellipse cx="12" cy="18" rx="8" ry="5" fill="#FFB6C1"/>
    <ellipse cx="12" cy="18" rx="6" ry="3" fill="#FFC0CB"/>
    <ellipse cx="12" cy="18" rx="4" ry="2" fill="#FFB6C1"/>
    <ellipse cx="12" cy="18" rx="2" ry="1" fill="#FF69B4"/>
    
    <!-- Unrolled insulation -->
    <rect x="20" y="15" width="12" height="6" fill="#FFB6C1"/>
    <path d="M20 15 Q22 16 20 17 Q22 18 20 19 Q22 20 20 21" stroke="#FF69B4" stroke-width="1" fill="none"/>
    
    <!-- Flooring planks -->
    <rect x="6" y="26" width="24" height="3" fill="#8B4513"/>
    <rect x="6" y="29" width="24" height="3" fill="#A0522D"/>
    
    <!-- Plank separation lines -->
    <line x1="14" y1="26" x2="14" y2="32" stroke="#654321" stroke-width="1"/>
    <line x1="22" y1="26" x2="22" y2="32" stroke="#654321" stroke-width="1"/>
    
    <!-- Temperature symbol -->
    <circle cx="28" cy="8" r="3" stroke="#2C3C28" stroke-width="1" fill="none"/>
    <rect x="27" y="6" width="2" height="4" fill="#FF0000"/>
  </g>
</svg>
