<svg width="40" height="40" viewBox="0 0 40 40" fill="none" xmlns="http://www.w3.org/2000/svg">
  <!-- Screws, bolts and fasteners icon -->
  <g transform="translate(2, 2)">
    <!-- Screws -->
    <circle cx="8" cy="8" r="3" fill="#C0C0C0"/>
    <line x1="6" y1="8" x2="10" y2="8" stroke="#2C3C28" stroke-width="1"/>
    <rect x="7" y="11" width="2" height="8" fill="#C0C0C0"/>
    
    <!-- Bolt with nut -->
    <rect x="18" y="6" width="3" height="12" fill="#C0C0C0"/>
    <polygon points="18,6 21,6 20,4 19,4" fill="#808080"/>
    <rect x="17" y="14" width="5" height="3" fill="#808080"/>
    
    <!-- Washers -->
    <circle cx="28" cy="8" r="3" stroke="#C0C0C0" stroke-width="2" fill="none"/>
    <circle cx="28" cy="14" r="3" stroke="#C0C0C0" stroke-width="2" fill="none"/>
    <circle cx="28" cy="20" r="3" stroke="#C0C0C0" stroke-width="2" fill="none"/>
    
    <!-- Nails -->
    <rect x="6" y="22" width="1" height="8" fill="#C0C0C0"/>
    <circle cx="6.5" cy="22" r="1.5" fill="#808080"/>
    
    <rect x="10" y="24" width="1" height="6" fill="#C0C0C0"/>
    <circle cx="10.5" cy="24" r="1.5" fill="#808080"/>
    
    <rect x="14" y="26" width="1" height="4" fill="#C0C0C0"/>
    <circle cx="14.5" cy="26" r="1.5" fill="#808080"/>
    
    <!-- Anchor bolt -->
    <rect x="22" y="22" width="2" height="8" fill="#FFE884"/>
    <polygon points="22,30 24,30 25,32 21,32" fill="#2C3C28"/>
  </g>
</svg>
