<svg width="141" height="24" viewBox="0 0 141 24" fill="none" xmlns="http://www.w3.org/2000/svg">
<g clip-path="url(#clip0_3081_28378)">
<path fill-rule="evenodd" clip-rule="evenodd" d="M15 1.5V3C15.9946 3 16.9484 3.39509 17.6516 4.09835C18.3549 4.80161 18.75 5.75544 18.75 6.75C18.75 7.74456 18.3549 8.69839 17.6516 9.40165C16.9484 10.1049 15.9946 10.5 15 10.5V12C16.3924 12 17.7277 11.4469 18.7123 10.4623C19.6969 9.47774 20.25 8.14239 20.25 6.75C20.25 5.35761 19.6969 4.02226 18.7123 3.03769C17.7277 2.05312 16.3924 1.5 15 1.5ZM15 22.5H16.5V18.75C16.4984 17.3581 15.9447 16.0237 14.9605 15.0395C13.9763 14.0553 12.6419 13.5016 11.25 13.5H6.75C5.35811 13.5016 4.0237 14.0553 3.03949 15.0395C2.05527 16.0237 1.50163 17.3581 1.5 18.75V22.5H3V18.75C3.00117 17.7558 3.39664 16.8027 4.09964 16.0996C4.80265 15.3966 5.7558 15.0012 6.75 15H11.25C12.2442 15.0012 13.1973 15.3966 13.9004 16.0996C14.6034 16.8027 14.9988 17.7558 15 18.75V22.5ZM21 22.5H22.5V18.75C22.4985 17.3581 21.9448 16.0236 20.9606 15.0394C19.9764 14.0552 18.6419 13.5015 17.25 13.5V15C18.2442 15.0011 19.1974 15.3966 19.9004 16.0996C20.6034 16.8026 20.9989 17.7558 21 18.75V22.5ZM11.0834 3.63199C10.4667 3.21993 9.74168 3 9 3C8.00544 3 7.05161 3.39509 6.34835 4.09835C5.64509 4.80161 5.25 5.75544 5.25 6.75C5.25 7.49168 5.46994 8.2167 5.88199 8.83339C6.29405 9.45007 6.87972 9.93072 7.56494 10.2145C8.25016 10.4984 9.00416 10.5726 9.73159 10.4279C10.459 10.2833 11.1272 9.9261 11.6517 9.40165C12.1761 8.8772 12.5333 8.20902 12.6779 7.48159C12.8226 6.75416 12.7484 6.00016 12.4646 5.31494C12.1807 4.62971 11.7001 4.04404 11.0834 3.63199ZM6.08326 2.38478C6.94662 1.80791 7.96165 1.5 9 1.5C10.3924 1.5 11.7277 2.05312 12.7123 3.03769C13.6969 4.02226 14.25 5.35761 14.25 6.75C14.25 7.78835 13.9421 8.80339 13.3652 9.66674C12.7883 10.5301 11.9684 11.203 11.0091 11.6004C10.0498 11.9977 8.99418 12.1017 7.97578 11.8991C6.95738 11.6966 6.02192 11.1965 5.28769 10.4623C4.55347 9.72808 4.05345 8.79262 3.85088 7.77422C3.64831 6.75582 3.75227 5.70022 4.14963 4.74091C4.54699 3.7816 5.2199 2.96166 6.08326 2.38478Z" fill="white"/>
</g>
<path d="M32.7727 7.61364V6.36364H41.5V7.61364H37.8409V18H36.4318V7.61364H32.7727ZM45.8864 18.1818C45.0455 18.1818 44.3201 17.9962 43.7102 17.625C43.1042 17.25 42.6364 16.7273 42.3068 16.0568C41.9811 15.3826 41.8182 14.5985 41.8182 13.7045C41.8182 12.8106 41.9811 12.0227 42.3068 11.3409C42.6364 10.6553 43.0947 10.1212 43.6818 9.73864C44.2727 9.35227 44.9621 9.15909 45.75 9.15909C46.2045 9.15909 46.6534 9.23485 47.0966 9.38636C47.5398 9.53788 47.9432 9.78409 48.3068 10.125C48.6705 10.4621 48.9602 10.9091 49.1761 11.4659C49.392 12.0227 49.5 12.7083 49.5 13.5227V14.0909H42.7727V12.9318H48.1364C48.1364 12.4394 48.0379 12 47.8409 11.6136C47.6477 11.2273 47.3712 10.9223 47.0114 10.6989C46.6553 10.4754 46.2348 10.3636 45.75 10.3636C45.2159 10.3636 44.7538 10.4962 44.3636 10.7614C43.9773 11.0227 43.6799 11.3636 43.4716 11.7841C43.2633 12.2045 43.1591 12.6553 43.1591 13.1364V13.9091C43.1591 14.5682 43.2727 15.1269 43.5 15.5852C43.7311 16.0398 44.0511 16.3864 44.4602 16.625C44.8693 16.8598 45.3447 16.9773 45.8864 16.9773C46.2386 16.9773 46.5568 16.928 46.8409 16.8295C47.1288 16.7273 47.3769 16.5758 47.5852 16.375C47.7936 16.1705 47.9545 15.9167 48.0682 15.6136L49.3636 15.9773C49.2273 16.4167 48.9981 16.803 48.6761 17.1364C48.3542 17.4659 47.9564 17.7235 47.483 17.9091C47.0095 18.0909 46.4773 18.1818 45.8864 18.1818ZM54.108 18.2045C53.5549 18.2045 53.053 18.1004 52.6023 17.892C52.1515 17.6799 51.7936 17.375 51.5284 16.9773C51.2633 16.5758 51.1307 16.0909 51.1307 15.5227C51.1307 15.0227 51.2292 14.6174 51.4261 14.3068C51.6231 13.9924 51.8864 13.7462 52.2159 13.5682C52.5455 13.3902 52.9091 13.2576 53.3068 13.1705C53.7083 13.0795 54.1117 13.0076 54.517 12.9545C55.0473 12.8864 55.4773 12.8352 55.8068 12.8011C56.1402 12.7633 56.3826 12.7008 56.5341 12.6136C56.6894 12.5265 56.767 12.375 56.767 12.1591V12.1136C56.767 11.553 56.6136 11.1174 56.3068 10.8068C56.0038 10.4962 55.5436 10.3409 54.9261 10.3409C54.286 10.3409 53.7841 10.4811 53.4205 10.7614C53.0568 11.0417 52.8011 11.3409 52.6534 11.6591L51.3807 11.2045C51.608 10.6742 51.911 10.2614 52.2898 9.96591C52.6723 9.66667 53.089 9.45833 53.5398 9.34091C53.9943 9.2197 54.4413 9.15909 54.8807 9.15909C55.161 9.15909 55.483 9.19318 55.8466 9.26136C56.214 9.32576 56.5682 9.46023 56.9091 9.66477C57.2538 9.86932 57.5398 10.178 57.767 10.5909C57.9943 11.0038 58.108 11.5568 58.108 12.25V18H56.767V16.8182H56.6989C56.608 17.0076 56.4564 17.2102 56.2443 17.4261C56.0322 17.642 55.75 17.8258 55.3977 17.9773C55.0455 18.1288 54.6155 18.2045 54.108 18.2045ZM54.3125 17C54.8428 17 55.2898 16.8958 55.6534 16.6875C56.0208 16.4792 56.2973 16.2102 56.483 15.8807C56.6723 15.5511 56.767 15.2045 56.767 14.8409V13.6136C56.7102 13.6818 56.5852 13.7443 56.392 13.8011C56.2027 13.8542 55.983 13.9015 55.733 13.9432C55.4867 13.9811 55.2462 14.0152 55.0114 14.0455C54.7803 14.072 54.5928 14.0947 54.4489 14.1136C54.1004 14.1591 53.7746 14.233 53.4716 14.3352C53.1723 14.4337 52.9299 14.5833 52.7443 14.7841C52.5625 14.9811 52.4716 15.25 52.4716 15.5909C52.4716 16.0568 52.6439 16.4091 52.9886 16.6477C53.3371 16.8826 53.7784 17 54.3125 17ZM60.5554 18V9.27273H61.8509V10.6364H61.9645C62.1463 10.1705 62.4399 9.80871 62.8452 9.55114C63.2505 9.28977 63.7372 9.15909 64.3054 9.15909C64.8812 9.15909 65.3603 9.28977 65.7429 9.55114C66.1293 9.80871 66.4304 10.1705 66.6463 10.6364H66.7372C66.9607 10.1856 67.2959 9.82765 67.7429 9.5625C68.1899 9.29356 68.7259 9.15909 69.3509 9.15909C70.1312 9.15909 70.7694 9.40341 71.2656 9.89205C71.7618 10.3769 72.0099 11.1326 72.0099 12.1591V18H70.669V12.1591C70.669 11.5152 70.4929 11.0549 70.1406 10.7784C69.7884 10.5019 69.3736 10.3636 68.8963 10.3636C68.2827 10.3636 67.8073 10.5492 67.4702 10.9205C67.133 11.2879 66.9645 11.7538 66.9645 12.3182V18H65.6009V12.0227C65.6009 11.5265 65.4399 11.1269 65.1179 10.8239C64.7959 10.517 64.3812 10.3636 63.8736 10.3636C63.5251 10.3636 63.1993 10.4564 62.8963 10.642C62.5971 10.8277 62.3546 11.0852 62.169 11.4148C61.9872 11.7405 61.8963 12.1174 61.8963 12.5455V18H60.5554ZM79.1435 6.36364H80.8253L84.7798 16.0227H84.9162L88.8707 6.36364H90.5526V18H89.2344V9.15909H89.1207L85.4844 18H84.2116L80.5753 9.15909H80.4616V18H79.1435V6.36364ZM96.8551 18.1818C96.0142 18.1818 95.2888 17.9962 94.679 17.625C94.0729 17.25 93.6051 16.7273 93.2756 16.0568C92.9498 15.3826 92.7869 14.5985 92.7869 13.7045C92.7869 12.8106 92.9498 12.0227 93.2756 11.3409C93.6051 10.6553 94.0634 10.1212 94.6506 9.73864C95.2415 9.35227 95.9309 9.15909 96.7188 9.15909C97.1733 9.15909 97.6222 9.23485 98.0653 9.38636C98.5085 9.53788 98.9119 9.78409 99.2756 10.125C99.6392 10.4621 99.929 10.9091 100.145 11.4659C100.361 12.0227 100.469 12.7083 100.469 13.5227V14.0909H93.7415V12.9318H99.1051C99.1051 12.4394 99.0066 12 98.8097 11.6136C98.6165 11.2273 98.34 10.9223 97.9801 10.6989C97.6241 10.4754 97.2036 10.3636 96.7188 10.3636C96.1847 10.3636 95.7225 10.4962 95.3324 10.7614C94.946 11.0227 94.6487 11.3636 94.4403 11.7841C94.232 12.2045 94.1278 12.6553 94.1278 13.1364V13.9091C94.1278 14.5682 94.2415 15.1269 94.4688 15.5852C94.6998 16.0398 95.0199 16.3864 95.429 16.625C95.8381 16.8598 96.3134 16.9773 96.8551 16.9773C97.2074 16.9773 97.5256 16.928 97.8097 16.8295C98.0975 16.7273 98.3456 16.5758 98.554 16.375C98.7623 16.1705 98.9233 15.9167 99.0369 15.6136L100.332 15.9773C100.196 16.4167 99.9669 16.803 99.6449 17.1364C99.3229 17.4659 98.9252 17.7235 98.4517 17.9091C97.9782 18.0909 97.446 18.1818 96.8551 18.1818ZM102.509 18V9.27273H103.804V10.6364H103.918C104.099 10.1705 104.393 9.80871 104.798 9.55114C105.204 9.28977 105.69 9.15909 106.259 9.15909C106.834 9.15909 107.313 9.28977 107.696 9.55114C108.082 9.80871 108.384 10.1705 108.599 10.6364H108.69C108.914 10.1856 109.249 9.82765 109.696 9.5625C110.143 9.29356 110.679 9.15909 111.304 9.15909C112.084 9.15909 112.723 9.40341 113.219 9.89205C113.715 10.3769 113.963 11.1326 113.963 12.1591V18H112.622V12.1591C112.622 11.5152 112.446 11.0549 112.094 10.7784C111.741 10.5019 111.327 10.3636 110.849 10.3636C110.236 10.3636 109.76 10.5492 109.423 10.9205C109.086 11.2879 108.918 11.7538 108.918 12.3182V18H107.554V12.0227C107.554 11.5265 107.393 11.1269 107.071 10.8239C106.749 10.517 106.334 10.3636 105.827 10.3636C105.478 10.3636 105.152 10.4564 104.849 10.642C104.55 10.8277 104.308 11.0852 104.122 11.4148C103.94 11.7405 103.849 12.1174 103.849 12.5455V18H102.509ZM116.597 18V6.36364H117.938V10.6591H118.051C118.15 10.5076 118.286 10.3144 118.46 10.0795C118.638 9.84091 118.892 9.62879 119.222 9.44318C119.555 9.25379 120.006 9.15909 120.574 9.15909C121.309 9.15909 121.956 9.3428 122.517 9.71023C123.078 10.0777 123.515 10.5985 123.83 11.2727C124.144 11.947 124.301 12.7424 124.301 13.6591C124.301 14.5833 124.144 15.3845 123.83 16.0625C123.515 16.7367 123.08 17.2595 122.523 17.6307C121.966 17.9981 121.324 18.1818 120.597 18.1818C120.036 18.1818 119.587 18.089 119.25 17.9034C118.913 17.714 118.653 17.5 118.472 17.2614C118.29 17.0189 118.15 16.8182 118.051 16.6591H117.892V18H116.597ZM117.915 13.6364C117.915 14.2955 118.011 14.8769 118.205 15.3807C118.398 15.8807 118.68 16.2727 119.051 16.5568C119.422 16.8371 119.877 16.9773 120.415 16.9773C120.975 16.9773 121.443 16.8295 121.818 16.5341C122.197 16.2348 122.481 15.8333 122.67 15.3295C122.864 14.822 122.96 14.2576 122.96 13.6364C122.96 13.0227 122.866 12.4697 122.676 11.9773C122.491 11.4811 122.208 11.089 121.83 10.8011C121.455 10.5095 120.983 10.3636 120.415 10.3636C119.869 10.3636 119.411 10.5019 119.04 10.7784C118.669 11.0511 118.388 11.4337 118.199 11.9261C118.009 12.4148 117.915 12.9848 117.915 13.6364ZM130.011 18.1818C129.17 18.1818 128.445 17.9962 127.835 17.625C127.229 17.25 126.761 16.7273 126.432 16.0568C126.106 15.3826 125.943 14.5985 125.943 13.7045C125.943 12.8106 126.106 12.0227 126.432 11.3409C126.761 10.6553 127.22 10.1212 127.807 9.73864C128.398 9.35227 129.087 9.15909 129.875 9.15909C130.33 9.15909 130.778 9.23485 131.222 9.38636C131.665 9.53788 132.068 9.78409 132.432 10.125C132.795 10.4621 133.085 10.9091 133.301 11.4659C133.517 12.0227 133.625 12.7083 133.625 13.5227V14.0909H126.898V12.9318H132.261C132.261 12.4394 132.163 12 131.966 11.6136C131.773 11.2273 131.496 10.9223 131.136 10.6989C130.78 10.4754 130.36 10.3636 129.875 10.3636C129.341 10.3636 128.879 10.4962 128.489 10.7614C128.102 11.0227 127.805 11.3636 127.597 11.7841C127.388 12.2045 127.284 12.6553 127.284 13.1364V13.9091C127.284 14.5682 127.398 15.1269 127.625 15.5852C127.856 16.0398 128.176 16.3864 128.585 16.625C128.994 16.8598 129.47 16.9773 130.011 16.9773C130.364 16.9773 130.682 16.928 130.966 16.8295C131.254 16.7273 131.502 16.5758 131.71 16.375C131.919 16.1705 132.08 15.9167 132.193 15.6136L133.489 15.9773C133.352 16.4167 133.123 16.803 132.801 17.1364C132.479 17.4659 132.081 17.7235 131.608 17.9091C131.134 18.0909 130.602 18.1818 130.011 18.1818ZM135.665 18V9.27273H136.96V10.5909H137.051C137.21 10.1591 137.498 9.80871 137.915 9.53977C138.331 9.27083 138.801 9.13636 139.324 9.13636C139.422 9.13636 139.545 9.13826 139.693 9.14205C139.841 9.14583 139.953 9.15152 140.028 9.15909V10.5227C139.983 10.5114 139.879 10.4943 139.716 10.4716C139.557 10.4451 139.388 10.4318 139.21 10.4318C138.786 10.4318 138.407 10.5208 138.074 10.6989C137.744 10.8731 137.483 11.1155 137.29 11.4261C137.1 11.733 137.006 12.0833 137.006 12.4773V18H135.665Z" fill="white"/>
<defs>
<clipPath id="clip0_3081_28378">
<rect width="24" height="24" fill="white"/>
</clipPath>
</defs>
</svg>
