<svg width="109" height="24" viewBox="0 0 109 24" fill="none" xmlns="http://www.w3.org/2000/svg">
<path fill-rule="evenodd" clip-rule="evenodd" d="M19.5 9V4.5H4.5V9H19.5ZM4.5 3H19.5C19.8978 3 20.2794 3.15804 20.5607 3.43934C20.842 3.72064 21 4.10218 21 4.5V9C21 9.39782 20.842 9.77936 20.5607 10.0607C20.2794 10.342 19.8978 10.5 19.5 10.5H4.5C4.10218 10.5 3.72064 10.342 3.43934 10.0607C3.15804 9.77936 3 9.39782 3 9V4.5C3 4.10218 3.15804 3.72064 3.43934 3.43934C3.72064 3.15804 4.10218 3 4.5 3ZM21 14.25H3V15.75H21V14.25ZM21 19.5H3V21H21V19.5Z" fill="white"/>
<path d="M33.8864 18H32.4091L36.6818 6.36364H38.1364L42.4091 18H40.9318L37.4545 8.20455H37.3636L33.8864 18ZM34.4318 13.4545H40.3864V14.7045H34.4318V13.4545ZM47.5852 18.1818C46.767 18.1818 46.0625 17.9886 45.4716 17.6023C44.8807 17.2159 44.4261 16.6837 44.108 16.0057C43.7898 15.3277 43.6307 14.553 43.6307 13.6818C43.6307 12.7955 43.7936 12.0133 44.1193 11.3352C44.4489 10.6534 44.9072 10.1212 45.4943 9.73864C46.0852 9.35227 46.7746 9.15909 47.5625 9.15909C48.1761 9.15909 48.7292 9.27273 49.2216 9.5C49.714 9.72727 50.1174 10.0455 50.4318 10.4545C50.7462 10.8636 50.9413 11.3409 51.017 11.8864H49.6761C49.5739 11.4886 49.3466 11.1364 48.9943 10.8295C48.6458 10.5189 48.1761 10.3636 47.5852 10.3636C47.0625 10.3636 46.6042 10.5 46.2102 10.7727C45.8201 11.0417 45.5152 11.4223 45.2955 11.9148C45.0795 12.4034 44.9716 12.9773 44.9716 13.6364C44.9716 14.3106 45.0777 14.8977 45.2898 15.3977C45.5057 15.8977 45.8087 16.286 46.1989 16.5625C46.5928 16.839 47.0549 16.9773 47.5852 16.9773C47.9337 16.9773 48.25 16.9167 48.5341 16.7955C48.8182 16.6742 49.0587 16.5 49.2557 16.2727C49.4527 16.0455 49.5928 15.7727 49.6761 15.4545H51.017C50.9413 15.9697 50.7538 16.4337 50.4545 16.8466C50.1591 17.2557 49.767 17.5814 49.2784 17.8239C48.7936 18.0625 48.2292 18.1818 47.5852 18.1818ZM56.5227 18.1818C55.7045 18.1818 55 17.9886 54.4091 17.6023C53.8182 17.2159 53.3636 16.6837 53.0455 16.0057C52.7273 15.3277 52.5682 14.553 52.5682 13.6818C52.5682 12.7955 52.7311 12.0133 53.0568 11.3352C53.3864 10.6534 53.8447 10.1212 54.4318 9.73864C55.0227 9.35227 55.7121 9.15909 56.5 9.15909C57.1136 9.15909 57.6667 9.27273 58.1591 9.5C58.6515 9.72727 59.0549 10.0455 59.3693 10.4545C59.6837 10.8636 59.8788 11.3409 59.9545 11.8864H58.6136C58.5114 11.4886 58.2841 11.1364 57.9318 10.8295C57.5833 10.5189 57.1136 10.3636 56.5227 10.3636C56 10.3636 55.5417 10.5 55.1477 10.7727C54.7576 11.0417 54.4527 11.4223 54.233 11.9148C54.017 12.4034 53.9091 12.9773 53.9091 13.6364C53.9091 14.3106 54.0152 14.8977 54.2273 15.3977C54.4432 15.8977 54.7462 16.286 55.1364 16.5625C55.5303 16.839 55.9924 16.9773 56.5227 16.9773C56.8712 16.9773 57.1875 16.9167 57.4716 16.7955C57.7557 16.6742 57.9962 16.5 58.1932 16.2727C58.3902 16.0455 58.5303 15.7727 58.6136 15.4545H59.9545C59.8788 15.9697 59.6913 16.4337 59.392 16.8466C59.0966 17.2557 58.7045 17.5814 58.2159 17.8239C57.7311 18.0625 57.1667 18.1818 56.5227 18.1818ZM65.4602 18.1818C64.6723 18.1818 63.9811 17.9943 63.3864 17.6193C62.7955 17.2443 62.3333 16.7197 62 16.0455C61.6705 15.3712 61.5057 14.5833 61.5057 13.6818C61.5057 12.7727 61.6705 11.9792 62 11.3011C62.3333 10.6231 62.7955 10.0966 63.3864 9.72159C63.9811 9.34659 64.6723 9.15909 65.4602 9.15909C66.2481 9.15909 66.9375 9.34659 67.5284 9.72159C68.1231 10.0966 68.5852 10.6231 68.9148 11.3011C69.2481 11.9792 69.4148 12.7727 69.4148 13.6818C69.4148 14.5833 69.2481 15.3712 68.9148 16.0455C68.5852 16.7197 68.1231 17.2443 67.5284 17.6193C66.9375 17.9943 66.2481 18.1818 65.4602 18.1818ZM65.4602 16.9773C66.0587 16.9773 66.5511 16.8239 66.9375 16.517C67.3239 16.2102 67.6098 15.8068 67.7955 15.3068C67.9811 14.8068 68.0739 14.2652 68.0739 13.6818C68.0739 13.0985 67.9811 12.5549 67.7955 12.0511C67.6098 11.5473 67.3239 11.1402 66.9375 10.8295C66.5511 10.5189 66.0587 10.3636 65.4602 10.3636C64.8617 10.3636 64.3693 10.5189 63.983 10.8295C63.5966 11.1402 63.3106 11.5473 63.125 12.0511C62.9394 12.5549 62.8466 13.0985 62.8466 13.6818C62.8466 14.2652 62.9394 14.8068 63.125 15.3068C63.3106 15.8068 63.5966 16.2102 63.983 16.517C64.3693 16.8239 64.8617 16.9773 65.4602 16.9773ZM71.4616 18V9.27273H72.7571V10.5909H72.848C73.0071 10.1591 73.295 9.80871 73.7116 9.53977C74.1283 9.27083 74.598 9.13636 75.1207 9.13636C75.2192 9.13636 75.3423 9.13826 75.4901 9.14205C75.6378 9.14583 75.7495 9.15152 75.8253 9.15909V10.5227C75.7798 10.5114 75.6757 10.4943 75.5128 10.4716C75.3537 10.4451 75.1851 10.4318 75.0071 10.4318C74.5829 10.4318 74.2041 10.5208 73.8707 10.6989C73.5412 10.8731 73.2798 11.1155 73.0866 11.4261C72.8973 11.733 72.8026 12.0833 72.8026 12.4773V18H71.4616ZM80.4446 18.1818C79.7173 18.1818 79.0753 17.9981 78.5185 17.6307C77.9616 17.2595 77.526 16.7367 77.2116 16.0625C76.8973 15.3845 76.7401 14.5833 76.7401 13.6591C76.7401 12.7424 76.8973 11.947 77.2116 11.2727C77.526 10.5985 77.9635 10.0777 78.5241 9.71023C79.0848 9.3428 79.7325 9.15909 80.4673 9.15909C81.0355 9.15909 81.4844 9.25379 81.8139 9.44318C82.1473 9.62879 82.401 9.84091 82.5753 10.0795C82.7533 10.3144 82.8916 10.5076 82.9901 10.6591H83.1037V6.36364H84.4446V18H83.1491V16.6591H82.9901C82.8916 16.8182 82.7514 17.0189 82.5696 17.2614C82.3878 17.5 82.1283 17.714 81.7912 17.9034C81.4541 18.089 81.0052 18.1818 80.4446 18.1818ZM80.6264 16.9773C81.1643 16.9773 81.6188 16.8371 81.9901 16.5568C82.3613 16.2727 82.6435 15.8807 82.8366 15.3807C83.0298 14.8769 83.1264 14.2955 83.1264 13.6364C83.1264 12.9848 83.0317 12.4148 82.8423 11.9261C82.6529 11.4337 82.3726 11.0511 82.0014 10.7784C81.6302 10.5019 81.1719 10.3636 80.6264 10.3636C80.0582 10.3636 79.5848 10.5095 79.206 10.8011C78.831 11.089 78.5488 11.4811 78.3594 11.9773C78.1738 12.4697 78.081 13.0227 78.081 13.6364C78.081 14.2576 78.1757 14.822 78.3651 15.3295C78.5582 15.8333 78.8423 16.2348 79.2173 16.5341C79.5961 16.8295 80.0658 16.9773 80.6264 16.9773ZM87.0866 18V9.27273H88.4276V18H87.0866ZM87.7685 7.81818C87.5071 7.81818 87.2817 7.72917 87.0923 7.55114C86.9067 7.37311 86.8139 7.15909 86.8139 6.90909C86.8139 6.65909 86.9067 6.44508 87.0923 6.26705C87.2817 6.08902 87.5071 6 87.7685 6C88.0298 6 88.2533 6.08902 88.4389 6.26705C88.6283 6.44508 88.723 6.65909 88.723 6.90909C88.723 7.15909 88.6283 7.37311 88.4389 7.55114C88.2533 7.72917 88.0298 7.81818 87.7685 7.81818ZM94.429 18.1818C93.6411 18.1818 92.9498 17.9943 92.3551 17.6193C91.7642 17.2443 91.3021 16.7197 90.9688 16.0455C90.6392 15.3712 90.4744 14.5833 90.4744 13.6818C90.4744 12.7727 90.6392 11.9792 90.9688 11.3011C91.3021 10.6231 91.7642 10.0966 92.3551 9.72159C92.9498 9.34659 93.6411 9.15909 94.429 9.15909C95.2169 9.15909 95.9063 9.34659 96.4972 9.72159C97.0919 10.0966 97.554 10.6231 97.8835 11.3011C98.2169 11.9792 98.3835 12.7727 98.3835 13.6818C98.3835 14.5833 98.2169 15.3712 97.8835 16.0455C97.554 16.7197 97.0919 17.2443 96.4972 17.6193C95.9063 17.9943 95.2169 18.1818 94.429 18.1818ZM94.429 16.9773C95.0275 16.9773 95.5199 16.8239 95.9062 16.517C96.2926 16.2102 96.5786 15.8068 96.7642 15.3068C96.9498 14.8068 97.0426 14.2652 97.0426 13.6818C97.0426 13.0985 96.9498 12.5549 96.7642 12.0511C96.5786 11.5473 96.2926 11.1402 95.9062 10.8295C95.5199 10.5189 95.0275 10.3636 94.429 10.3636C93.8305 10.3636 93.3381 10.5189 92.9517 10.8295C92.5653 11.1402 92.2794 11.5473 92.0938 12.0511C91.9081 12.5549 91.8153 13.0985 91.8153 13.6818C91.8153 14.2652 91.9081 14.8068 92.0938 15.3068C92.2794 15.8068 92.5653 16.2102 92.9517 16.517C93.3381 16.8239 93.8305 16.9773 94.429 16.9773ZM101.771 12.75V18H100.43V9.27273H101.726V10.6364H101.839C102.044 10.1932 102.355 9.83712 102.771 9.56818C103.188 9.29545 103.726 9.15909 104.385 9.15909C104.976 9.15909 105.493 9.2803 105.936 9.52273C106.379 9.76136 106.724 10.125 106.97 10.6136C107.216 11.0985 107.339 11.7121 107.339 12.4545V18H105.999V12.5455C105.999 11.8598 105.821 11.3258 105.464 10.9432C105.108 10.5568 104.62 10.3636 103.999 10.3636C103.571 10.3636 103.188 10.4564 102.851 10.642C102.518 10.8277 102.254 11.0985 102.061 11.4545C101.868 11.8106 101.771 12.2424 101.771 12.75Z" fill="white"/>
</svg>
