<svg width="127" height="24" viewBox="0 0 127 24" fill="none" xmlns="http://www.w3.org/2000/svg">
<path fill-rule="evenodd" clip-rule="evenodd" d="M19.4175 12.75H15C14.6022 12.75 14.2206 12.592 13.9393 12.3107C13.658 12.0294 13.5 11.6478 13.5 11.25V6.75C13.5 6.35218 13.658 5.97064 13.9393 5.68934C14.2206 5.40804 14.6022 5.25 15 5.25H19.5C19.8978 5.25 20.2794 5.40804 20.5607 5.68934C20.842 5.97064 21 6.35218 21 6.75V11.7375C20.9995 13.0955 20.6639 14.4323 20.0228 15.6295C19.3817 16.8266 18.455 17.8469 17.325 18.6L15.9825 19.5L15.1575 18.255L16.5 17.355C17.2798 16.8325 17.942 16.153 18.4443 15.3601C18.9467 14.5672 19.2781 13.6782 19.4175 12.75ZM8.9175 12.75H4.5C4.10217 12.75 3.72064 12.592 3.43934 12.3107C3.15804 12.0294 3 11.6478 3 11.25V6.75C3 6.35218 3.15804 5.97064 3.43934 5.68934C3.72064 5.40804 4.10217 5.25 4.5 5.25H9C9.39782 5.25 9.77936 5.40804 10.0607 5.68934C10.342 5.97064 10.5 6.35218 10.5 6.75V11.7375C10.4995 13.0955 10.1639 14.4323 9.5228 15.6295C8.88172 16.8266 7.95504 17.8469 6.825 18.6L5.475 19.5L4.6575 18.255L6 17.355C6.77976 16.8325 7.44196 16.153 7.94431 15.3601C8.44666 14.5672 8.77811 13.6782 8.9175 12.75Z" fill="white"/>
<path d="M32.7727 7.61364V6.36364H41.5V7.61364H37.8409V18H36.4318V7.61364H32.7727ZM45.8864 18.1818C45.0455 18.1818 44.3201 17.9962 43.7102 17.625C43.1042 17.25 42.6364 16.7273 42.3068 16.0568C41.9811 15.3826 41.8182 14.5985 41.8182 13.7045C41.8182 12.8106 41.9811 12.0227 42.3068 11.3409C42.6364 10.6553 43.0947 10.1212 43.6818 9.73864C44.2727 9.35227 44.9621 9.15909 45.75 9.15909C46.2045 9.15909 46.6534 9.23485 47.0966 9.38636C47.5398 9.53788 47.9432 9.78409 48.3068 10.125C48.6705 10.4621 48.9602 10.9091 49.1761 11.4659C49.392 12.0227 49.5 12.7083 49.5 13.5227V14.0909H42.7727V12.9318H48.1364C48.1364 12.4394 48.0379 12 47.8409 11.6136C47.6477 11.2273 47.3712 10.9223 47.0114 10.6989C46.6553 10.4754 46.2348 10.3636 45.75 10.3636C45.2159 10.3636 44.7538 10.4962 44.3636 10.7614C43.9773 11.0227 43.6799 11.3636 43.4716 11.7841C43.2633 12.2045 43.1591 12.6553 43.1591 13.1364V13.9091C43.1591 14.5682 43.2727 15.1269 43.5 15.5852C43.7311 16.0398 44.0511 16.3864 44.4602 16.625C44.8693 16.8598 45.3447 16.9773 45.8864 16.9773C46.2386 16.9773 46.5568 16.928 46.8409 16.8295C47.1288 16.7273 47.3769 16.5758 47.5852 16.375C47.7936 16.1705 47.9545 15.9167 48.0682 15.6136L49.3636 15.9773C49.2273 16.4167 48.9981 16.803 48.6761 17.1364C48.3542 17.4659 47.9564 17.7235 47.483 17.9091C47.0095 18.0909 46.4773 18.1818 45.8864 18.1818ZM57.7216 11.2273L56.517 11.5682C56.4413 11.3674 56.3295 11.1723 56.1818 10.983C56.0379 10.7898 55.8409 10.6307 55.5909 10.5057C55.3409 10.3807 55.0208 10.3182 54.6307 10.3182C54.0966 10.3182 53.6515 10.4413 53.2955 10.6875C52.9432 10.9299 52.767 11.2386 52.767 11.6136C52.767 11.947 52.8883 12.2102 53.1307 12.4034C53.3731 12.5966 53.7519 12.7576 54.267 12.8864L55.5625 13.2045C56.3428 13.3939 56.9242 13.6837 57.3068 14.0739C57.6894 14.4602 57.8807 14.9583 57.8807 15.5682C57.8807 16.0682 57.7367 16.5152 57.4489 16.9091C57.1648 17.303 56.767 17.6136 56.2557 17.8409C55.7443 18.0682 55.1496 18.1818 54.4716 18.1818C53.5814 18.1818 52.8447 17.9886 52.2614 17.6023C51.678 17.2159 51.3087 16.6515 51.1534 15.9091L52.4261 15.5909C52.5473 16.0606 52.7765 16.4129 53.1136 16.6477C53.4545 16.8826 53.8996 17 54.4489 17C55.0739 17 55.5701 16.8674 55.9375 16.6023C56.3087 16.3333 56.4943 16.0114 56.4943 15.6364C56.4943 15.3333 56.3883 15.0795 56.1761 14.875C55.964 14.6667 55.6383 14.5114 55.1989 14.4091L53.7443 14.0682C52.9451 13.8788 52.358 13.5852 51.983 13.1875C51.6117 12.786 51.4261 12.2841 51.4261 11.6818C51.4261 11.1894 51.5644 10.7538 51.8409 10.375C52.1212 9.99621 52.5019 9.69886 52.983 9.48295C53.4678 9.26705 54.017 9.15909 54.6307 9.15909C55.4943 9.15909 56.1723 9.34848 56.6648 9.72727C57.161 10.1061 57.5133 10.6061 57.7216 11.2273ZM63.6946 9.27273V10.4091H59.1719V9.27273H63.6946ZM60.4901 7.18182H61.831V15.5C61.831 15.8788 61.8859 16.1629 61.9957 16.3523C62.1094 16.5379 62.2533 16.6629 62.4276 16.7273C62.6056 16.7879 62.7931 16.8182 62.9901 16.8182C63.1378 16.8182 63.259 16.8106 63.3537 16.7955C63.4484 16.7765 63.5241 16.7614 63.581 16.75L63.8537 17.9545C63.7628 17.9886 63.6359 18.0227 63.473 18.0568C63.3101 18.0947 63.1037 18.1136 62.8537 18.1136C62.4749 18.1136 62.1037 18.0322 61.7401 17.8693C61.3802 17.7064 61.081 17.4583 60.8423 17.125C60.6075 16.7917 60.4901 16.3712 60.4901 15.8636V7.18182ZM65.7116 18V9.27273H67.0526V18H65.7116ZM66.3935 7.81818C66.1321 7.81818 65.9067 7.72917 65.7173 7.55114C65.5317 7.37311 65.4389 7.15909 65.4389 6.90909C65.4389 6.65909 65.5317 6.44508 65.7173 6.26705C65.9067 6.08902 66.1321 6 66.3935 6C66.6548 6 66.8783 6.08902 67.0639 6.26705C67.2533 6.44508 67.348 6.65909 67.348 6.90909C67.348 7.15909 67.2533 7.37311 67.0639 7.55114C66.8783 7.72917 66.6548 7.81818 66.3935 7.81818ZM69.5085 18V9.27273H70.804V10.6364H70.9176C71.0994 10.1705 71.393 9.80871 71.7983 9.55114C72.2036 9.28977 72.6903 9.15909 73.2585 9.15909C73.8343 9.15909 74.3134 9.28977 74.696 9.55114C75.0824 9.80871 75.3835 10.1705 75.5994 10.6364H75.6903C75.9138 10.1856 76.2491 9.82765 76.696 9.5625C77.143 9.29356 77.679 9.15909 78.304 9.15909C79.0843 9.15909 79.7225 9.40341 80.2188 9.89205C80.715 10.3769 80.9631 11.1326 80.9631 12.1591V18H79.6222V12.1591C79.6222 11.5152 79.446 11.0549 79.0938 10.7784C78.7415 10.5019 78.3267 10.3636 77.8494 10.3636C77.2358 10.3636 76.7604 10.5492 76.4233 10.9205C76.0862 11.2879 75.9176 11.7538 75.9176 12.3182V18H74.554V12.0227C74.554 11.5265 74.393 11.1269 74.071 10.8239C73.7491 10.517 73.3343 10.3636 72.8267 10.3636C72.4782 10.3636 72.1525 10.4564 71.8494 10.642C71.5502 10.8277 71.3078 11.0852 71.1222 11.4148C70.9403 11.7405 70.8494 12.1174 70.8494 12.5455V18H69.5085ZM86.9602 18.1818C86.1723 18.1818 85.4811 17.9943 84.8864 17.6193C84.2955 17.2443 83.8333 16.7197 83.5 16.0455C83.1705 15.3712 83.0057 14.5833 83.0057 13.6818C83.0057 12.7727 83.1705 11.9792 83.5 11.3011C83.8333 10.6231 84.2955 10.0966 84.8864 9.72159C85.4811 9.34659 86.1723 9.15909 86.9602 9.15909C87.7481 9.15909 88.4375 9.34659 89.0284 9.72159C89.6231 10.0966 90.0852 10.6231 90.4148 11.3011C90.7481 11.9792 90.9148 12.7727 90.9148 13.6818C90.9148 14.5833 90.7481 15.3712 90.4148 16.0455C90.0852 16.7197 89.6231 17.2443 89.0284 17.6193C88.4375 17.9943 87.7481 18.1818 86.9602 18.1818ZM86.9602 16.9773C87.5587 16.9773 88.0511 16.8239 88.4375 16.517C88.8239 16.2102 89.1098 15.8068 89.2955 15.3068C89.4811 14.8068 89.5739 14.2652 89.5739 13.6818C89.5739 13.0985 89.4811 12.5549 89.2955 12.0511C89.1098 11.5473 88.8239 11.1402 88.4375 10.8295C88.0511 10.5189 87.5587 10.3636 86.9602 10.3636C86.3617 10.3636 85.8693 10.5189 85.483 10.8295C85.0966 11.1402 84.8106 11.5473 84.625 12.0511C84.4394 12.5549 84.3466 13.0985 84.3466 13.6818C84.3466 14.2652 84.4394 14.8068 84.625 15.3068C84.8106 15.8068 85.0966 16.2102 85.483 16.517C85.8693 16.8239 86.3617 16.9773 86.9602 16.9773ZM94.3026 12.75V18H92.9616V9.27273H94.2571V10.6364H94.3707C94.5753 10.1932 94.8859 9.83712 95.3026 9.56818C95.7192 9.29545 96.2571 9.15909 96.9162 9.15909C97.5071 9.15909 98.0241 9.2803 98.4673 9.52273C98.9105 9.76136 99.2552 10.125 99.5014 10.6136C99.7476 11.0985 99.8707 11.7121 99.8707 12.4545V18H98.5298V12.5455C98.5298 11.8598 98.3518 11.3258 97.9957 10.9432C97.6397 10.5568 97.151 10.3636 96.5298 10.3636C96.1018 10.3636 95.7192 10.4564 95.3821 10.642C95.0488 10.8277 94.7855 11.0985 94.5923 11.4545C94.3991 11.8106 94.3026 12.2424 94.3026 12.75ZM102.321 18V9.27273H103.662V18H102.321ZM103.003 7.81818C102.741 7.81818 102.516 7.72917 102.327 7.55114C102.141 7.37311 102.048 7.15909 102.048 6.90909C102.048 6.65909 102.141 6.44508 102.327 6.26705C102.516 6.08902 102.741 6 103.003 6C103.264 6 103.488 6.08902 103.673 6.26705C103.863 6.44508 103.957 6.65909 103.957 6.90909C103.957 7.15909 103.863 7.37311 103.673 7.55114C103.488 7.72917 103.264 7.81818 103.003 7.81818ZM108.686 18.2045C108.133 18.2045 107.631 18.1004 107.18 17.892C106.73 17.6799 106.372 17.375 106.107 16.9773C105.841 16.5758 105.709 16.0909 105.709 15.5227C105.709 15.0227 105.807 14.6174 106.004 14.3068C106.201 13.9924 106.464 13.7462 106.794 13.5682C107.124 13.3902 107.487 13.2576 107.885 13.1705C108.286 13.0795 108.69 13.0076 109.095 12.9545C109.625 12.8864 110.055 12.8352 110.385 12.8011C110.718 12.7633 110.961 12.7008 111.112 12.6136C111.268 12.5265 111.345 12.375 111.345 12.1591V12.1136C111.345 11.553 111.192 11.1174 110.885 10.8068C110.582 10.4962 110.122 10.3409 109.504 10.3409C108.864 10.3409 108.362 10.4811 107.999 10.7614C107.635 11.0417 107.379 11.3409 107.232 11.6591L105.959 11.2045C106.186 10.6742 106.489 10.2614 106.868 9.96591C107.25 9.66667 107.667 9.45833 108.118 9.34091C108.572 9.2197 109.019 9.15909 109.459 9.15909C109.739 9.15909 110.061 9.19318 110.425 9.26136C110.792 9.32576 111.146 9.46023 111.487 9.66477C111.832 9.86932 112.118 10.178 112.345 10.5909C112.572 11.0038 112.686 11.5568 112.686 12.25V18H111.345V16.8182H111.277C111.186 17.0076 111.035 17.2102 110.822 17.4261C110.61 17.642 110.328 17.8258 109.976 17.9773C109.624 18.1288 109.194 18.2045 108.686 18.2045ZM108.891 17C109.421 17 109.868 16.8958 110.232 16.6875C110.599 16.4792 110.875 16.2102 111.061 15.8807C111.25 15.5511 111.345 15.2045 111.345 14.8409V13.6136C111.288 13.6818 111.163 13.7443 110.97 13.8011C110.781 13.8542 110.561 13.9015 110.311 13.9432C110.065 13.9811 109.824 14.0152 109.589 14.0455C109.358 14.072 109.171 14.0947 109.027 14.1136C108.679 14.1591 108.353 14.233 108.05 14.3352C107.75 14.4337 107.508 14.5833 107.322 14.7841C107.141 14.9811 107.05 15.25 107.05 15.5909C107.05 16.0568 107.222 16.4091 107.567 16.6477C107.915 16.8826 108.357 17 108.891 17ZM116.474 6.36364V18H115.134V6.36364H116.474ZM125.112 11.2273L123.908 11.5682C123.832 11.3674 123.72 11.1723 123.572 10.983C123.429 10.7898 123.232 10.6307 122.982 10.5057C122.732 10.3807 122.411 10.3182 122.021 10.3182C121.487 10.3182 121.042 10.4413 120.686 10.6875C120.334 10.9299 120.158 11.2386 120.158 11.6136C120.158 11.947 120.279 12.2102 120.521 12.4034C120.764 12.5966 121.143 12.7576 121.658 12.8864L122.953 13.2045C123.733 13.3939 124.315 13.6837 124.697 14.0739C125.08 14.4602 125.271 14.9583 125.271 15.5682C125.271 16.0682 125.127 16.5152 124.839 16.9091C124.555 17.303 124.158 17.6136 123.646 17.8409C123.135 18.0682 122.54 18.1818 121.862 18.1818C120.972 18.1818 120.235 17.9886 119.652 17.6023C119.069 17.2159 118.699 16.6515 118.544 15.9091L119.817 15.5909C119.938 16.0606 120.167 16.4129 120.504 16.6477C120.845 16.8826 121.29 17 121.839 17C122.464 17 122.961 16.8674 123.328 16.6023C123.699 16.3333 123.885 16.0114 123.885 15.6364C123.885 15.3333 123.779 15.0795 123.567 14.875C123.355 14.6667 123.029 14.5114 122.589 14.4091L121.135 14.0682C120.336 13.8788 119.749 13.5852 119.374 13.1875C119.002 12.786 118.817 12.2841 118.817 11.6818C118.817 11.1894 118.955 10.7538 119.232 10.375C119.512 9.99621 119.893 9.69886 120.374 9.48295C120.858 9.26705 121.408 9.15909 122.021 9.15909C122.885 9.15909 123.563 9.34848 124.055 9.72727C124.552 10.1061 124.904 10.6061 125.112 11.2273Z" fill="white"/>
</svg>
