<svg width="76" height="24" viewBox="0 0 76 24" fill="none" xmlns="http://www.w3.org/2000/svg">
<path fill-rule="evenodd" clip-rule="evenodd" d="M3 19.5H15.75C16.1477 19.4995 16.529 19.3414 16.8102 19.0602C17.0914 18.779 17.2495 18.3977 17.25 18V14.9576L21.3142 17.8601C21.4263 17.9403 21.5583 17.9881 21.6958 17.9981C21.8332 18.0082 21.9708 17.9801 22.0933 17.9171C22.2159 17.854 22.3187 17.7584 22.3904 17.6407C22.4622 17.523 22.5001 17.3878 22.5 17.25V6.75C22.5001 6.61218 22.4622 6.47701 22.3904 6.35934C22.3187 6.24167 22.2159 6.14606 22.0933 6.08301C21.9708 6.01996 21.8332 5.99192 21.6957 6.00196C21.5583 6.01201 21.4263 6.05975 21.3142 6.13995L17.25 9.04245V6C17.2495 5.60232 17.0914 5.22105 16.8102 4.93984C16.529 4.65864 16.1477 4.50046 15.75 4.5H3C2.60232 4.50046 2.22105 4.65864 1.93984 4.93984C1.65864 5.22105 1.50046 5.60232 1.5 6V18C1.50046 18.3977 1.65864 18.779 1.93984 19.0602C2.22105 19.3414 2.60232 19.4995 3 19.5ZM3 18.0007V6H15.75V10.5C15.7499 10.6378 15.7878 10.773 15.8596 10.8907C15.9313 11.0083 16.0341 11.1039 16.1567 11.167C16.2793 11.23 16.4168 11.2581 16.5543 11.248C16.6917 11.238 16.8237 11.1902 16.9358 11.1101L21 8.20755V15.7924L16.9358 12.8899C16.8237 12.8097 16.6917 12.7619 16.5542 12.7519C16.4168 12.7418 16.2792 12.7699 16.1567 12.8329C16.0341 12.896 15.9313 12.9916 15.8596 13.1093C15.7878 13.227 15.7499 13.3622 15.75 13.5V18L3 18.0007ZM12.75 9H6V10.5H12.75V9ZM9.75 12.75H6V14.25H9.75V12.75Z" fill="white"/>
<path d="M33.8864 6.36364L37.3409 16.1591H37.4773L40.9318 6.36364H42.4091L38.1364 18H36.6818L32.4091 6.36364H33.8864ZM44.0398 18V9.27273H45.3807V18H44.0398ZM44.7216 7.81818C44.4602 7.81818 44.2348 7.72917 44.0455 7.55114C43.8598 7.37311 43.767 7.15909 43.767 6.90909C43.767 6.65909 43.8598 6.44508 44.0455 6.26705C44.2348 6.08902 44.4602 6 44.7216 6C44.983 6 45.2064 6.08902 45.392 6.26705C45.5814 6.44508 45.6761 6.65909 45.6761 6.90909C45.6761 7.15909 45.5814 7.37311 45.392 7.55114C45.2064 7.72917 44.983 7.81818 44.7216 7.81818ZM51.1321 18.1818C50.4048 18.1818 49.7628 17.9981 49.206 17.6307C48.6491 17.2595 48.2135 16.7367 47.8991 16.0625C47.5848 15.3845 47.4276 14.5833 47.4276 13.6591C47.4276 12.7424 47.5848 11.947 47.8991 11.2727C48.2135 10.5985 48.651 10.0777 49.2116 9.71023C49.7723 9.3428 50.42 9.15909 51.1548 9.15909C51.723 9.15909 52.1719 9.25379 52.5014 9.44318C52.8348 9.62879 53.0885 9.84091 53.2628 10.0795C53.4408 10.3144 53.5791 10.5076 53.6776 10.6591H53.7912V6.36364H55.1321V18H53.8366V16.6591H53.6776C53.5791 16.8182 53.4389 17.0189 53.2571 17.2614C53.0753 17.5 52.8158 17.714 52.4787 17.9034C52.1416 18.089 51.6927 18.1818 51.1321 18.1818ZM51.3139 16.9773C51.8518 16.9773 52.3063 16.8371 52.6776 16.5568C53.0488 16.2727 53.331 15.8807 53.5241 15.3807C53.7173 14.8769 53.8139 14.2955 53.8139 13.6364C53.8139 12.9848 53.7192 12.4148 53.5298 11.9261C53.3404 11.4337 53.0601 11.0511 52.6889 10.7784C52.3177 10.5019 51.8594 10.3636 51.3139 10.3636C50.7457 10.3636 50.2723 10.5095 49.8935 10.8011C49.5185 11.089 49.2363 11.4811 49.0469 11.9773C48.8613 12.4697 48.7685 13.0227 48.7685 13.6364C48.7685 14.2576 48.8632 14.822 49.0526 15.3295C49.2457 15.8333 49.5298 16.2348 49.9048 16.5341C50.2836 16.8295 50.7533 16.9773 51.3139 16.9773ZM61.4332 18.1818C60.5923 18.1818 59.867 17.9962 59.2571 17.625C58.651 17.25 58.1832 16.7273 57.8537 16.0568C57.5279 15.3826 57.3651 14.5985 57.3651 13.7045C57.3651 12.8106 57.5279 12.0227 57.8537 11.3409C58.1832 10.6553 58.6416 10.1212 59.2287 9.73864C59.8196 9.35227 60.509 9.15909 61.2969 9.15909C61.7514 9.15909 62.2003 9.23485 62.6435 9.38636C63.0866 9.53788 63.4901 9.78409 63.8537 10.125C64.2173 10.4621 64.5071 10.9091 64.723 11.4659C64.9389 12.0227 65.0469 12.7083 65.0469 13.5227V14.0909H58.3196V12.9318H63.6832C63.6832 12.4394 63.5848 12 63.3878 11.6136C63.1946 11.2273 62.9181 10.9223 62.5582 10.6989C62.2022 10.4754 61.7817 10.3636 61.2969 10.3636C60.7628 10.3636 60.3007 10.4962 59.9105 10.7614C59.5241 11.0227 59.2268 11.3636 59.0185 11.7841C58.8101 12.2045 58.706 12.6553 58.706 13.1364V13.9091C58.706 14.5682 58.8196 15.1269 59.0469 15.5852C59.2779 16.0398 59.598 16.3864 60.0071 16.625C60.4162 16.8598 60.8916 16.9773 61.4332 16.9773C61.7855 16.9773 62.1037 16.928 62.3878 16.8295C62.6757 16.7273 62.9238 16.5758 63.1321 16.375C63.3404 16.1705 63.5014 15.9167 63.6151 15.6136L64.9105 15.9773C64.7741 16.4167 64.545 16.803 64.223 17.1364C63.901 17.4659 63.5033 17.7235 63.0298 17.9091C62.5563 18.0909 62.0241 18.1818 61.4332 18.1818ZM70.6321 18.1818C69.8442 18.1818 69.1529 17.9943 68.5582 17.6193C67.9673 17.2443 67.5052 16.7197 67.1719 16.0455C66.8423 15.3712 66.6776 14.5833 66.6776 13.6818C66.6776 12.7727 66.8423 11.9792 67.1719 11.3011C67.5052 10.6231 67.9673 10.0966 68.5582 9.72159C69.1529 9.34659 69.8442 9.15909 70.6321 9.15909C71.42 9.15909 72.1094 9.34659 72.7003 9.72159C73.295 10.0966 73.7571 10.6231 74.0866 11.3011C74.42 11.9792 74.5866 12.7727 74.5866 13.6818C74.5866 14.5833 74.42 15.3712 74.0866 16.0455C73.7571 16.7197 73.295 17.2443 72.7003 17.6193C72.1094 17.9943 71.42 18.1818 70.6321 18.1818ZM70.6321 16.9773C71.2306 16.9773 71.723 16.8239 72.1094 16.517C72.4957 16.2102 72.7817 15.8068 72.9673 15.3068C73.1529 14.8068 73.2457 14.2652 73.2457 13.6818C73.2457 13.0985 73.1529 12.5549 72.9673 12.0511C72.7817 11.5473 72.4957 11.1402 72.1094 10.8295C71.723 10.5189 71.2306 10.3636 70.6321 10.3636C70.0336 10.3636 69.5412 10.5189 69.1548 10.8295C68.7685 11.1402 68.4825 11.5473 68.2969 12.0511C68.1113 12.5549 68.0185 13.0985 68.0185 13.6818C68.0185 14.2652 68.1113 14.8068 68.2969 15.3068C68.4825 15.8068 68.7685 16.2102 69.1548 16.517C69.5412 16.8239 70.0336 16.9773 70.6321 16.9773Z" fill="white"/>
</svg>
