<svg width="135" height="24" viewBox="0 0 135 24" fill="none" xmlns="http://www.w3.org/2000/svg">
<path fill-rule="evenodd" clip-rule="evenodd" d="M4.5 22.5H9V21H4.5V3H16.5V10.5H18V3C17.9996 2.6023 17.8414 2.22101 17.5602 1.9398C17.279 1.65859 16.8977 1.50042 16.5 1.5H4.5C4.1023 1.50042 3.72101 1.65859 3.4398 1.9398C3.15859 2.22101 3.00042 2.6023 3 3V21C3.00042 21.3977 3.15859 21.779 3.4398 22.0602C3.72101 22.3414 4.1023 22.4996 4.5 22.5ZM6 4.5H15V6H6V4.5ZM6 7.5H15V9H6V7.5ZM10.5 10.5H6V12H10.5V10.5ZM6 18H9V19.5H6V18ZM22.2803 14.4698L20.0303 12.2198C19.9606 12.1501 19.878 12.0948 19.787 12.0571C19.696 12.0194 19.5985 12 19.5 12C19.4015 12 19.304 12.0194 19.213 12.0571C19.122 12.0948 19.0394 12.1501 18.9697 12.2198L12 19.1894V22.5H15.3106L22.2803 15.5303C22.3499 15.4607 22.4052 15.378 22.4429 15.287C22.4806 15.196 22.5 15.0985 22.5 15C22.5 14.9015 22.4806 14.804 22.4429 14.713C22.4052 14.622 22.3499 14.5394 22.2803 14.4698ZM14.6894 21H13.5V19.8106L17.25 16.0606L18.4394 17.25L14.6894 21ZM19.5 16.1895L18.3106 15L19.5 13.8106L20.6894 15L19.5 16.1895Z" fill="white"/>
<path d="M42.7727 10H41.3636C41.2803 9.5947 41.1345 9.23864 40.9261 8.93182C40.7216 8.625 40.4716 8.36742 40.1761 8.15909C39.8845 7.94697 39.5606 7.78788 39.2045 7.68182C38.8485 7.57576 38.4773 7.52273 38.0909 7.52273C37.3864 7.52273 36.7481 7.70076 36.1761 8.05682C35.608 8.41288 35.1553 8.9375 34.8182 9.63068C34.4848 10.3239 34.3182 11.1742 34.3182 12.1818C34.3182 13.1894 34.4848 14.0398 34.8182 14.733C35.1553 15.4261 35.608 15.9508 36.1761 16.3068C36.7481 16.6629 37.3864 16.8409 38.0909 16.8409C38.4773 16.8409 38.8485 16.7879 39.2045 16.6818C39.5606 16.5758 39.8845 16.4186 40.1761 16.2102C40.4716 15.9981 40.7216 15.7386 40.9261 15.4318C41.1345 15.1212 41.2803 14.7652 41.3636 14.3636H42.7727C42.6667 14.9583 42.4735 15.4905 42.1932 15.9602C41.9129 16.4299 41.5644 16.8295 41.1477 17.1591C40.7311 17.4848 40.2633 17.733 39.7443 17.9034C39.2292 18.0739 38.678 18.1591 38.0909 18.1591C37.0985 18.1591 36.2159 17.9167 35.4432 17.4318C34.6705 16.947 34.0625 16.2576 33.6193 15.3636C33.1761 14.4697 32.9545 13.4091 32.9545 12.1818C32.9545 10.9545 33.1761 9.89394 33.6193 9C34.0625 8.10606 34.6705 7.41667 35.4432 6.93182C36.2159 6.44697 37.0985 6.20455 38.0909 6.20455C38.678 6.20455 39.2292 6.28977 39.7443 6.46023C40.2633 6.63068 40.7311 6.88068 41.1477 7.21023C41.5644 7.53598 41.9129 7.93371 42.1932 8.40341C42.4735 8.86932 42.6667 9.40151 42.7727 10ZM48.4134 18.1818C47.6255 18.1818 46.9342 17.9943 46.3395 17.6193C45.7486 17.2443 45.2865 16.7197 44.9531 16.0455C44.6236 15.3712 44.4588 14.5833 44.4588 13.6818C44.4588 12.7727 44.6236 11.9792 44.9531 11.3011C45.2865 10.6231 45.7486 10.0966 46.3395 9.72159C46.9342 9.34659 47.6255 9.15909 48.4134 9.15909C49.2012 9.15909 49.8906 9.34659 50.4815 9.72159C51.0762 10.0966 51.5384 10.6231 51.8679 11.3011C52.2012 11.9792 52.3679 12.7727 52.3679 13.6818C52.3679 14.5833 52.2012 15.3712 51.8679 16.0455C51.5384 16.7197 51.0762 17.2443 50.4815 17.6193C49.8906 17.9943 49.2012 18.1818 48.4134 18.1818ZM48.4134 16.9773C49.0118 16.9773 49.5043 16.8239 49.8906 16.517C50.277 16.2102 50.563 15.8068 50.7486 15.3068C50.9342 14.8068 51.027 14.2652 51.027 13.6818C51.027 13.0985 50.9342 12.5549 50.7486 12.0511C50.563 11.5473 50.277 11.1402 49.8906 10.8295C49.5043 10.5189 49.0118 10.3636 48.4134 10.3636C47.8149 10.3636 47.3224 10.5189 46.9361 10.8295C46.5497 11.1402 46.2637 11.5473 46.0781 12.0511C45.8925 12.5549 45.7997 13.0985 45.7997 13.6818C45.7997 14.2652 45.8925 14.8068 46.0781 15.3068C46.2637 15.8068 46.5497 16.2102 46.9361 16.517C47.3224 16.8239 47.8149 16.9773 48.4134 16.9773ZM55.7557 12.75V18H54.4148V9.27273H55.7102V10.6364H55.8239C56.0284 10.1932 56.339 9.83712 56.7557 9.56818C57.1723 9.29545 57.7102 9.15909 58.3693 9.15909C58.9602 9.15909 59.4773 9.2803 59.9205 9.52273C60.3636 9.76136 60.7083 10.125 60.9545 10.6136C61.2008 11.0985 61.3239 11.7121 61.3239 12.4545V18H59.983V12.5455C59.983 11.8598 59.8049 11.3258 59.4489 10.9432C59.0928 10.5568 58.6042 10.3636 57.983 10.3636C57.5549 10.3636 57.1723 10.4564 56.8352 10.642C56.5019 10.8277 56.2386 11.0985 56.0455 11.4545C55.8523 11.8106 55.7557 12.2424 55.7557 12.75ZM67.5696 9.27273V10.4091H63.0469V9.27273H67.5696ZM64.3651 7.18182H65.706V15.5C65.706 15.8788 65.7609 16.1629 65.8707 16.3523C65.9844 16.5379 66.1283 16.6629 66.3026 16.7273C66.4806 16.7879 66.6681 16.8182 66.8651 16.8182C67.0128 16.8182 67.134 16.8106 67.2287 16.7955C67.3234 16.7765 67.3991 16.7614 67.456 16.75L67.7287 17.9545C67.6378 17.9886 67.5109 18.0227 67.348 18.0568C67.1851 18.0947 66.9787 18.1136 66.7287 18.1136C66.3499 18.1136 65.9787 18.0322 65.6151 17.8693C65.2552 17.7064 64.956 17.4583 64.7173 17.125C64.4825 16.7917 64.3651 16.3712 64.3651 15.8636V7.18182ZM72.1548 18.2045C71.6018 18.2045 71.0999 18.1004 70.6491 17.892C70.1984 17.6799 69.8404 17.375 69.5753 16.9773C69.3101 16.5758 69.1776 16.0909 69.1776 15.5227C69.1776 15.0227 69.276 14.6174 69.473 14.3068C69.67 13.9924 69.9332 13.7462 70.2628 13.5682C70.5923 13.3902 70.956 13.2576 71.3537 13.1705C71.7552 13.0795 72.1586 13.0076 72.5639 12.9545C73.0942 12.8864 73.5241 12.8352 73.8537 12.8011C74.187 12.7633 74.4295 12.7008 74.581 12.6136C74.7363 12.5265 74.8139 12.375 74.8139 12.1591V12.1136C74.8139 11.553 74.6605 11.1174 74.3537 10.8068C74.0507 10.4962 73.5904 10.3409 72.973 10.3409C72.3329 10.3409 71.831 10.4811 71.4673 10.7614C71.1037 11.0417 70.848 11.3409 70.7003 11.6591L69.4276 11.2045C69.6548 10.6742 69.9579 10.2614 70.3366 9.96591C70.7192 9.66667 71.1359 9.45833 71.5866 9.34091C72.0412 9.2197 72.4882 9.15909 72.9276 9.15909C73.2079 9.15909 73.5298 9.19318 73.8935 9.26136C74.2609 9.32576 74.6151 9.46023 74.956 9.66477C75.3007 9.86932 75.5866 10.178 75.8139 10.5909C76.0412 11.0038 76.1548 11.5568 76.1548 12.25V18H74.8139V16.8182H74.7457C74.6548 17.0076 74.5033 17.2102 74.2912 17.4261C74.0791 17.642 73.7969 17.8258 73.4446 17.9773C73.0923 18.1288 72.6624 18.2045 72.1548 18.2045ZM72.3594 17C72.8897 17 73.3366 16.8958 73.7003 16.6875C74.0677 16.4792 74.3442 16.2102 74.5298 15.8807C74.7192 15.5511 74.8139 15.2045 74.8139 14.8409V13.6136C74.7571 13.6818 74.6321 13.7443 74.4389 13.8011C74.2495 13.8542 74.0298 13.9015 73.7798 13.9432C73.5336 13.9811 73.2931 14.0152 73.0582 14.0455C72.8272 14.072 72.6397 14.0947 72.4957 14.1136C72.1473 14.1591 71.8215 14.233 71.5185 14.3352C71.2192 14.4337 70.9768 14.5833 70.7912 14.7841C70.6094 14.9811 70.5185 15.25 70.5185 15.5909C70.5185 16.0568 70.6908 16.4091 71.0355 16.6477C71.384 16.8826 71.8253 17 72.3594 17ZM82.1477 18.1818C81.3295 18.1818 80.625 17.9886 80.0341 17.6023C79.4432 17.2159 78.9886 16.6837 78.6705 16.0057C78.3523 15.3277 78.1932 14.553 78.1932 13.6818C78.1932 12.7955 78.3561 12.0133 78.6818 11.3352C79.0114 10.6534 79.4697 10.1212 80.0568 9.73864C80.6477 9.35227 81.3371 9.15909 82.125 9.15909C82.7386 9.15909 83.2917 9.27273 83.7841 9.5C84.2765 9.72727 84.6799 10.0455 84.9943 10.4545C85.3087 10.8636 85.5038 11.3409 85.5795 11.8864H84.2386C84.1364 11.4886 83.9091 11.1364 83.5568 10.8295C83.2083 10.5189 82.7386 10.3636 82.1477 10.3636C81.625 10.3636 81.1667 10.5 80.7727 10.7727C80.3826 11.0417 80.0777 11.4223 79.858 11.9148C79.642 12.4034 79.5341 12.9773 79.5341 13.6364C79.5341 14.3106 79.6402 14.8977 79.8523 15.3977C80.0682 15.8977 80.3712 16.286 80.7614 16.5625C81.1553 16.839 81.6174 16.9773 82.1477 16.9773C82.4962 16.9773 82.8125 16.9167 83.0966 16.7955C83.3807 16.6742 83.6212 16.5 83.8182 16.2727C84.0152 16.0455 84.1553 15.7727 84.2386 15.4545H85.5795C85.5038 15.9697 85.3163 16.4337 85.017 16.8466C84.7216 17.2557 84.3295 17.5814 83.8409 17.8239C83.3561 18.0625 82.7917 18.1818 82.1477 18.1818ZM91.3352 9.27273V10.4091H86.8125V9.27273H91.3352ZM88.1307 7.18182H89.4716V15.5C89.4716 15.8788 89.5265 16.1629 89.6364 16.3523C89.75 16.5379 89.8939 16.6629 90.0682 16.7273C90.2462 16.7879 90.4337 16.8182 90.6307 16.8182C90.7784 16.8182 90.8996 16.8106 90.9943 16.7955C91.089 16.7765 91.1648 16.7614 91.2216 16.75L91.4943 17.9545C91.4034 17.9886 91.2765 18.0227 91.1136 18.0568C90.9508 18.0947 90.7443 18.1136 90.4943 18.1136C90.1155 18.1136 89.7443 18.0322 89.3807 17.8693C89.0208 17.7064 88.7216 17.4583 88.483 17.125C88.2481 16.7917 88.1307 16.3712 88.1307 15.8636V7.18182ZM98.0341 18V6.36364H105.011V7.61364H99.4432V11.5455H104.489V12.7955H99.4432V18H98.0341ZM110.148 18.1818C109.36 18.1818 108.669 17.9943 108.074 17.6193C107.483 17.2443 107.021 16.7197 106.688 16.0455C106.358 15.3712 106.193 14.5833 106.193 13.6818C106.193 12.7727 106.358 11.9792 106.688 11.3011C107.021 10.6231 107.483 10.0966 108.074 9.72159C108.669 9.34659 109.36 9.15909 110.148 9.15909C110.936 9.15909 111.625 9.34659 112.216 9.72159C112.811 10.0966 113.273 10.6231 113.602 11.3011C113.936 11.9792 114.102 12.7727 114.102 13.6818C114.102 14.5833 113.936 15.3712 113.602 16.0455C113.273 16.7197 112.811 17.2443 112.216 17.6193C111.625 17.9943 110.936 18.1818 110.148 18.1818ZM110.148 16.9773C110.746 16.9773 111.239 16.8239 111.625 16.517C112.011 16.2102 112.297 15.8068 112.483 15.3068C112.669 14.8068 112.761 14.2652 112.761 13.6818C112.761 13.0985 112.669 12.5549 112.483 12.0511C112.297 11.5473 112.011 11.1402 111.625 10.8295C111.239 10.5189 110.746 10.3636 110.148 10.3636C109.549 10.3636 109.057 10.5189 108.67 10.8295C108.284 11.1402 107.998 11.5473 107.812 12.0511C107.627 12.5549 107.534 13.0985 107.534 13.6818C107.534 14.2652 107.627 14.8068 107.812 15.3068C107.998 15.8068 108.284 16.2102 108.67 16.517C109.057 16.8239 109.549 16.9773 110.148 16.9773ZM116.149 18V9.27273H117.445V10.5909H117.536C117.695 10.1591 117.982 9.80871 118.399 9.53977C118.816 9.27083 119.286 9.13636 119.808 9.13636C119.907 9.13636 120.03 9.13826 120.178 9.14205C120.325 9.14583 120.437 9.15152 120.513 9.15909V10.5227C120.467 10.5114 120.363 10.4943 120.2 10.4716C120.041 10.4451 119.873 10.4318 119.695 10.4318C119.27 10.4318 118.892 10.5208 118.558 10.6989C118.229 10.8731 117.967 11.1155 117.774 11.4261C117.585 11.733 117.49 12.0833 117.49 12.4773V18H116.149ZM122.102 18V9.27273H123.398V10.6364H123.511C123.693 10.1705 123.987 9.80871 124.392 9.55114C124.797 9.28977 125.284 9.15909 125.852 9.15909C126.428 9.15909 126.907 9.28977 127.29 9.55114C127.676 9.80871 127.977 10.1705 128.193 10.6364H128.284C128.508 10.1856 128.843 9.82765 129.29 9.5625C129.737 9.29356 130.273 9.15909 130.898 9.15909C131.678 9.15909 132.316 9.40341 132.812 9.89205C133.309 10.3769 133.557 11.1326 133.557 12.1591V18H132.216V12.1591C132.216 11.5152 132.04 11.0549 131.688 10.7784C131.335 10.5019 130.92 10.3636 130.443 10.3636C129.83 10.3636 129.354 10.5492 129.017 10.9205C128.68 11.2879 128.511 11.7538 128.511 12.3182V18H127.148V12.0227C127.148 11.5265 126.987 11.1269 126.665 10.8239C126.343 10.517 125.928 10.3636 125.42 10.3636C125.072 10.3636 124.746 10.4564 124.443 10.642C124.144 10.8277 123.902 11.0852 123.716 11.4148C123.534 11.7405 123.443 12.1174 123.443 12.5455V18H122.102Z" fill="white"/>
</svg>
