<svg width="97" height="24" viewBox="0 0 97 24" fill="none" xmlns="http://www.w3.org/2000/svg">
<path fill-rule="evenodd" clip-rule="evenodd" d="M3 15H21C21.3978 15 21.7794 14.842 22.0607 14.5607C22.342 14.2794 22.5 13.8978 22.5 13.5V3C22.5 2.60218 22.342 2.22064 22.0607 1.93934C21.7794 1.65804 21.3978 1.5 21 1.5H3C2.60218 1.5 2.22064 1.65804 1.93934 1.93934C1.65804 2.22064 1.5 2.60218 1.5 3V13.5C1.5 13.8978 1.65804 14.2794 1.93934 14.5607C2.22064 14.842 2.60218 15 3 15ZM3 13.5V3H21V13.5H3ZM3 22.5H6C6.39782 22.5 6.77936 22.342 7.06066 22.0607C7.34196 21.7794 7.5 21.3978 7.5 21V18C7.5 17.6022 7.34196 17.2206 7.06066 16.9393C6.77936 16.658 6.39782 16.5 6 16.5H3C2.60218 16.5 2.22064 16.658 1.93934 16.9393C1.65804 17.2206 1.5 17.6022 1.5 18V21C1.5 21.3978 1.65804 21.7794 1.93934 22.0607C2.22064 22.342 2.60218 22.5 3 22.5ZM3 21V18H6V21H3ZM10.5 22.5H13.5C13.8978 22.5 14.2794 22.342 14.5607 22.0607C14.842 21.7794 15 21.3978 15 21V18C15 17.6022 14.842 17.2206 14.5607 16.9393C14.2794 16.658 13.8978 16.5 13.5 16.5H10.5C10.1022 16.5 9.72064 16.658 9.43934 16.9393C9.15804 17.2206 9 17.6022 9 18V21C9 21.3978 9.15804 21.7794 9.43934 22.0607C9.72064 22.342 10.1022 22.5 10.5 22.5ZM10.5 21V18H13.5V21H10.5ZM21 22.5H18C17.6022 22.5 17.2206 22.342 16.9393 22.0607C16.658 21.7794 16.5 21.3978 16.5 21V18C16.5 17.6022 16.658 17.2206 16.9393 16.9393C17.2206 16.658 17.6022 16.5 18 16.5H21C21.3978 16.5 21.7794 16.658 22.0607 16.9393C22.342 17.2206 22.5 17.6022 22.5 18V21C22.5 21.3978 22.342 21.7794 22.0607 22.0607C21.7794 22.342 21.3978 22.5 21 22.5ZM18 18V21H21V18H18Z" fill="white"/>
<path d="M33.4091 18V6.36364H37.3409C38.2538 6.36364 39 6.52841 39.5795 6.85795C40.1629 7.18371 40.5947 7.625 40.875 8.18182C41.1553 8.73864 41.2955 9.35985 41.2955 10.0455C41.2955 10.7311 41.1553 11.3542 40.875 11.9148C40.5985 12.4754 40.1705 12.9223 39.5909 13.2557C39.0114 13.5852 38.2689 13.75 37.3636 13.75H34.5455V12.5H37.3182C37.9432 12.5 38.4451 12.392 38.8239 12.1761C39.2027 11.9602 39.4773 11.6686 39.6477 11.3011C39.822 10.9299 39.9091 10.5114 39.9091 10.0455C39.9091 9.57955 39.822 9.16288 39.6477 8.79545C39.4773 8.42803 39.2008 8.14015 38.8182 7.93182C38.4356 7.7197 37.928 7.61364 37.2955 7.61364H34.8182V18H33.4091ZM46.8352 18.1818C46.0473 18.1818 45.3561 17.9943 44.7614 17.6193C44.1705 17.2443 43.7083 16.7197 43.375 16.0455C43.0455 15.3712 42.8807 14.5833 42.8807 13.6818C42.8807 12.7727 43.0455 11.9792 43.375 11.3011C43.7083 10.6231 44.1705 10.0966 44.7614 9.72159C45.3561 9.34659 46.0473 9.15909 46.8352 9.15909C47.6231 9.15909 48.3125 9.34659 48.9034 9.72159C49.4981 10.0966 49.9602 10.6231 50.2898 11.3011C50.6231 11.9792 50.7898 12.7727 50.7898 13.6818C50.7898 14.5833 50.6231 15.3712 50.2898 16.0455C49.9602 16.7197 49.4981 17.2443 48.9034 17.6193C48.3125 17.9943 47.6231 18.1818 46.8352 18.1818ZM46.8352 16.9773C47.4337 16.9773 47.9261 16.8239 48.3125 16.517C48.6989 16.2102 48.9848 15.8068 49.1705 15.3068C49.3561 14.8068 49.4489 14.2652 49.4489 13.6818C49.4489 13.0985 49.3561 12.5549 49.1705 12.0511C48.9848 11.5473 48.6989 11.1402 48.3125 10.8295C47.9261 10.5189 47.4337 10.3636 46.8352 10.3636C46.2367 10.3636 45.7443 10.5189 45.358 10.8295C44.9716 11.1402 44.6856 11.5473 44.5 12.0511C44.3144 12.5549 44.2216 13.0985 44.2216 13.6818C44.2216 14.2652 44.3144 14.8068 44.5 15.3068C44.6856 15.8068 44.9716 16.2102 45.358 16.517C45.7443 16.8239 46.2367 16.9773 46.8352 16.9773ZM52.8366 18V9.27273H54.1321V10.5909H54.223C54.3821 10.1591 54.67 9.80871 55.0866 9.53977C55.5033 9.27083 55.973 9.13636 56.4957 9.13636C56.5942 9.13636 56.7173 9.13826 56.8651 9.14205C57.0128 9.14583 57.1245 9.15152 57.2003 9.15909V10.5227C57.1548 10.5114 57.0507 10.4943 56.8878 10.4716C56.7287 10.4451 56.5601 10.4318 56.3821 10.4318C55.9579 10.4318 55.5791 10.5208 55.2457 10.6989C54.9162 10.8731 54.6548 11.1155 54.4616 11.4261C54.2723 11.733 54.1776 12.0833 54.1776 12.4773V18H52.8366ZM63.1321 9.27273V10.4091H58.6094V9.27273H63.1321ZM59.9276 7.18182H61.2685V15.5C61.2685 15.8788 61.3234 16.1629 61.4332 16.3523C61.5469 16.5379 61.6908 16.6629 61.8651 16.7273C62.0431 16.7879 62.2306 16.8182 62.4276 16.8182C62.5753 16.8182 62.6965 16.8106 62.7912 16.7955C62.8859 16.7765 62.9616 16.7614 63.0185 16.75L63.2912 17.9545C63.2003 17.9886 63.0734 18.0227 62.9105 18.0568C62.7476 18.0947 62.5412 18.1136 62.2912 18.1136C61.9124 18.1136 61.5412 18.0322 61.1776 17.8693C60.8177 17.7064 60.5185 17.4583 60.2798 17.125C60.045 16.7917 59.9276 16.3712 59.9276 15.8636V7.18182ZM69.0355 9.27273V10.4091H64.331V9.27273H69.0355ZM65.7401 18V8.06818C65.7401 7.56818 65.8575 7.15151 66.0923 6.81818C66.3272 6.48485 66.6321 6.23485 67.0071 6.06818C67.3821 5.90151 67.7779 5.81818 68.1946 5.81818C68.5241 5.81818 68.7931 5.8447 69.0014 5.89773C69.2098 5.95076 69.3651 6 69.4673 6.04545L69.081 7.20455C69.0128 7.18182 68.9181 7.15341 68.7969 7.11932C68.6795 7.08523 68.5241 7.06818 68.331 7.06818C67.8878 7.06818 67.5677 7.17992 67.3707 7.40341C67.1776 7.62689 67.081 7.95455 67.081 8.38636V18H65.7401ZM74.1009 18.1818C73.313 18.1818 72.6217 17.9943 72.027 17.6193C71.4361 17.2443 70.974 16.7197 70.6406 16.0455C70.3111 15.3712 70.1463 14.5833 70.1463 13.6818C70.1463 12.7727 70.3111 11.9792 70.6406 11.3011C70.974 10.6231 71.4361 10.0966 72.027 9.72159C72.6217 9.34659 73.313 9.15909 74.1009 9.15909C74.8887 9.15909 75.5781 9.34659 76.169 9.72159C76.7637 10.0966 77.2259 10.6231 77.5554 11.3011C77.8887 11.9792 78.0554 12.7727 78.0554 13.6818C78.0554 14.5833 77.8887 15.3712 77.5554 16.0455C77.2259 16.7197 76.7637 17.2443 76.169 17.6193C75.5781 17.9943 74.8887 18.1818 74.1009 18.1818ZM74.1009 16.9773C74.6993 16.9773 75.1918 16.8239 75.5781 16.517C75.9645 16.2102 76.2505 15.8068 76.4361 15.3068C76.6217 14.8068 76.7145 14.2652 76.7145 13.6818C76.7145 13.0985 76.6217 12.5549 76.4361 12.0511C76.2505 11.5473 75.9645 11.1402 75.5781 10.8295C75.1918 10.5189 74.6993 10.3636 74.1009 10.3636C73.5024 10.3636 73.0099 10.5189 72.6236 10.8295C72.2372 11.1402 71.9512 11.5473 71.7656 12.0511C71.58 12.5549 71.4872 13.0985 71.4872 13.6818C71.4872 14.2652 71.58 14.8068 71.7656 15.3068C71.9512 15.8068 72.2372 16.2102 72.6236 16.517C73.0099 16.8239 73.5024 16.9773 74.1009 16.9773ZM81.4432 6.36364V18H80.1023V6.36364H81.4432ZM83.8991 18V9.27273H85.2401V18H83.8991ZM84.581 7.81818C84.3196 7.81818 84.0942 7.72917 83.9048 7.55114C83.7192 7.37311 83.6264 7.15909 83.6264 6.90909C83.6264 6.65909 83.7192 6.44508 83.9048 6.26705C84.0942 6.08902 84.3196 6 84.581 6C84.8423 6 85.0658 6.08902 85.2514 6.26705C85.4408 6.44508 85.5355 6.65909 85.5355 6.90909C85.5355 7.15909 85.4408 7.37311 85.2514 7.55114C85.0658 7.72917 84.8423 7.81818 84.581 7.81818ZM91.2415 18.1818C90.4536 18.1818 89.7623 17.9943 89.1676 17.6193C88.5767 17.2443 88.1146 16.7197 87.7812 16.0455C87.4517 15.3712 87.2869 14.5833 87.2869 13.6818C87.2869 12.7727 87.4517 11.9792 87.7812 11.3011C88.1146 10.6231 88.5767 10.0966 89.1676 9.72159C89.7623 9.34659 90.4536 9.15909 91.2415 9.15909C92.0294 9.15909 92.7188 9.34659 93.3097 9.72159C93.9044 10.0966 94.3665 10.6231 94.696 11.3011C95.0294 11.9792 95.196 12.7727 95.196 13.6818C95.196 14.5833 95.0294 15.3712 94.696 16.0455C94.3665 16.7197 93.9044 17.2443 93.3097 17.6193C92.7188 17.9943 92.0294 18.1818 91.2415 18.1818ZM91.2415 16.9773C91.84 16.9773 92.3324 16.8239 92.7188 16.517C93.1051 16.2102 93.3911 15.8068 93.5767 15.3068C93.7623 14.8068 93.8551 14.2652 93.8551 13.6818C93.8551 13.0985 93.7623 12.5549 93.5767 12.0511C93.3911 11.5473 93.1051 11.1402 92.7188 10.8295C92.3324 10.5189 91.84 10.3636 91.2415 10.3636C90.643 10.3636 90.1506 10.5189 89.7642 10.8295C89.3778 11.1402 89.0919 11.5473 88.9062 12.0511C88.7206 12.5549 88.6278 13.0985 88.6278 13.6818C88.6278 14.2652 88.7206 14.8068 88.9062 15.3068C89.0919 15.8068 89.3778 16.2102 89.7642 16.517C90.1506 16.8239 90.643 16.9773 91.2415 16.9773Z" fill="white"/>
</svg>
