<svg width="130" height="24" viewBox="0 0 130 24" fill="none" xmlns="http://www.w3.org/2000/svg">
<path fill-rule="evenodd" clip-rule="evenodd" d="M17.0001 4.51677C15.5201 3.52784 13.78 3 12 3C9.6152 3.00698 7.33008 3.95744 5.64376 5.64375C3.95744 7.33007 3.00699 9.6152 3 12C3 13.78 3.52785 15.5201 4.51678 17.0001C5.50571 18.4802 6.91132 19.6337 8.55585 20.3149C10.2004 20.9961 12.01 21.1743 13.7558 20.8271C15.5016 20.4798 17.1053 19.6226 18.364 18.364C19.6226 17.1053 20.4798 15.5016 20.8271 13.7558C21.1743 12.01 20.9961 10.2004 20.3149 8.55585C19.6337 6.91131 18.4802 5.50571 17.0001 4.51677ZM6.16652 3.26957C7.89323 2.11581 9.9233 1.5 12 1.5C14.7823 1.50815 17.4483 2.61702 19.4156 4.58438C21.383 6.55175 22.4919 9.21773 22.5 12C22.5 14.0767 21.8842 16.1068 20.7304 17.8335C19.5767 19.5602 17.9368 20.906 16.0182 21.7007C14.0996 22.4955 11.9884 22.7034 9.95156 22.2982C7.91476 21.8931 6.04383 20.8931 4.57538 19.4246C3.10693 17.9562 2.1069 16.0852 1.70176 14.0484C1.29661 12.0116 1.50455 9.90045 2.29927 7.98182C3.09399 6.0632 4.4398 4.42332 6.16652 3.26957ZM15.75 7.5V9H9.75V11.25H14.25C14.6477 11.2504 15.029 11.4086 15.3102 11.6898C15.5914 11.971 15.7496 12.3523 15.75 12.75V15C15.7495 15.3977 15.5914 15.779 15.3102 16.0602C15.029 16.3414 14.6477 16.4995 14.25 16.5H12.75V18.75H11.25V16.5H8.25V15H14.25V12.75H9.75C9.3523 12.7496 8.971 12.5914 8.68978 12.3102C8.40856 12.029 8.2504 11.6477 8.25 11.25V9C8.2504 8.6023 8.40856 8.221 8.68978 7.93978C8.971 7.65856 9.3523 7.5004 9.75 7.5H11.25V5.25H12.75V7.5H15.75Z" fill="white"/>
<path d="M33.4091 18V6.36364H37.3409C38.2538 6.36364 39 6.52841 39.5795 6.85795C40.1629 7.18371 40.5947 7.625 40.875 8.18182C41.1553 8.73864 41.2955 9.35985 41.2955 10.0455C41.2955 10.7311 41.1553 11.3542 40.875 11.9148C40.5985 12.4754 40.1705 12.9223 39.5909 13.2557C39.0114 13.5852 38.2689 13.75 37.3636 13.75H34.5455V12.5H37.3182C37.9432 12.5 38.4451 12.392 38.8239 12.1761C39.2027 11.9602 39.4773 11.6686 39.6477 11.3011C39.822 10.9299 39.9091 10.5114 39.9091 10.0455C39.9091 9.57955 39.822 9.16288 39.6477 8.79545C39.4773 8.42803 39.2008 8.14015 38.8182 7.93182C38.4356 7.7197 37.928 7.61364 37.2955 7.61364H34.8182V18H33.4091ZM43.3835 18V9.27273H44.679V10.5909H44.7699C44.929 10.1591 45.2169 9.80871 45.6335 9.53977C46.0502 9.27083 46.5199 9.13636 47.0426 9.13636C47.1411 9.13636 47.2642 9.13826 47.4119 9.14205C47.5597 9.14583 47.6714 9.15152 47.7472 9.15909V10.5227C47.7017 10.5114 47.5975 10.4943 47.4347 10.4716C47.2756 10.4451 47.107 10.4318 46.929 10.4318C46.5047 10.4318 46.1259 10.5208 45.7926 10.6989C45.4631 10.8731 45.2017 11.1155 45.0085 11.4261C44.8191 11.733 44.7244 12.0833 44.7244 12.4773V18H43.3835ZM49.3366 18V9.27273H50.6776V18H49.3366ZM50.0185 7.81818C49.7571 7.81818 49.5317 7.72917 49.3423 7.55114C49.1567 7.37311 49.0639 7.15909 49.0639 6.90909C49.0639 6.65909 49.1567 6.44508 49.3423 6.26705C49.5317 6.08902 49.7571 6 50.0185 6C50.2798 6 50.5033 6.08902 50.6889 6.26705C50.8783 6.44508 50.973 6.65909 50.973 6.90909C50.973 7.15909 50.8783 7.37311 50.6889 7.55114C50.5033 7.72917 50.2798 7.81818 50.0185 7.81818ZM56.679 18.1818C55.8608 18.1818 55.1563 17.9886 54.5653 17.6023C53.9744 17.2159 53.5199 16.6837 53.2017 16.0057C52.8835 15.3277 52.7244 14.553 52.7244 13.6818C52.7244 12.7955 52.8873 12.0133 53.2131 11.3352C53.5426 10.6534 54.0009 10.1212 54.5881 9.73864C55.179 9.35227 55.8684 9.15909 56.6562 9.15909C57.2699 9.15909 57.8229 9.27273 58.3153 9.5C58.8078 9.72727 59.2112 10.0455 59.5256 10.4545C59.84 10.8636 60.035 11.3409 60.1108 11.8864H58.7699C58.6676 11.4886 58.4403 11.1364 58.0881 10.8295C57.7396 10.5189 57.2699 10.3636 56.679 10.3636C56.1563 10.3636 55.6979 10.5 55.304 10.7727C54.9138 11.0417 54.6089 11.4223 54.3892 11.9148C54.1733 12.4034 54.0653 12.9773 54.0653 13.6364C54.0653 14.3106 54.1714 14.8977 54.3835 15.3977C54.5994 15.8977 54.9025 16.286 55.2926 16.5625C55.6866 16.839 56.1487 16.9773 56.679 16.9773C57.0275 16.9773 57.3438 16.9167 57.6278 16.7955C57.9119 16.6742 58.1525 16.5 58.3494 16.2727C58.5464 16.0455 58.6866 15.7727 58.7699 15.4545H60.1108C60.035 15.9697 59.8475 16.4337 59.5483 16.8466C59.2528 17.2557 58.8608 17.5814 58.3722 17.8239C57.8873 18.0625 57.3229 18.1818 56.679 18.1818ZM62.071 18V9.27273H63.4119V18H62.071ZM62.7528 7.81818C62.4915 7.81818 62.2661 7.72917 62.0767 7.55114C61.8911 7.37311 61.7983 7.15909 61.7983 6.90909C61.7983 6.65909 61.8911 6.44508 62.0767 6.26705C62.2661 6.08902 62.4915 6 62.7528 6C63.0142 6 63.2377 6.08902 63.4233 6.26705C63.6127 6.44508 63.7074 6.65909 63.7074 6.90909C63.7074 7.15909 63.6127 7.37311 63.4233 7.55114C63.2377 7.72917 63.0142 7.81818 62.7528 7.81818ZM67.2088 12.75V18H65.8679V9.27273H67.1634V10.6364H67.277C67.4815 10.1932 67.7921 9.83712 68.2088 9.56818C68.6255 9.29545 69.1634 9.15909 69.8224 9.15909C70.4134 9.15909 70.9304 9.2803 71.3736 9.52273C71.8168 9.76136 72.1615 10.125 72.4077 10.6136C72.6539 11.0985 72.777 11.7121 72.777 12.4545V18H71.4361V12.5455C71.4361 11.8598 71.258 11.3258 70.902 10.9432C70.5459 10.5568 70.0573 10.3636 69.4361 10.3636C69.008 10.3636 68.6255 10.4564 68.2884 10.642C67.955 10.8277 67.6918 11.0985 67.4986 11.4545C67.3054 11.8106 67.2088 12.2424 67.2088 12.75ZM78.75 21.4545C78.1023 21.4545 77.5455 21.3712 77.0795 21.2045C76.6136 21.0417 76.2254 20.8258 75.9148 20.5568C75.608 20.2917 75.3636 20.0076 75.1818 19.7045L76.25 18.9545C76.3712 19.1136 76.5246 19.2955 76.7102 19.5C76.8958 19.7083 77.1496 19.8883 77.4716 20.0398C77.7973 20.1951 78.2235 20.2727 78.75 20.2727C79.4545 20.2727 80.036 20.1023 80.4943 19.7614C80.9527 19.4205 81.1818 18.8864 81.1818 18.1591V16.3864H81.0682C80.9697 16.5455 80.8295 16.7424 80.6477 16.9773C80.4697 17.2083 80.2121 17.4148 79.875 17.5966C79.5417 17.7746 79.0909 17.8636 78.5227 17.8636C77.8182 17.8636 77.1856 17.697 76.625 17.3636C76.0682 17.0303 75.6269 16.5455 75.3011 15.9091C74.9792 15.2727 74.8182 14.5 74.8182 13.5909C74.8182 12.697 74.9754 11.9186 75.2898 11.2557C75.6042 10.589 76.0417 10.0739 76.6023 9.71023C77.1629 9.3428 77.8106 9.15909 78.5455 9.15909C79.1136 9.15909 79.5644 9.25379 79.8977 9.44318C80.2348 9.62879 80.4924 9.84091 80.6705 10.0795C80.8523 10.3144 80.9924 10.5076 81.0909 10.6591H81.2273V9.27273H82.5227V18.25C82.5227 19 82.3523 19.6098 82.0114 20.0795C81.6742 20.553 81.2197 20.8996 80.6477 21.1193C80.0795 21.3428 79.447 21.4545 78.75 21.4545ZM78.7045 16.6591C79.2424 16.6591 79.697 16.536 80.0682 16.2898C80.4394 16.0436 80.7216 15.6894 80.9148 15.2273C81.108 14.7652 81.2045 14.2121 81.2045 13.5682C81.2045 12.9394 81.1098 12.3845 80.9205 11.9034C80.7311 11.4223 80.4508 11.0455 80.0795 10.7727C79.7083 10.5 79.25 10.3636 78.7045 10.3636C78.1364 10.3636 77.6629 10.5076 77.2841 10.7955C76.9091 11.0833 76.6269 11.4697 76.4375 11.9545C76.2519 12.4394 76.1591 12.9773 76.1591 13.5682C76.1591 14.1742 76.2538 14.7102 76.4432 15.1761C76.6364 15.6383 76.9205 16.0019 77.2955 16.267C77.6742 16.5284 78.1439 16.6591 78.7045 16.6591ZM89.0227 7.61364V6.36364H97.75V7.61364H94.0909V18H92.6818V7.61364H89.0227ZM101.124 18.2045C100.571 18.2045 100.069 18.1004 99.6179 17.892C99.1671 17.6799 98.8092 17.375 98.544 16.9773C98.2789 16.5758 98.1463 16.0909 98.1463 15.5227C98.1463 15.0227 98.2448 14.6174 98.4418 14.3068C98.6387 13.9924 98.902 13.7462 99.2315 13.5682C99.5611 13.3902 99.9247 13.2576 100.322 13.1705C100.724 13.0795 101.127 13.0076 101.533 12.9545C102.063 12.8864 102.493 12.8352 102.822 12.8011C103.156 12.7633 103.398 12.7008 103.55 12.6136C103.705 12.5265 103.783 12.375 103.783 12.1591V12.1136C103.783 11.553 103.629 11.1174 103.322 10.8068C103.019 10.4962 102.559 10.3409 101.942 10.3409C101.302 10.3409 100.8 10.4811 100.436 10.7614C100.072 11.0417 99.8168 11.3409 99.669 11.6591L98.3963 11.2045C98.6236 10.6742 98.9266 10.2614 99.3054 9.96591C99.688 9.66667 100.105 9.45833 100.555 9.34091C101.01 9.2197 101.457 9.15909 101.896 9.15909C102.177 9.15909 102.499 9.19318 102.862 9.26136C103.23 9.32576 103.584 9.46023 103.925 9.66477C104.269 9.86932 104.555 10.178 104.783 10.5909C105.01 11.0038 105.124 11.5568 105.124 12.25V18H103.783V16.8182H103.714C103.624 17.0076 103.472 17.2102 103.26 17.4261C103.048 17.642 102.766 17.8258 102.413 17.9773C102.061 18.1288 101.631 18.2045 101.124 18.2045ZM101.328 17C101.858 17 102.305 16.8958 102.669 16.6875C103.036 16.4792 103.313 16.2102 103.499 15.8807C103.688 15.5511 103.783 15.2045 103.783 14.8409V13.6136C103.726 13.6818 103.601 13.7443 103.408 13.8011C103.218 13.8542 102.999 13.9015 102.749 13.9432C102.502 13.9811 102.262 14.0152 102.027 14.0455C101.796 14.072 101.608 14.0947 101.464 14.1136C101.116 14.1591 100.79 14.233 100.487 14.3352C100.188 14.4337 99.9455 14.5833 99.7599 14.7841C99.5781 14.9811 99.4872 15.25 99.4872 15.5909C99.4872 16.0568 99.6596 16.4091 100.004 16.6477C100.353 16.8826 100.794 17 101.328 17ZM107.753 18V6.36364H109.094V10.6591H109.207C109.306 10.5076 109.442 10.3144 109.616 10.0795C109.795 9.84091 110.048 9.62879 110.378 9.44318C110.711 9.25379 111.162 9.15909 111.73 9.15909C112.465 9.15909 113.113 9.3428 113.673 9.71023C114.234 10.0777 114.671 10.5985 114.986 11.2727C115.3 11.947 115.457 12.7424 115.457 13.6591C115.457 14.5833 115.3 15.3845 114.986 16.0625C114.671 16.7367 114.236 17.2595 113.679 17.6307C113.122 17.9981 112.48 18.1818 111.753 18.1818C111.192 18.1818 110.743 18.089 110.406 17.9034C110.069 17.714 109.81 17.5 109.628 17.2614C109.446 17.0189 109.306 16.8182 109.207 16.6591H109.048V18H107.753ZM109.071 13.6364C109.071 14.2955 109.168 14.8769 109.361 15.3807C109.554 15.8807 109.836 16.2727 110.207 16.5568C110.579 16.8371 111.033 16.9773 111.571 16.9773C112.132 16.9773 112.599 16.8295 112.974 16.5341C113.353 16.2348 113.637 15.8333 113.827 15.3295C114.02 14.822 114.116 14.2576 114.116 13.6364C114.116 13.0227 114.022 12.4697 113.832 11.9773C113.647 11.4811 113.365 11.089 112.986 10.8011C112.611 10.5095 112.139 10.3636 111.571 10.3636C111.026 10.3636 110.567 10.5019 110.196 10.7784C109.825 11.0511 109.545 11.4337 109.355 11.9261C109.166 12.4148 109.071 12.9848 109.071 13.6364ZM118.849 6.36364V18H117.509V6.36364H118.849ZM124.964 18.1818C124.124 18.1818 123.398 17.9962 122.788 17.625C122.182 17.25 121.714 16.7273 121.385 16.0568C121.059 15.3826 120.896 14.5985 120.896 13.7045C120.896 12.8106 121.059 12.0227 121.385 11.3409C121.714 10.6553 122.173 10.1212 122.76 9.73864C123.351 9.35227 124.04 9.15909 124.828 9.15909C125.283 9.15909 125.732 9.23485 126.175 9.38636C126.618 9.53788 127.021 9.78409 127.385 10.125C127.749 10.4621 128.038 10.9091 128.254 11.4659C128.47 12.0227 128.578 12.7083 128.578 13.5227V14.0909H121.851V12.9318H127.214C127.214 12.4394 127.116 12 126.919 11.6136C126.726 11.2273 126.449 10.9223 126.089 10.6989C125.733 10.4754 125.313 10.3636 124.828 10.3636C124.294 10.3636 123.832 10.4962 123.442 10.7614C123.055 11.0227 122.758 11.3636 122.55 11.7841C122.341 12.2045 122.237 12.6553 122.237 13.1364V13.9091C122.237 14.5682 122.351 15.1269 122.578 15.5852C122.809 16.0398 123.129 16.3864 123.538 16.625C123.947 16.8598 124.423 16.9773 124.964 16.9773C125.317 16.9773 125.635 16.928 125.919 16.8295C126.207 16.7273 126.455 16.5758 126.663 16.375C126.872 16.1705 127.033 15.9167 127.146 15.6136L128.442 15.9773C128.305 16.4167 128.076 16.803 127.754 17.1364C127.432 17.4659 127.035 17.7235 126.561 17.9091C126.088 18.0909 125.555 18.1818 124.964 18.1818Z" fill="white"/>
</svg>
