<svg width="78" height="24" viewBox="0 0 78 24" fill="none" xmlns="http://www.w3.org/2000/svg">
<path d="M17.25 15.0002C16.6886 15.003 16.135 15.1318 15.6301 15.3771C15.1251 15.6225 14.6817 15.9781 14.3325 16.4177L8.85002 12.9902C9.04983 12.3453 9.04983 11.655 8.85002 11.0102L14.3325 7.58265C14.889 8.27169 15.6714 8.74154 16.5411 8.90896C17.4108 9.07638 18.3117 8.93058 19.0842 8.49737C19.8567 8.06417 20.4509 7.37152 20.7616 6.54214C21.0723 5.71276 21.0794 4.80017 20.7817 3.96603C20.484 3.13189 19.9007 2.43005 19.135 1.98483C18.3694 1.5396 17.4709 1.37974 16.5987 1.53356C15.7265 1.68737 14.9368 2.14493 14.3697 2.82519C13.8025 3.50545 13.4944 4.3645 13.5 5.25015C13.5036 5.58554 13.554 5.91877 13.65 6.24015L8.16752 9.66765C7.6835 9.05834 7.02192 8.61469 6.27448 8.3982C5.52704 8.18171 4.73076 8.2031 3.99602 8.45941C3.26129 8.71572 2.62448 9.19426 2.17388 9.82868C1.72328 10.4631 1.4812 11.222 1.4812 12.0002C1.4812 12.7783 1.72328 13.5372 2.17388 14.1716C2.62448 14.8061 3.26129 15.2846 3.99602 15.5409C4.73076 15.7972 5.52704 15.8186 6.27448 15.6021C7.02192 15.3856 7.6835 14.942 8.16752 14.3327L13.65 17.7602C13.554 18.0815 13.5036 18.4148 13.5 18.7502C13.5 19.4918 13.7199 20.2169 14.132 20.8335C14.5441 21.4502 15.1297 21.9309 15.815 22.2147C16.5002 22.4985 17.2542 22.5728 17.9816 22.4281C18.709 22.2834 19.3772 21.9263 19.9017 21.4018C20.4261 20.8774 20.7833 20.2092 20.928 19.4817C21.0727 18.7543 20.9984 18.0003 20.7146 17.3151C20.4307 16.6299 19.9501 16.0442 19.3334 15.6321C18.7167 15.2201 17.9917 15.0002 17.25 15.0002ZM17.25 3.00015C17.695 3.00015 18.13 3.13211 18.5 3.37935C18.8701 3.62658 19.1584 3.97798 19.3287 4.38912C19.499 4.80025 19.5436 5.25265 19.4568 5.68911C19.37 6.12556 19.1557 6.52648 18.841 6.84114C18.5263 7.15581 18.1254 7.3701 17.689 7.45692C17.2525 7.54374 16.8001 7.49918 16.389 7.32888C15.9778 7.15859 15.6264 6.8702 15.3792 6.50019C15.132 6.13018 15 5.69516 15 5.25015C15 4.65342 15.2371 4.08112 15.659 3.65916C16.081 3.23721 16.6533 3.00015 17.25 3.00015ZM5.25002 14.2502C4.80501 14.2502 4.36999 14.1182 3.99998 13.871C3.62997 13.6237 3.34158 13.2723 3.17129 12.8612C3.00099 12.4501 2.95643 11.9977 3.04325 11.5612C3.13007 11.1247 3.34436 10.7238 3.65903 10.4092C3.97369 10.0945 4.37461 9.8802 4.81106 9.79339C5.24752 9.70657 5.69992 9.75113 6.11105 9.92142C6.52219 10.0917 6.87359 10.3801 7.12082 10.7501C7.36806 11.1201 7.50002 11.5551 7.50002 12.0002C7.50002 12.5969 7.26296 13.1692 6.84101 13.5911C6.41905 14.0131 5.84675 14.2502 5.25002 14.2502ZM17.25 21.0002C16.805 21.0002 16.37 20.8682 16 20.621C15.63 20.3737 15.3416 20.0223 15.1713 19.6112C15.001 19.2001 14.9564 18.7477 15.0432 18.3112C15.1301 17.8747 15.3444 17.4738 15.659 17.1592C15.9737 16.8445 16.3746 16.6302 16.8111 16.5434C17.2475 16.4566 17.6999 16.5011 18.1111 16.6714C18.5222 16.8417 18.8736 17.1301 19.1208 17.5001C19.3681 17.8701 19.5 18.3051 19.5 18.7502C19.5 19.3469 19.263 19.9192 18.841 20.3411C18.419 20.7631 17.8468 21.0002 17.25 21.0002Z" fill="#525252"/>
<path d="M17.25 15.0002C16.6886 15.003 16.135 15.1318 15.6301 15.3771C15.1251 15.6225 14.6817 15.9781 14.3325 16.4177L8.85002 12.9902C9.04983 12.3453 9.04983 11.655 8.85002 11.0102L14.3325 7.58265C14.889 8.27169 15.6714 8.74154 16.5411 8.90896C17.4108 9.07638 18.3117 8.93058 19.0842 8.49737C19.8567 8.06417 20.4509 7.37152 20.7616 6.54214C21.0723 5.71276 21.0794 4.80017 20.7817 3.96603C20.484 3.13189 19.9007 2.43005 19.135 1.98483C18.3694 1.5396 17.4709 1.37974 16.5987 1.53356C15.7265 1.68737 14.9368 2.14493 14.3697 2.82519C13.8025 3.50545 13.4944 4.3645 13.5 5.25015C13.5036 5.58554 13.554 5.91877 13.65 6.24015L8.16752 9.66765C7.6835 9.05834 7.02192 8.61469 6.27448 8.3982C5.52704 8.18171 4.73076 8.2031 3.99602 8.45941C3.26129 8.71572 2.62448 9.19426 2.17388 9.82868C1.72328 10.4631 1.4812 11.222 1.4812 12.0002C1.4812 12.7783 1.72328 13.5372 2.17388 14.1716C2.62448 14.8061 3.26129 15.2846 3.99602 15.5409C4.73076 15.7972 5.52704 15.8186 6.27448 15.6021C7.02192 15.3856 7.6835 14.942 8.16752 14.3327L13.65 17.7602C13.554 18.0815 13.5036 18.4148 13.5 18.7502C13.5 19.4918 13.7199 20.2169 14.132 20.8335C14.5441 21.4502 15.1297 21.9309 15.815 22.2147C16.5002 22.4985 17.2542 22.5728 17.9816 22.4281C18.709 22.2834 19.3772 21.9263 19.9017 21.4018C20.4261 20.8774 20.7833 20.2092 20.928 19.4817C21.0727 18.7543 20.9984 18.0003 20.7146 17.3151C20.4307 16.6299 19.9501 16.0442 19.3334 15.6321C18.7167 15.2201 17.9917 15.0002 17.25 15.0002ZM17.25 3.00015C17.695 3.00015 18.13 3.13211 18.5 3.37935C18.8701 3.62658 19.1584 3.97798 19.3287 4.38912C19.499 4.80025 19.5436 5.25265 19.4568 5.68911C19.37 6.12556 19.1557 6.52648 18.841 6.84114C18.5263 7.15581 18.1254 7.3701 17.689 7.45692C17.2525 7.54374 16.8001 7.49918 16.389 7.32888C15.9778 7.15859 15.6264 6.8702 15.3792 6.50019C15.132 6.13018 15 5.69516 15 5.25015C15 4.65342 15.2371 4.08112 15.659 3.65916C16.081 3.23721 16.6533 3.00015 17.25 3.00015ZM5.25002 14.2502C4.80501 14.2502 4.36999 14.1182 3.99998 13.871C3.62997 13.6237 3.34158 13.2723 3.17129 12.8612C3.00099 12.4501 2.95643 11.9977 3.04325 11.5612C3.13007 11.1247 3.34436 10.7238 3.65903 10.4092C3.97369 10.0945 4.37461 9.8802 4.81106 9.79339C5.24752 9.70657 5.69992 9.75113 6.11105 9.92142C6.52219 10.0917 6.87359 10.3801 7.12082 10.7501C7.36806 11.1201 7.50002 11.5551 7.50002 12.0002C7.50002 12.5969 7.26296 13.1692 6.84101 13.5911C6.41905 14.0131 5.84675 14.2502 5.25002 14.2502ZM17.25 21.0002C16.805 21.0002 16.37 20.8682 16 20.621C15.63 20.3737 15.3416 20.0223 15.1713 19.6112C15.001 19.2001 14.9564 18.7477 15.0432 18.3112C15.1301 17.8747 15.3444 17.4738 15.659 17.1592C15.9737 16.8445 16.3746 16.6302 16.8111 16.5434C17.2475 16.4566 17.6999 16.5011 18.1111 16.6714C18.5222 16.8417 18.8736 17.1301 19.1208 17.5001C19.3681 17.8701 19.5 18.3051 19.5 18.7502C19.5 19.3469 19.263 19.9192 18.841 20.3411C18.419 20.7631 17.8468 21.0002 17.25 21.0002Z" fill="white"/>
<path d="M39.7727 9.27273C39.7045 8.69697 39.428 8.25 38.9432 7.93182C38.4583 7.61364 37.8636 7.45455 37.1591 7.45455C36.6439 7.45455 36.1932 7.53788 35.8068 7.70455C35.4242 7.87121 35.125 8.10038 34.9091 8.39205C34.697 8.68371 34.5909 9.01515 34.5909 9.38636C34.5909 9.69697 34.6648 9.96401 34.8125 10.1875C34.964 10.4072 35.1572 10.5909 35.392 10.7386C35.6269 10.8826 35.8731 11.0019 36.1307 11.0966C36.3883 11.1875 36.625 11.2614 36.8409 11.3182L38.0227 11.6364C38.3258 11.7159 38.6629 11.8258 39.0341 11.9659C39.4091 12.1061 39.767 12.2973 40.108 12.5398C40.4527 12.7784 40.7367 13.0852 40.9602 13.4602C41.1837 13.8352 41.2955 14.2955 41.2955 14.8409C41.2955 15.4697 41.1307 16.0379 40.8011 16.5455C40.4754 17.053 39.9981 17.4564 39.3693 17.7557C38.7443 18.0549 37.9848 18.2045 37.0909 18.2045C36.2576 18.2045 35.536 18.0701 34.9261 17.8011C34.3201 17.5322 33.8428 17.1572 33.4943 16.6761C33.1496 16.1951 32.9545 15.6364 32.9091 15H34.3636C34.4015 15.4394 34.5492 15.803 34.8068 16.0909C35.0682 16.375 35.3977 16.5871 35.7955 16.7273C36.197 16.8636 36.6288 16.9318 37.0909 16.9318C37.6288 16.9318 38.1117 16.8447 38.5398 16.6705C38.9678 16.4924 39.3068 16.2462 39.5568 15.9318C39.8068 15.6136 39.9318 15.2424 39.9318 14.8182C39.9318 14.4318 39.8239 14.1174 39.608 13.875C39.392 13.6326 39.108 13.4356 38.7557 13.2841C38.4034 13.1326 38.0227 13 37.6136 12.8864L36.1818 12.4773C35.2727 12.2159 34.553 11.8428 34.0227 11.358C33.4924 10.8731 33.2273 10.2386 33.2273 9.45455C33.2273 8.80303 33.4034 8.23485 33.7557 7.75C34.1117 7.26136 34.589 6.88258 35.1875 6.61364C35.7898 6.34091 36.4621 6.20455 37.2045 6.20455C37.9545 6.20455 38.6212 6.33901 39.2045 6.60795C39.7879 6.87311 40.25 7.23674 40.5909 7.69886C40.9356 8.16098 41.1174 8.68561 41.1364 9.27273H39.7727ZM46.9759 18.1818C46.188 18.1818 45.4967 17.9943 44.902 17.6193C44.3111 17.2443 43.849 16.7197 43.5156 16.0455C43.1861 15.3712 43.0213 14.5833 43.0213 13.6818C43.0213 12.7727 43.1861 11.9792 43.5156 11.3011C43.849 10.6231 44.3111 10.0966 44.902 9.72159C45.4967 9.34659 46.188 9.15909 46.9759 9.15909C47.7637 9.15909 48.4531 9.34659 49.044 9.72159C49.6387 10.0966 50.1009 10.6231 50.4304 11.3011C50.7637 11.9792 50.9304 12.7727 50.9304 13.6818C50.9304 14.5833 50.7637 15.3712 50.4304 16.0455C50.1009 16.7197 49.6387 17.2443 49.044 17.6193C48.4531 17.9943 47.7637 18.1818 46.9759 18.1818ZM46.9759 16.9773C47.5743 16.9773 48.0668 16.8239 48.4531 16.517C48.8395 16.2102 49.1255 15.8068 49.3111 15.3068C49.4967 14.8068 49.5895 14.2652 49.5895 13.6818C49.5895 13.0985 49.4967 12.5549 49.3111 12.0511C49.1255 11.5473 48.8395 11.1402 48.4531 10.8295C48.0668 10.5189 47.5743 10.3636 46.9759 10.3636C46.3774 10.3636 45.8849 10.5189 45.4986 10.8295C45.1122 11.1402 44.8262 11.5473 44.6406 12.0511C44.455 12.5549 44.3622 13.0985 44.3622 13.6818C44.3622 14.2652 44.455 14.8068 44.6406 15.3068C44.8262 15.8068 45.1122 16.2102 45.4986 16.517C45.8849 16.8239 46.3774 16.9773 46.9759 16.9773ZM56.5227 18.1818C55.7045 18.1818 55 17.9886 54.4091 17.6023C53.8182 17.2159 53.3636 16.6837 53.0455 16.0057C52.7273 15.3277 52.5682 14.553 52.5682 13.6818C52.5682 12.7955 52.7311 12.0133 53.0568 11.3352C53.3864 10.6534 53.8447 10.1212 54.4318 9.73864C55.0227 9.35227 55.7121 9.15909 56.5 9.15909C57.1136 9.15909 57.6667 9.27273 58.1591 9.5C58.6515 9.72727 59.0549 10.0455 59.3693 10.4545C59.6837 10.8636 59.8788 11.3409 59.9545 11.8864H58.6136C58.5114 11.4886 58.2841 11.1364 57.9318 10.8295C57.5833 10.5189 57.1136 10.3636 56.5227 10.3636C56 10.3636 55.5417 10.5 55.1477 10.7727C54.7576 11.0417 54.4527 11.4223 54.233 11.9148C54.017 12.4034 53.9091 12.9773 53.9091 13.6364C53.9091 14.3106 54.0152 14.8977 54.2273 15.3977C54.4432 15.8977 54.7462 16.286 55.1364 16.5625C55.5303 16.839 55.9924 16.9773 56.5227 16.9773C56.8712 16.9773 57.1875 16.9167 57.4716 16.7955C57.7557 16.6742 57.9962 16.5 58.1932 16.2727C58.3902 16.0455 58.5303 15.7727 58.6136 15.4545H59.9545C59.8788 15.9697 59.6913 16.4337 59.392 16.8466C59.0966 17.2557 58.7045 17.5814 58.2159 17.8239C57.7311 18.0625 57.1667 18.1818 56.5227 18.1818ZM61.9148 18V9.27273H63.2557V18H61.9148ZM62.5966 7.81818C62.3352 7.81818 62.1098 7.72917 61.9205 7.55114C61.7348 7.37311 61.642 7.15909 61.642 6.90909C61.642 6.65909 61.7348 6.44508 61.9205 6.26705C62.1098 6.08902 62.3352 6 62.5966 6C62.858 6 63.0814 6.08902 63.267 6.26705C63.4564 6.44508 63.5511 6.65909 63.5511 6.90909C63.5511 7.15909 63.4564 7.37311 63.267 7.55114C63.0814 7.72917 62.858 7.81818 62.5966 7.81818ZM68.2798 18.2045C67.7268 18.2045 67.2249 18.1004 66.7741 17.892C66.3234 17.6799 65.9654 17.375 65.7003 16.9773C65.4351 16.5758 65.3026 16.0909 65.3026 15.5227C65.3026 15.0227 65.401 14.6174 65.598 14.3068C65.795 13.9924 66.0582 13.7462 66.3878 13.5682C66.7173 13.3902 67.081 13.2576 67.4787 13.1705C67.8802 13.0795 68.2836 13.0076 68.6889 12.9545C69.2192 12.8864 69.6491 12.8352 69.9787 12.8011C70.312 12.7633 70.5545 12.7008 70.706 12.6136C70.8613 12.5265 70.9389 12.375 70.9389 12.1591V12.1136C70.9389 11.553 70.7855 11.1174 70.4787 10.8068C70.1757 10.4962 69.7154 10.3409 69.098 10.3409C68.4579 10.3409 67.956 10.4811 67.5923 10.7614C67.2287 11.0417 66.973 11.3409 66.8253 11.6591L65.5526 11.2045C65.7798 10.6742 66.0829 10.2614 66.4616 9.96591C66.8442 9.66667 67.2609 9.45833 67.7116 9.34091C68.1662 9.2197 68.6132 9.15909 69.0526 9.15909C69.3329 9.15909 69.6548 9.19318 70.0185 9.26136C70.3859 9.32576 70.7401 9.46023 71.081 9.66477C71.4257 9.86932 71.7116 10.178 71.9389 10.5909C72.1662 11.0038 72.2798 11.5568 72.2798 12.25V18H70.9389V16.8182H70.8707C70.7798 17.0076 70.6283 17.2102 70.4162 17.4261C70.2041 17.642 69.9219 17.8258 69.5696 17.9773C69.2173 18.1288 68.7874 18.2045 68.2798 18.2045ZM68.4844 17C69.0147 17 69.4616 16.8958 69.8253 16.6875C70.1927 16.4792 70.4692 16.2102 70.6548 15.8807C70.8442 15.5511 70.9389 15.2045 70.9389 14.8409V13.6136C70.8821 13.6818 70.7571 13.7443 70.5639 13.8011C70.3745 13.8542 70.1548 13.9015 69.9048 13.9432C69.6586 13.9811 69.4181 14.0152 69.1832 14.0455C68.9522 14.072 68.7647 14.0947 68.6207 14.1136C68.2723 14.1591 67.9465 14.233 67.6435 14.3352C67.3442 14.4337 67.1018 14.5833 66.9162 14.7841C66.7344 14.9811 66.6435 15.25 66.6435 15.5909C66.6435 16.0568 66.8158 16.4091 67.1605 16.6477C67.509 16.8826 67.9503 17 68.4844 17ZM76.0682 6.36364V18H74.7273V6.36364H76.0682Z" fill="white"/>
</svg>
