<svg width="122" height="24" viewBox="0 0 122 24" fill="none" xmlns="http://www.w3.org/2000/svg">
<path fill-rule="evenodd" clip-rule="evenodd" d="M3 4.5H21V6H3V4.5ZM19.5 13.5H4.5V10.5H19.5V13.5ZM21 13.5V10.5C21 10.1022 20.842 9.72064 20.5607 9.43934C20.2794 9.15804 19.8978 9 19.5 9H4.5C4.10218 9 3.72064 9.15804 3.43934 9.43934C3.15804 9.72064 3 10.1022 3 10.5V13.5C3 13.8978 3.15804 14.2794 3.43934 14.5607C3.72064 14.842 4.10218 15 4.5 15H19.5C19.8978 15 20.2794 14.842 20.5607 14.5607C20.842 14.2794 21 13.8978 21 13.5ZM21 18H3V19.5H21V18Z" fill="white"/>
<path d="M33.4091 6.36364H35.0909L39.0455 16.0227H39.1818L43.1364 6.36364H44.8182V18H43.5V9.15909H43.3864L39.75 18H38.4773L34.8409 9.15909H34.7273V18H33.4091V6.36364ZM51.1207 18.1818C50.2798 18.1818 49.5545 17.9962 48.9446 17.625C48.3385 17.25 47.8707 16.7273 47.5412 16.0568C47.2154 15.3826 47.0526 14.5985 47.0526 13.7045C47.0526 12.8106 47.2154 12.0227 47.5412 11.3409C47.8707 10.6553 48.3291 10.1212 48.9162 9.73864C49.5071 9.35227 50.1965 9.15909 50.9844 9.15909C51.4389 9.15909 51.8878 9.23485 52.331 9.38636C52.7741 9.53788 53.1776 9.78409 53.5412 10.125C53.9048 10.4621 54.1946 10.9091 54.4105 11.4659C54.6264 12.0227 54.7344 12.7083 54.7344 13.5227V14.0909H48.0071V12.9318H53.3707C53.3707 12.4394 53.2723 12 53.0753 11.6136C52.8821 11.2273 52.6056 10.9223 52.2457 10.6989C51.8897 10.4754 51.4692 10.3636 50.9844 10.3636C50.4503 10.3636 49.9882 10.4962 49.598 10.7614C49.2116 11.0227 48.9143 11.3636 48.706 11.7841C48.4976 12.2045 48.3935 12.6553 48.3935 13.1364V13.9091C48.3935 14.5682 48.5071 15.1269 48.7344 15.5852C48.9654 16.0398 49.2855 16.3864 49.6946 16.625C50.1037 16.8598 50.5791 16.9773 51.1207 16.9773C51.473 16.9773 51.7912 16.928 52.0753 16.8295C52.3632 16.7273 52.6113 16.5758 52.8196 16.375C53.0279 16.1705 53.1889 15.9167 53.3026 15.6136L54.598 15.9773C54.4616 16.4167 54.2325 16.803 53.9105 17.1364C53.5885 17.4659 53.1908 17.7235 52.7173 17.9091C52.2438 18.0909 51.7116 18.1818 51.1207 18.1818ZM60.2969 21.4545C59.6491 21.4545 59.0923 21.3712 58.6264 21.2045C58.1605 21.0417 57.7723 20.8258 57.4616 20.5568C57.1548 20.2917 56.9105 20.0076 56.7287 19.7045L57.7969 18.9545C57.9181 19.1136 58.0715 19.2955 58.2571 19.5C58.4427 19.7083 58.6965 19.8883 59.0185 20.0398C59.3442 20.1951 59.7704 20.2727 60.2969 20.2727C61.0014 20.2727 61.5829 20.1023 62.0412 19.7614C62.4995 19.4205 62.7287 18.8864 62.7287 18.1591V16.3864H62.6151C62.5166 16.5455 62.3764 16.7424 62.1946 16.9773C62.0166 17.2083 61.759 17.4148 61.4219 17.5966C61.0885 17.7746 60.6378 17.8636 60.0696 17.8636C59.3651 17.8636 58.7325 17.697 58.1719 17.3636C57.6151 17.0303 57.1738 16.5455 56.848 15.9091C56.526 15.2727 56.3651 14.5 56.3651 13.5909C56.3651 12.697 56.5223 11.9186 56.8366 11.2557C57.151 10.589 57.5885 10.0739 58.1491 9.71023C58.7098 9.3428 59.3575 9.15909 60.0923 9.15909C60.6605 9.15909 61.1113 9.25379 61.4446 9.44318C61.7817 9.62879 62.0393 9.84091 62.2173 10.0795C62.3991 10.3144 62.5393 10.5076 62.6378 10.6591H62.7741V9.27273H64.0696V18.25C64.0696 19 63.8991 19.6098 63.5582 20.0795C63.2211 20.553 62.7666 20.8996 62.1946 21.1193C61.6264 21.3428 60.9938 21.4545 60.2969 21.4545ZM60.2514 16.6591C60.7893 16.6591 61.2438 16.536 61.6151 16.2898C61.9863 16.0436 62.2685 15.6894 62.4616 15.2273C62.6548 14.7652 62.7514 14.2121 62.7514 13.5682C62.7514 12.9394 62.6567 12.3845 62.4673 11.9034C62.2779 11.4223 61.9976 11.0455 61.6264 10.7727C61.2552 10.5 60.7969 10.3636 60.2514 10.3636C59.6832 10.3636 59.2098 10.5076 58.831 10.7955C58.456 11.0833 58.1738 11.4697 57.9844 11.9545C57.7988 12.4394 57.706 12.9773 57.706 13.5682C57.706 14.1742 57.8007 14.7102 57.9901 15.1761C58.1832 15.6383 58.4673 16.0019 58.8423 16.267C59.2211 16.5284 59.6908 16.6591 60.2514 16.6591ZM69.0923 18.2045C68.5393 18.2045 68.0374 18.1004 67.5866 17.892C67.1359 17.6799 66.7779 17.375 66.5128 16.9773C66.2476 16.5758 66.1151 16.0909 66.1151 15.5227C66.1151 15.0227 66.2135 14.6174 66.4105 14.3068C66.6075 13.9924 66.8707 13.7462 67.2003 13.5682C67.5298 13.3902 67.8935 13.2576 68.2912 13.1705C68.6927 13.0795 69.0961 13.0076 69.5014 12.9545C70.0317 12.8864 70.4616 12.8352 70.7912 12.8011C71.1245 12.7633 71.367 12.7008 71.5185 12.6136C71.6738 12.5265 71.7514 12.375 71.7514 12.1591V12.1136C71.7514 11.553 71.598 11.1174 71.2912 10.8068C70.9882 10.4962 70.5279 10.3409 69.9105 10.3409C69.2704 10.3409 68.7685 10.4811 68.4048 10.7614C68.0412 11.0417 67.7855 11.3409 67.6378 11.6591L66.3651 11.2045C66.5923 10.6742 66.8954 10.2614 67.2741 9.96591C67.6567 9.66667 68.0734 9.45833 68.5241 9.34091C68.9787 9.2197 69.4257 9.15909 69.8651 9.15909C70.1454 9.15909 70.4673 9.19318 70.831 9.26136C71.1984 9.32576 71.5526 9.46023 71.8935 9.66477C72.2382 9.86932 72.5241 10.178 72.7514 10.5909C72.9787 11.0038 73.0923 11.5568 73.0923 12.25V18H71.7514V16.8182H71.6832C71.5923 17.0076 71.4408 17.2102 71.2287 17.4261C71.0166 17.642 70.7344 17.8258 70.3821 17.9773C70.0298 18.1288 69.5999 18.2045 69.0923 18.2045ZM69.2969 17C69.8272 17 70.2741 16.8958 70.6378 16.6875C71.0052 16.4792 71.2817 16.2102 71.4673 15.8807C71.6567 15.5511 71.7514 15.2045 71.7514 14.8409V13.6136C71.6946 13.6818 71.5696 13.7443 71.3764 13.8011C71.187 13.8542 70.9673 13.9015 70.7173 13.9432C70.4711 13.9811 70.2306 14.0152 69.9957 14.0455C69.7647 14.072 69.5772 14.0947 69.4332 14.1136C69.0848 14.1591 68.759 14.233 68.456 14.3352C68.1567 14.4337 67.9143 14.5833 67.7287 14.7841C67.5469 14.9811 67.456 15.25 67.456 15.5909C67.456 16.0568 67.6283 16.4091 67.973 16.6477C68.3215 16.8826 68.7628 17 69.2969 17ZM80.2216 6.36364H81.9034L85.858 16.0227H85.9943L89.9489 6.36364H91.6307V18H90.3125V9.15909H90.1989L86.5625 18H85.2898L81.6534 9.15909H81.5398V18H80.2216V6.36364ZM97.9332 18.1818C97.0923 18.1818 96.367 17.9962 95.7571 17.625C95.151 17.25 94.6832 16.7273 94.3537 16.0568C94.0279 15.3826 93.8651 14.5985 93.8651 13.7045C93.8651 12.8106 94.0279 12.0227 94.3537 11.3409C94.6832 10.6553 95.1416 10.1212 95.7287 9.73864C96.3196 9.35227 97.009 9.15909 97.7969 9.15909C98.2514 9.15909 98.7003 9.23485 99.1435 9.38636C99.5866 9.53788 99.9901 9.78409 100.354 10.125C100.717 10.4621 101.007 10.9091 101.223 11.4659C101.439 12.0227 101.547 12.7083 101.547 13.5227V14.0909H94.8196V12.9318H100.183C100.183 12.4394 100.085 12 99.8878 11.6136C99.6946 11.2273 99.4181 10.9223 99.0582 10.6989C98.7022 10.4754 98.2817 10.3636 97.7969 10.3636C97.2628 10.3636 96.8007 10.4962 96.4105 10.7614C96.0241 11.0227 95.7268 11.3636 95.5185 11.7841C95.3101 12.2045 95.206 12.6553 95.206 13.1364V13.9091C95.206 14.5682 95.3196 15.1269 95.5469 15.5852C95.7779 16.0398 96.098 16.3864 96.5071 16.625C96.9162 16.8598 97.3916 16.9773 97.9332 16.9773C98.2855 16.9773 98.6037 16.928 98.8878 16.8295C99.1757 16.7273 99.4238 16.5758 99.6321 16.375C99.8404 16.1705 100.001 15.9167 100.115 15.6136L101.411 15.9773C101.274 16.4167 101.045 16.803 100.723 17.1364C100.401 17.4659 100.003 17.7235 99.5298 17.9091C99.0563 18.0909 98.5241 18.1818 97.9332 18.1818ZM104.928 12.75V18H103.587V9.27273H104.882V10.6364H104.996C105.2 10.1932 105.511 9.83712 105.928 9.56818C106.344 9.29545 106.882 9.15909 107.541 9.15909C108.132 9.15909 108.649 9.2803 109.092 9.52273C109.536 9.76136 109.88 10.125 110.126 10.6136C110.373 11.0985 110.496 11.7121 110.496 12.4545V18H109.155V12.5455C109.155 11.8598 108.977 11.3258 108.621 10.9432C108.265 10.5568 107.776 10.3636 107.155 10.3636C106.727 10.3636 106.344 10.4564 106.007 10.642C105.674 10.8277 105.411 11.0985 105.217 11.4545C105.024 11.8106 104.928 12.2424 104.928 12.75ZM118.446 14.4318V9.27273H119.787V18H118.446V16.5227H118.355C118.151 16.9659 117.832 17.3428 117.401 17.6534C116.969 17.9602 116.423 18.1136 115.764 18.1136C115.219 18.1136 114.734 17.9943 114.31 17.7557C113.885 17.5133 113.552 17.1496 113.31 16.6648C113.067 16.1761 112.946 15.5606 112.946 14.8182V9.27273H114.287V14.7273C114.287 15.3636 114.465 15.8712 114.821 16.25C115.181 16.6288 115.639 16.8182 116.196 16.8182C116.529 16.8182 116.868 16.733 117.213 16.5625C117.562 16.392 117.853 16.1307 118.088 15.7784C118.327 15.4261 118.446 14.9773 118.446 14.4318Z" fill="white"/>
</svg>
