<svg width="81" height="24" viewBox="0 0 81 24" fill="none" xmlns="http://www.w3.org/2000/svg">
<path fill-rule="evenodd" clip-rule="evenodd" d="M7.5 3H21C21.3975 3.00117 21.7783 3.15958 22.0594 3.44063C22.3404 3.72168 22.4988 4.10253 22.5 4.5V15C22.4988 15.3975 22.3404 15.7783 22.0594 16.0594C21.7783 16.3404 21.3975 16.4988 21 16.5H7.5C7.10253 16.4988 6.72168 16.3404 6.44063 16.0594C6.15958 15.7783 6.00117 15.3975 6 15V4.5C6.00117 4.10253 6.15958 3.72168 6.44063 3.44063C6.72168 3.15958 7.10253 3.00117 7.5 3ZM7.5 15H21V4.5H7.5V15ZM3 19.5H13.5V18H15V19.5C14.9988 19.8975 14.8404 20.2783 14.5594 20.5594C14.2783 20.8404 13.8975 20.9988 13.5 21H3C2.60253 20.9988 2.22168 20.8404 1.94063 20.5594C1.65958 20.2783 1.50117 19.8975 1.5 19.5V12C1.50117 11.6025 1.65958 11.2217 1.94063 10.9406C2.22168 10.6596 2.60253 10.5012 3 10.5H4.5V12H3V19.5Z" fill="white"/>
<path d="M33.4091 18V6.36364H37.3409C38.2538 6.36364 39 6.52841 39.5795 6.85795C40.1629 7.18371 40.5947 7.625 40.875 8.18182C41.1553 8.73864 41.2955 9.35985 41.2955 10.0455C41.2955 10.7311 41.1553 11.3542 40.875 11.9148C40.5985 12.4754 40.1705 12.9223 39.5909 13.2557C39.0114 13.5852 38.2689 13.75 37.3636 13.75H34.5455V12.5H37.3182C37.9432 12.5 38.4451 12.392 38.8239 12.1761C39.2027 11.9602 39.4773 11.6686 39.6477 11.3011C39.822 10.9299 39.9091 10.5114 39.9091 10.0455C39.9091 9.57955 39.822 9.16288 39.6477 8.79545C39.4773 8.42803 39.2008 8.14015 38.8182 7.93182C38.4356 7.7197 37.928 7.61364 37.2955 7.61364H34.8182V18H33.4091ZM46.8352 18.1818C46.0473 18.1818 45.3561 17.9943 44.7614 17.6193C44.1705 17.2443 43.7083 16.7197 43.375 16.0455C43.0455 15.3712 42.8807 14.5833 42.8807 13.6818C42.8807 12.7727 43.0455 11.9792 43.375 11.3011C43.7083 10.6231 44.1705 10.0966 44.7614 9.72159C45.3561 9.34659 46.0473 9.15909 46.8352 9.15909C47.6231 9.15909 48.3125 9.34659 48.9034 9.72159C49.4981 10.0966 49.9602 10.6231 50.2898 11.3011C50.6231 11.9792 50.7898 12.7727 50.7898 13.6818C50.7898 14.5833 50.6231 15.3712 50.2898 16.0455C49.9602 16.7197 49.4981 17.2443 48.9034 17.6193C48.3125 17.9943 47.6231 18.1818 46.8352 18.1818ZM46.8352 16.9773C47.4337 16.9773 47.9261 16.8239 48.3125 16.517C48.6989 16.2102 48.9848 15.8068 49.1705 15.3068C49.3561 14.8068 49.4489 14.2652 49.4489 13.6818C49.4489 13.0985 49.3561 12.5549 49.1705 12.0511C48.9848 11.5473 48.6989 11.1402 48.3125 10.8295C47.9261 10.5189 47.4337 10.3636 46.8352 10.3636C46.2367 10.3636 45.7443 10.5189 45.358 10.8295C44.9716 11.1402 44.6856 11.5473 44.5 12.0511C44.3144 12.5549 44.2216 13.0985 44.2216 13.6818C44.2216 14.2652 44.3144 14.8068 44.5 15.3068C44.6856 15.8068 44.9716 16.2102 45.358 16.517C45.7443 16.8239 46.2367 16.9773 46.8352 16.9773ZM52.8366 21.2727V9.27273H54.1321V10.6591H54.2912C54.3897 10.5076 54.526 10.3144 54.7003 10.0795C54.8783 9.84091 55.1321 9.62879 55.4616 9.44318C55.795 9.25379 56.2457 9.15909 56.8139 9.15909C57.5488 9.15909 58.1965 9.3428 58.7571 9.71023C59.3177 10.0777 59.7552 10.5985 60.0696 11.2727C60.384 11.947 60.5412 12.7424 60.5412 13.6591C60.5412 14.5833 60.384 15.3845 60.0696 16.0625C59.7552 16.7367 59.3196 17.2595 58.7628 17.6307C58.206 17.9981 57.5639 18.1818 56.8366 18.1818C56.276 18.1818 55.8272 18.089 55.4901 17.9034C55.1529 17.714 54.8935 17.5 54.7116 17.2614C54.5298 17.0189 54.3897 16.8182 54.2912 16.6591H54.1776V21.2727H52.8366ZM54.1548 13.6364C54.1548 14.2955 54.2514 14.8769 54.4446 15.3807C54.6378 15.8807 54.92 16.2727 55.2912 16.5568C55.6624 16.8371 56.117 16.9773 56.6548 16.9773C57.2154 16.9773 57.6832 16.8295 58.0582 16.5341C58.437 16.2348 58.7211 15.8333 58.9105 15.3295C59.1037 14.822 59.2003 14.2576 59.2003 13.6364C59.2003 13.0227 59.1056 12.4697 58.9162 11.9773C58.7306 11.4811 58.4484 11.089 58.0696 10.8011C57.6946 10.5095 57.223 10.3636 56.6548 10.3636C56.1094 10.3636 55.651 10.5019 55.2798 10.7784C54.9086 11.0511 54.6283 11.4337 54.4389 11.9261C54.2495 12.4148 54.1548 12.9848 54.1548 13.6364ZM68.0866 14.4318V9.27273H69.4276V18H68.0866V16.5227H67.9957C67.7912 16.9659 67.473 17.3428 67.0412 17.6534C66.6094 17.9602 66.0639 18.1136 65.4048 18.1136C64.8594 18.1136 64.3745 17.9943 63.9503 17.7557C63.526 17.5133 63.1927 17.1496 62.9503 16.6648C62.7079 16.1761 62.5866 15.5606 62.5866 14.8182V9.27273H63.9276V14.7273C63.9276 15.3636 64.1056 15.8712 64.4616 16.25C64.8215 16.6288 65.2798 16.8182 65.8366 16.8182C66.17 16.8182 66.509 16.733 66.8537 16.5625C67.2022 16.392 67.4938 16.1307 67.7287 15.7784C67.9673 15.4261 68.0866 14.9773 68.0866 14.4318ZM71.8835 21.2727V9.27273H73.179V10.6591H73.3381C73.4366 10.5076 73.5729 10.3144 73.7472 10.0795C73.9252 9.84091 74.179 9.62879 74.5085 9.44318C74.8419 9.25379 75.2926 9.15909 75.8608 9.15909C76.5956 9.15909 77.2434 9.3428 77.804 9.71023C78.3646 10.0777 78.8021 10.5985 79.1165 11.2727C79.4309 11.947 79.5881 12.7424 79.5881 13.6591C79.5881 14.5833 79.4309 15.3845 79.1165 16.0625C78.8021 16.7367 78.3665 17.2595 77.8097 17.6307C77.2528 17.9981 76.6108 18.1818 75.8835 18.1818C75.3229 18.1818 74.8741 18.089 74.5369 17.9034C74.1998 17.714 73.9403 17.5 73.7585 17.2614C73.5767 17.0189 73.4366 16.8182 73.3381 16.6591H73.2244V21.2727H71.8835ZM73.2017 13.6364C73.2017 14.2955 73.2983 14.8769 73.4915 15.3807C73.6847 15.8807 73.9669 16.2727 74.3381 16.5568C74.7093 16.8371 75.1638 16.9773 75.7017 16.9773C76.2623 16.9773 76.7301 16.8295 77.1051 16.5341C77.4839 16.2348 77.768 15.8333 77.9574 15.3295C78.1506 14.822 78.2472 14.2576 78.2472 13.6364C78.2472 13.0227 78.1525 12.4697 77.9631 11.9773C77.7775 11.4811 77.4953 11.089 77.1165 10.8011C76.7415 10.5095 76.2699 10.3636 75.7017 10.3636C75.1563 10.3636 74.6979 10.5019 74.3267 10.7784C73.9555 11.0511 73.6752 11.4337 73.4858 11.9261C73.2964 12.4148 73.2017 12.9848 73.2017 13.6364Z" fill="white"/>
</svg>
