<svg width="147" height="24" viewBox="0 0 147 24" fill="none" xmlns="http://www.w3.org/2000/svg">
<path fill-rule="evenodd" clip-rule="evenodd" d="M16.5 19.5H7.5C7.10218 19.5 6.72064 19.342 6.43934 19.0607C6.15804 18.7794 6 18.3978 6 18V6C6 5.60218 6.15804 5.22064 6.43934 4.93934C6.72064 4.65804 7.10218 4.5 7.5 4.5H16.5C16.8978 4.5 17.2794 4.65804 17.5607 4.93934C17.842 5.22064 18 5.60218 18 6V18C18 18.3978 17.842 18.7794 17.5607 19.0607C17.2794 19.342 16.8978 19.5 16.5 19.5ZM7.5 6V18H16.5V6H7.5ZM3 18H0V16.5H3V7.5H0V6H3C3.39782 6 3.77936 6.15804 4.06066 6.43934C4.34196 6.72064 4.5 7.10218 4.5 7.5V16.5C4.5 16.8978 4.34196 17.2794 4.06066 17.5607C3.77936 17.842 3.39782 18 3 18ZM21 18H24V16.5H21V7.5H24V6H21C20.6022 6 20.2206 6.15804 19.9393 6.43934C19.658 6.72064 19.5 7.10218 19.5 7.5V16.5C19.5 16.8978 19.658 17.2794 19.9393 17.5607C20.2206 17.842 20.6022 18 21 18Z" fill="white"/>
<path d="M39.7727 9.27273C39.7045 8.69697 39.428 8.25 38.9432 7.93182C38.4583 7.61364 37.8636 7.45455 37.1591 7.45455C36.6439 7.45455 36.1932 7.53788 35.8068 7.70455C35.4242 7.87121 35.125 8.10038 34.9091 8.39205C34.697 8.68371 34.5909 9.01515 34.5909 9.38636C34.5909 9.69697 34.6648 9.96401 34.8125 10.1875C34.964 10.4072 35.1572 10.5909 35.392 10.7386C35.6269 10.8826 35.8731 11.0019 36.1307 11.0966C36.3883 11.1875 36.625 11.2614 36.8409 11.3182L38.0227 11.6364C38.3258 11.7159 38.6629 11.8258 39.0341 11.9659C39.4091 12.1061 39.767 12.2973 40.108 12.5398C40.4527 12.7784 40.7367 13.0852 40.9602 13.4602C41.1837 13.8352 41.2955 14.2955 41.2955 14.8409C41.2955 15.4697 41.1307 16.0379 40.8011 16.5455C40.4754 17.053 39.9981 17.4564 39.3693 17.7557C38.7443 18.0549 37.9848 18.2045 37.0909 18.2045C36.2576 18.2045 35.536 18.0701 34.9261 17.8011C34.3201 17.5322 33.8428 17.1572 33.4943 16.6761C33.1496 16.1951 32.9545 15.6364 32.9091 15H34.3636C34.4015 15.4394 34.5492 15.803 34.8068 16.0909C35.0682 16.375 35.3977 16.5871 35.7955 16.7273C36.197 16.8636 36.6288 16.9318 37.0909 16.9318C37.6288 16.9318 38.1117 16.8447 38.5398 16.6705C38.9678 16.4924 39.3068 16.2462 39.5568 15.9318C39.8068 15.6136 39.9318 15.2424 39.9318 14.8182C39.9318 14.4318 39.8239 14.1174 39.608 13.875C39.392 13.6326 39.108 13.4356 38.7557 13.2841C38.4034 13.1326 38.0227 13 37.6136 12.8864L36.1818 12.4773C35.2727 12.2159 34.553 11.8428 34.0227 11.358C33.4924 10.8731 33.2273 10.2386 33.2273 9.45455C33.2273 8.80303 33.4034 8.23485 33.7557 7.75C34.1117 7.26136 34.589 6.88258 35.1875 6.61364C35.7898 6.34091 36.4621 6.20455 37.2045 6.20455C37.9545 6.20455 38.6212 6.33901 39.2045 6.60795C39.7879 6.87311 40.25 7.23674 40.5909 7.69886C40.9356 8.16098 41.1174 8.68561 41.1364 9.27273H39.7727ZM44.7713 6.36364V18H43.4304V6.36364H44.7713ZM47.2273 18V9.27273H48.5682V18H47.2273ZM47.9091 7.81818C47.6477 7.81818 47.4223 7.72917 47.233 7.55114C47.0473 7.37311 46.9545 7.15909 46.9545 6.90909C46.9545 6.65909 47.0473 6.44508 47.233 6.26705C47.4223 6.08902 47.6477 6 47.9091 6C48.1705 6 48.3939 6.08902 48.5795 6.26705C48.7689 6.44508 48.8636 6.65909 48.8636 6.90909C48.8636 7.15909 48.7689 7.37311 48.5795 7.55114C48.3939 7.72917 48.1705 7.81818 47.9091 7.81818ZM54.3196 18.1818C53.5923 18.1818 52.9503 17.9981 52.3935 17.6307C51.8366 17.2595 51.401 16.7367 51.0866 16.0625C50.7723 15.3845 50.6151 14.5833 50.6151 13.6591C50.6151 12.7424 50.7723 11.947 51.0866 11.2727C51.401 10.5985 51.8385 10.0777 52.3991 9.71023C52.9598 9.3428 53.6075 9.15909 54.3423 9.15909C54.9105 9.15909 55.3594 9.25379 55.6889 9.44318C56.0223 9.62879 56.276 9.84091 56.4503 10.0795C56.6283 10.3144 56.7666 10.5076 56.8651 10.6591H56.9787V6.36364H58.3196V18H57.0241V16.6591H56.8651C56.7666 16.8182 56.6264 17.0189 56.4446 17.2614C56.2628 17.5 56.0033 17.714 55.6662 17.9034C55.3291 18.089 54.8802 18.1818 54.3196 18.1818ZM54.5014 16.9773C55.0393 16.9773 55.4938 16.8371 55.8651 16.5568C56.2363 16.2727 56.5185 15.8807 56.7116 15.3807C56.9048 14.8769 57.0014 14.2955 57.0014 13.6364C57.0014 12.9848 56.9067 12.4148 56.7173 11.9261C56.5279 11.4337 56.2476 11.0511 55.8764 10.7784C55.5052 10.5019 55.0469 10.3636 54.5014 10.3636C53.9332 10.3636 53.4598 10.5095 53.081 10.8011C52.706 11.089 52.4238 11.4811 52.2344 11.9773C52.0488 12.4697 51.956 13.0227 51.956 13.6364C51.956 14.2576 52.0507 14.822 52.2401 15.3295C52.4332 15.8333 52.7173 16.2348 53.0923 16.5341C53.4711 16.8295 53.9408 16.9773 54.5014 16.9773ZM64.6207 18.1818C63.7798 18.1818 63.0545 17.9962 62.4446 17.625C61.8385 17.25 61.3707 16.7273 61.0412 16.0568C60.7154 15.3826 60.5526 14.5985 60.5526 13.7045C60.5526 12.8106 60.7154 12.0227 61.0412 11.3409C61.3707 10.6553 61.8291 10.1212 62.4162 9.73864C63.0071 9.35227 63.6965 9.15909 64.4844 9.15909C64.9389 9.15909 65.3878 9.23485 65.831 9.38636C66.2741 9.53788 66.6776 9.78409 67.0412 10.125C67.4048 10.4621 67.6946 10.9091 67.9105 11.4659C68.1264 12.0227 68.2344 12.7083 68.2344 13.5227V14.0909H61.5071V12.9318H66.8707C66.8707 12.4394 66.7723 12 66.5753 11.6136C66.3821 11.2273 66.1056 10.9223 65.7457 10.6989C65.3897 10.4754 64.9692 10.3636 64.4844 10.3636C63.9503 10.3636 63.4882 10.4962 63.098 10.7614C62.7116 11.0227 62.4143 11.3636 62.206 11.7841C61.9976 12.2045 61.8935 12.6553 61.8935 13.1364V13.9091C61.8935 14.5682 62.0071 15.1269 62.2344 15.5852C62.4654 16.0398 62.7855 16.3864 63.1946 16.625C63.6037 16.8598 64.0791 16.9773 64.6207 16.9773C64.973 16.9773 65.2912 16.928 65.5753 16.8295C65.8632 16.7273 66.1113 16.5758 66.3196 16.375C66.5279 16.1705 66.6889 15.9167 66.8026 15.6136L68.098 15.9773C67.9616 16.4167 67.7325 16.803 67.4105 17.1364C67.0885 17.4659 66.6908 17.7235 66.2173 17.9091C65.7438 18.0909 65.2116 18.1818 64.6207 18.1818ZM70.2741 18V9.27273H71.5696V10.5909H71.6605C71.8196 10.1591 72.1075 9.80871 72.5241 9.53977C72.9408 9.27083 73.4105 9.13636 73.9332 9.13636C74.0317 9.13636 74.1548 9.13826 74.3026 9.14205C74.4503 9.14583 74.562 9.15152 74.6378 9.15909V10.5227C74.5923 10.5114 74.4882 10.4943 74.3253 10.4716C74.1662 10.4451 73.9976 10.4318 73.8196 10.4318C73.3954 10.4318 73.0166 10.5208 72.6832 10.6989C72.3537 10.8731 72.0923 11.1155 71.8991 11.4261C71.7098 11.733 71.6151 12.0833 71.6151 12.4773V18H70.2741ZM90.2727 10H88.8636C88.7803 9.5947 88.6345 9.23864 88.4261 8.93182C88.2216 8.625 87.9716 8.36742 87.6761 8.15909C87.3845 7.94697 87.0606 7.78788 86.7045 7.68182C86.3485 7.57576 85.9773 7.52273 85.5909 7.52273C84.8864 7.52273 84.2481 7.70076 83.6761 8.05682C83.108 8.41288 82.6553 8.9375 82.3182 9.63068C81.9848 10.3239 81.8182 11.1742 81.8182 12.1818C81.8182 13.1894 81.9848 14.0398 82.3182 14.733C82.6553 15.4261 83.108 15.9508 83.6761 16.3068C84.2481 16.6629 84.8864 16.8409 85.5909 16.8409C85.9773 16.8409 86.3485 16.7879 86.7045 16.6818C87.0606 16.5758 87.3845 16.4186 87.6761 16.2102C87.9716 15.9981 88.2216 15.7386 88.4261 15.4318C88.6345 15.1212 88.7803 14.7652 88.8636 14.3636H90.2727C90.1667 14.9583 89.9735 15.4905 89.6932 15.9602C89.4129 16.4299 89.0644 16.8295 88.6477 17.1591C88.2311 17.4848 87.7633 17.733 87.2443 17.9034C86.7292 18.0739 86.178 18.1591 85.5909 18.1591C84.5985 18.1591 83.7159 17.9167 82.9432 17.4318C82.1705 16.947 81.5625 16.2576 81.1193 15.3636C80.6761 14.4697 80.4545 13.4091 80.4545 12.1818C80.4545 10.9545 80.6761 9.89394 81.1193 9C81.5625 8.10606 82.1705 7.41667 82.9432 6.93182C83.7159 6.44697 84.5985 6.20455 85.5909 6.20455C86.178 6.20455 86.7292 6.28977 87.2443 6.46023C87.7633 6.63068 88.2311 6.88068 88.6477 7.21023C89.0644 7.53598 89.4129 7.93371 89.6932 8.40341C89.9735 8.86932 90.1667 9.40151 90.2727 10ZM94.9361 18.2045C94.383 18.2045 93.8812 18.1004 93.4304 17.892C92.9796 17.6799 92.6217 17.375 92.3565 16.9773C92.0914 16.5758 91.9588 16.0909 91.9588 15.5227C91.9588 15.0227 92.0573 14.6174 92.2543 14.3068C92.4512 13.9924 92.7145 13.7462 93.044 13.5682C93.3736 13.3902 93.7372 13.2576 94.1349 13.1705C94.5365 13.0795 94.9399 13.0076 95.3452 12.9545C95.8755 12.8864 96.3054 12.8352 96.6349 12.8011C96.9683 12.7633 97.2107 12.7008 97.3622 12.6136C97.5175 12.5265 97.5952 12.375 97.5952 12.1591V12.1136C97.5952 11.553 97.4418 11.1174 97.1349 10.8068C96.8319 10.4962 96.3717 10.3409 95.7543 10.3409C95.1141 10.3409 94.6122 10.4811 94.2486 10.7614C93.8849 11.0417 93.6293 11.3409 93.4815 11.6591L92.2088 11.2045C92.4361 10.6742 92.7391 10.2614 93.1179 9.96591C93.5005 9.66667 93.9171 9.45833 94.3679 9.34091C94.8224 9.2197 95.2694 9.15909 95.7088 9.15909C95.9891 9.15909 96.3111 9.19318 96.6747 9.26136C97.0421 9.32576 97.3963 9.46023 97.7372 9.66477C98.0819 9.86932 98.3679 10.178 98.5952 10.5909C98.8224 11.0038 98.9361 11.5568 98.9361 12.25V18H97.5952V16.8182H97.527C97.4361 17.0076 97.2846 17.2102 97.0724 17.4261C96.8603 17.642 96.5781 17.8258 96.2259 17.9773C95.8736 18.1288 95.4437 18.2045 94.9361 18.2045ZM95.1406 17C95.6709 17 96.1179 16.8958 96.4815 16.6875C96.849 16.4792 97.1255 16.2102 97.3111 15.8807C97.5005 15.5511 97.5952 15.2045 97.5952 14.8409V13.6136C97.5384 13.6818 97.4134 13.7443 97.2202 13.8011C97.0308 13.8542 96.8111 13.9015 96.5611 13.9432C96.3149 13.9811 96.0743 14.0152 95.8395 14.0455C95.6084 14.072 95.4209 14.0947 95.277 14.1136C94.9285 14.1591 94.6027 14.233 94.2997 14.3352C94.0005 14.4337 93.758 14.5833 93.5724 14.7841C93.3906 14.9811 93.2997 15.25 93.2997 15.5909C93.2997 16.0568 93.4721 16.4091 93.8168 16.6477C94.1652 16.8826 94.6065 17 95.1406 17ZM101.384 18V9.27273H102.679V10.5909H102.77C102.929 10.1591 103.217 9.80871 103.634 9.53977C104.05 9.27083 104.52 9.13636 105.043 9.13636C105.141 9.13636 105.264 9.13826 105.412 9.14205C105.56 9.14583 105.671 9.15152 105.747 9.15909V10.5227C105.702 10.5114 105.598 10.4943 105.435 10.4716C105.276 10.4451 105.107 10.4318 104.929 10.4318C104.505 10.4318 104.126 10.5208 103.793 10.6989C103.463 10.8731 103.202 11.1155 103.009 11.4261C102.819 11.733 102.724 12.0833 102.724 12.4773V18H101.384ZM110.616 18.1818C109.829 18.1818 109.137 17.9943 108.543 17.6193C107.952 17.2443 107.49 16.7197 107.156 16.0455C106.827 15.3712 106.662 14.5833 106.662 13.6818C106.662 12.7727 106.827 11.9792 107.156 11.3011C107.49 10.6231 107.952 10.0966 108.543 9.72159C109.137 9.34659 109.829 9.15909 110.616 9.15909C111.404 9.15909 112.094 9.34659 112.685 9.72159C113.279 10.0966 113.741 10.6231 114.071 11.3011C114.404 11.9792 114.571 12.7727 114.571 13.6818C114.571 14.5833 114.404 15.3712 114.071 16.0455C113.741 16.7197 113.279 17.2443 112.685 17.6193C112.094 17.9943 111.404 18.1818 110.616 18.1818ZM110.616 16.9773C111.215 16.9773 111.707 16.8239 112.094 16.517C112.48 16.2102 112.766 15.8068 112.952 15.3068C113.137 14.8068 113.23 14.2652 113.23 13.6818C113.23 13.0985 113.137 12.5549 112.952 12.0511C112.766 11.5473 112.48 11.1402 112.094 10.8295C111.707 10.5189 111.215 10.3636 110.616 10.3636C110.018 10.3636 109.526 10.5189 109.139 10.8295C108.753 11.1402 108.467 11.5473 108.281 12.0511C108.096 12.5549 108.003 13.0985 108.003 13.6818C108.003 14.2652 108.096 14.8068 108.281 15.3068C108.467 15.8068 108.753 16.2102 109.139 16.517C109.526 16.8239 110.018 16.9773 110.616 16.9773ZM122.118 14.4318V9.27273H123.459V18H122.118V16.5227H122.027C121.822 16.9659 121.504 17.3428 121.072 17.6534C120.641 17.9602 120.095 18.1136 119.436 18.1136C118.891 18.1136 118.406 17.9943 117.982 17.7557C117.557 17.5133 117.224 17.1496 116.982 16.6648C116.739 16.1761 116.618 15.5606 116.618 14.8182V9.27273H117.959V14.7273C117.959 15.3636 118.137 15.8712 118.493 16.25C118.853 16.6288 119.311 16.8182 119.868 16.8182C120.201 16.8182 120.54 16.733 120.885 16.5625C121.233 16.392 121.525 16.1307 121.76 15.7784C121.999 15.4261 122.118 14.9773 122.118 14.4318ZM132.097 11.2273L130.892 11.5682C130.816 11.3674 130.705 11.1723 130.557 10.983C130.413 10.7898 130.216 10.6307 129.966 10.5057C129.716 10.3807 129.396 10.3182 129.006 10.3182C128.472 10.3182 128.027 10.4413 127.67 10.6875C127.318 10.9299 127.142 11.2386 127.142 11.6136C127.142 11.947 127.263 12.2102 127.506 12.4034C127.748 12.5966 128.127 12.7576 128.642 12.8864L129.938 13.2045C130.718 13.3939 131.299 13.6837 131.682 14.0739C132.064 14.4602 132.256 14.9583 132.256 15.5682C132.256 16.0682 132.112 16.5152 131.824 16.9091C131.54 17.303 131.142 17.6136 130.631 17.8409C130.119 18.0682 129.525 18.1818 128.847 18.1818C127.956 18.1818 127.22 17.9886 126.636 17.6023C126.053 17.2159 125.684 16.6515 125.528 15.9091L126.801 15.5909C126.922 16.0606 127.152 16.4129 127.489 16.6477C127.83 16.8826 128.275 17 128.824 17C129.449 17 129.945 16.8674 130.312 16.6023C130.684 16.3333 130.869 16.0114 130.869 15.6364C130.869 15.3333 130.763 15.0795 130.551 14.875C130.339 14.6667 130.013 14.5114 129.574 14.4091L128.119 14.0682C127.32 13.8788 126.733 13.5852 126.358 13.1875C125.987 12.786 125.801 12.2841 125.801 11.6818C125.801 11.1894 125.939 10.7538 126.216 10.375C126.496 9.99621 126.877 9.69886 127.358 9.48295C127.843 9.26705 128.392 9.15909 129.006 9.15909C129.869 9.15909 130.547 9.34848 131.04 9.72727C131.536 10.1061 131.888 10.6061 132.097 11.2273ZM137.933 18.1818C137.092 18.1818 136.367 17.9962 135.757 17.625C135.151 17.25 134.683 16.7273 134.354 16.0568C134.028 15.3826 133.865 14.5985 133.865 13.7045C133.865 12.8106 134.028 12.0227 134.354 11.3409C134.683 10.6553 135.142 10.1212 135.729 9.73864C136.32 9.35227 137.009 9.15909 137.797 9.15909C138.251 9.15909 138.7 9.23485 139.143 9.38636C139.587 9.53788 139.99 9.78409 140.354 10.125C140.717 10.4621 141.007 10.9091 141.223 11.4659C141.439 12.0227 141.547 12.7083 141.547 13.5227V14.0909H134.82V12.9318H140.183C140.183 12.4394 140.085 12 139.888 11.6136C139.695 11.2273 139.418 10.9223 139.058 10.6989C138.702 10.4754 138.282 10.3636 137.797 10.3636C137.263 10.3636 136.801 10.4962 136.411 10.7614C136.024 11.0227 135.727 11.3636 135.518 11.7841C135.31 12.2045 135.206 12.6553 135.206 13.1364V13.9091C135.206 14.5682 135.32 15.1269 135.547 15.5852C135.778 16.0398 136.098 16.3864 136.507 16.625C136.916 16.8598 137.392 16.9773 137.933 16.9773C138.286 16.9773 138.604 16.928 138.888 16.8295C139.176 16.7273 139.424 16.5758 139.632 16.375C139.84 16.1705 140.001 15.9167 140.115 15.6136L141.411 15.9773C141.274 16.4167 141.045 16.803 140.723 17.1364C140.401 17.4659 140.003 17.7235 139.53 17.9091C139.056 18.0909 138.524 18.1818 137.933 18.1818ZM144.928 6.36364V18H143.587V6.36364H144.928Z" fill="white"/>
</svg>
