<svg width="69" height="24" viewBox="0 0 69 24" fill="none" xmlns="http://www.w3.org/2000/svg">
<path fill-rule="evenodd" clip-rule="evenodd" d="M19.4175 12.75H15C14.6022 12.75 14.2206 12.592 13.9393 12.3107C13.658 12.0294 13.5 11.6478 13.5 11.25V6.75C13.5 6.35218 13.658 5.97064 13.9393 5.68934C14.2206 5.40804 14.6022 5.25 15 5.25H19.5C19.8978 5.25 20.2794 5.40804 20.5607 5.68934C20.842 5.97064 21 6.35218 21 6.75V11.7375C20.9995 13.0955 20.6639 14.4323 20.0228 15.6295C19.3817 16.8266 18.455 17.8469 17.325 18.6L15.9825 19.5L15.1575 18.255L16.5 17.355C17.2798 16.8325 17.942 16.153 18.4443 15.3601C18.9467 14.5672 19.2781 13.6782 19.4175 12.75ZM8.9175 12.75H4.5C4.10217 12.75 3.72064 12.592 3.43934 12.3107C3.15804 12.0294 3 11.6478 3 11.25V6.75C3 6.35218 3.15804 5.97064 3.43934 5.68934C3.72064 5.40804 4.10217 5.25 4.5 5.25H9C9.39782 5.25 9.77936 5.40804 10.0607 5.68934C10.342 5.97064 10.5 6.35218 10.5 6.75V11.7375C10.4995 13.0955 10.1639 14.4323 9.5228 15.6295C8.88172 16.8266 7.95504 17.8469 6.825 18.6L5.475 19.5L4.6575 18.255L6 17.355C6.77976 16.8325 7.44196 16.153 7.94431 15.3601C8.44666 14.5672 8.77811 13.6782 8.9175 12.75Z" fill="white"/>
<path d="M42.7727 10H41.3636C41.2803 9.5947 41.1345 9.23864 40.9261 8.93182C40.7216 8.625 40.4716 8.36742 40.1761 8.15909C39.8845 7.94697 39.5606 7.78788 39.2045 7.68182C38.8485 7.57576 38.4773 7.52273 38.0909 7.52273C37.3864 7.52273 36.7481 7.70076 36.1761 8.05682C35.608 8.41288 35.1553 8.9375 34.8182 9.63068C34.4848 10.3239 34.3182 11.1742 34.3182 12.1818C34.3182 13.1894 34.4848 14.0398 34.8182 14.733C35.1553 15.4261 35.608 15.9508 36.1761 16.3068C36.7481 16.6629 37.3864 16.8409 38.0909 16.8409C38.4773 16.8409 38.8485 16.7879 39.2045 16.6818C39.5606 16.5758 39.8845 16.4186 40.1761 16.2102C40.4716 15.9981 40.7216 15.7386 40.9261 15.4318C41.1345 15.1212 41.2803 14.7652 41.3636 14.3636H42.7727C42.6667 14.9583 42.4735 15.4905 42.1932 15.9602C41.9129 16.4299 41.5644 16.8295 41.1477 17.1591C40.7311 17.4848 40.2633 17.733 39.7443 17.9034C39.2292 18.0739 38.678 18.1591 38.0909 18.1591C37.0985 18.1591 36.2159 17.9167 35.4432 17.4318C34.6705 16.947 34.0625 16.2576 33.6193 15.3636C33.1761 14.4697 32.9545 13.4091 32.9545 12.1818C32.9545 10.9545 33.1761 9.89394 33.6193 9C34.0625 8.10606 34.6705 7.41667 35.4432 6.93182C36.2159 6.44697 37.0985 6.20455 38.0909 6.20455C38.678 6.20455 39.2292 6.28977 39.7443 6.46023C40.2633 6.63068 40.7311 6.88068 41.1477 7.21023C41.5644 7.53598 41.9129 7.93371 42.1932 8.40341C42.4735 8.86932 42.6667 9.40151 42.7727 10ZM47.4361 18.2045C46.883 18.2045 46.3812 18.1004 45.9304 17.892C45.4796 17.6799 45.1217 17.375 44.8565 16.9773C44.5914 16.5758 44.4588 16.0909 44.4588 15.5227C44.4588 15.0227 44.5573 14.6174 44.7543 14.3068C44.9512 13.9924 45.2145 13.7462 45.544 13.5682C45.8736 13.3902 46.2372 13.2576 46.6349 13.1705C47.0365 13.0795 47.4399 13.0076 47.8452 12.9545C48.3755 12.8864 48.8054 12.8352 49.1349 12.8011C49.4683 12.7633 49.7107 12.7008 49.8622 12.6136C50.0175 12.5265 50.0952 12.375 50.0952 12.1591V12.1136C50.0952 11.553 49.9418 11.1174 49.6349 10.8068C49.3319 10.4962 48.8717 10.3409 48.2543 10.3409C47.6141 10.3409 47.1122 10.4811 46.7486 10.7614C46.3849 11.0417 46.1293 11.3409 45.9815 11.6591L44.7088 11.2045C44.9361 10.6742 45.2391 10.2614 45.6179 9.96591C46.0005 9.66667 46.4171 9.45833 46.8679 9.34091C47.3224 9.2197 47.7694 9.15909 48.2088 9.15909C48.4891 9.15909 48.8111 9.19318 49.1747 9.26136C49.5421 9.32576 49.8963 9.46023 50.2372 9.66477C50.5819 9.86932 50.8679 10.178 51.0952 10.5909C51.3224 11.0038 51.4361 11.5568 51.4361 12.25V18H50.0952V16.8182H50.027C49.9361 17.0076 49.7846 17.2102 49.5724 17.4261C49.3603 17.642 49.0781 17.8258 48.7259 17.9773C48.3736 18.1288 47.9437 18.2045 47.4361 18.2045ZM47.6406 17C48.1709 17 48.6179 16.8958 48.9815 16.6875C49.349 16.4792 49.6255 16.2102 49.8111 15.8807C50.0005 15.5511 50.0952 15.2045 50.0952 14.8409V13.6136C50.0384 13.6818 49.9134 13.7443 49.7202 13.8011C49.5308 13.8542 49.3111 13.9015 49.0611 13.9432C48.8149 13.9811 48.5743 14.0152 48.3395 14.0455C48.1084 14.072 47.9209 14.0947 47.777 14.1136C47.4285 14.1591 47.1027 14.233 46.7997 14.3352C46.5005 14.4337 46.258 14.5833 46.0724 14.7841C45.8906 14.9811 45.7997 15.25 45.7997 15.5909C45.7997 16.0568 45.9721 16.4091 46.3168 16.6477C46.6652 16.8826 47.1065 17 47.6406 17ZM53.8835 18V9.27273H55.179V10.5909H55.2699C55.429 10.1591 55.7169 9.80871 56.1335 9.53977C56.5502 9.27083 57.0199 9.13636 57.5426 9.13636C57.6411 9.13636 57.7642 9.13826 57.9119 9.14205C58.0597 9.14583 58.1714 9.15152 58.2472 9.15909V10.5227C58.2017 10.5114 58.0975 10.4943 57.9347 10.4716C57.7756 10.4451 57.607 10.4318 57.429 10.4318C57.0047 10.4318 56.6259 10.5208 56.2926 10.6989C55.9631 10.8731 55.7017 11.1155 55.5085 11.4261C55.3191 11.733 55.2244 12.0833 55.2244 12.4773V18H53.8835ZM62.8665 18.1818C62.1392 18.1818 61.4972 17.9981 60.9403 17.6307C60.3835 17.2595 59.9479 16.7367 59.6335 16.0625C59.3191 15.3845 59.1619 14.5833 59.1619 13.6591C59.1619 12.7424 59.3191 11.947 59.6335 11.2727C59.9479 10.5985 60.3854 10.0777 60.946 9.71023C61.5066 9.3428 62.1544 9.15909 62.8892 9.15909C63.4574 9.15909 63.9063 9.25379 64.2358 9.44318C64.5691 9.62879 64.8229 9.84091 64.9972 10.0795C65.1752 10.3144 65.3134 10.5076 65.4119 10.6591H65.5256V6.36364H66.8665V18H65.571V16.6591H65.4119C65.3134 16.8182 65.1733 17.0189 64.9915 17.2614C64.8097 17.5 64.5502 17.714 64.2131 17.9034C63.8759 18.089 63.4271 18.1818 62.8665 18.1818ZM63.0483 16.9773C63.5862 16.9773 64.0407 16.8371 64.4119 16.5568C64.7831 16.2727 65.0653 15.8807 65.2585 15.3807C65.4517 14.8769 65.5483 14.2955 65.5483 13.6364C65.5483 12.9848 65.4536 12.4148 65.2642 11.9261C65.0748 11.4337 64.7945 11.0511 64.4233 10.7784C64.0521 10.5019 63.5938 10.3636 63.0483 10.3636C62.4801 10.3636 62.0066 10.5095 61.6278 10.8011C61.2528 11.089 60.9706 11.4811 60.7812 11.9773C60.5956 12.4697 60.5028 13.0227 60.5028 13.6364C60.5028 14.2576 60.5975 14.822 60.7869 15.3295C60.9801 15.8333 61.2642 16.2348 61.6392 16.5341C62.018 16.8295 62.4877 16.9773 63.0483 16.9773Z" fill="white"/>
</svg>
