<svg width="56" height="68" viewBox="0 0 56 68" fill="none" xmlns="http://www.w3.org/2000/svg">
<path d="M41.6184 10.9688H2.57056C1.15298 10.9688 0 12.1217 0 13.5393V65.4303C0 66.8479 1.15298 68.0009 2.57056 68.0009H41.6184C43.0346 68.0009 44.1876 66.8479 44.1876 65.4303V13.5393C44.1876 12.1217 43.0346 10.9688 41.6184 10.9688ZM32.9031 47.1622H12.0645C10.8526 47.1622 9.87094 46.1806 9.87094 44.9687C9.87094 43.7567 10.8526 42.7751 12.0645 42.7751H32.9031C34.1151 42.7751 35.0967 43.7567 35.0967 44.9687C35.0967 46.1806 34.1151 47.1622 32.9031 47.1622ZM32.9031 38.388H12.0645C10.8526 38.388 9.87094 37.4064 9.87094 36.1945C9.87094 34.9826 10.8526 34.001 12.0645 34.001H32.9031C34.1151 34.001 35.0967 34.9826 35.0967 36.1945C35.0967 37.4064 34.1151 38.388 32.9031 38.388ZM32.9031 29.6139H12.0645C10.8526 29.6139 9.87094 28.6323 9.87094 27.4203C9.87094 26.2084 10.8526 25.2268 12.0645 25.2268H32.9031C34.1151 25.2268 35.0967 26.2084 35.0967 27.4203C35.0967 28.6323 34.1151 29.6139 32.9031 29.6139Z" fill="white"/>
<path d="M55.935 6.58063V54.8386C55.935 58.1508 53.2697 61.4192 48.5743 61.4192V13.5383C48.5743 9.70094 45.454 6.58063 41.618 6.58063H7.36035C7.36035 2.95169 10.4875 0 14.3303 0H48.965C52.8078 0 55.935 2.95169 55.935 6.58063Z" fill="white"/>
</svg>
