<svg width="81" height="68" viewBox="0 0 81 68" fill="none" xmlns="http://www.w3.org/2000/svg">
<path d="M56.5848 38.8017C55.4685 37.5212 56.3778 35.5219 58.0766 35.5219H63.1628C63.1959 35.0187 63.2144 34.5115 63.2144 34.0001C63.2144 21.3277 52.9048 11.0181 40.2326 11.0181C34.1427 11.0181 28.5995 13.3997 24.4829 17.2795L17.3108 8.88919C23.5891 3.14589 31.6687 0 40.2326 0C49.3143 0 57.8524 3.53671 64.2742 9.95834C70.6958 16.3801 74.2325 24.9182 74.2325 33.9999C74.2325 34.5091 74.2198 35.0163 74.1976 35.5218H78.4818C80.1806 35.5218 81.09 37.5211 79.9736 38.8016L70.3092 49.8872L68.2793 52.2156L60.991 43.8556L56.5848 38.8017Z" fill="white"/>
<path d="M0.491386 32.334L7.69969 24.0656L12.1857 18.9199L18.5907 26.2667L23.8801 32.334C24.9963 33.6144 24.087 35.6138 22.3882 35.6138H17.308C18.1391 47.536 28.1028 56.9819 40.2324 56.9819C45.5273 56.9819 50.409 55.1811 54.2992 52.161L61.4717 60.5519C55.463 65.3773 48.0498 68 40.2323 68C31.1506 68 22.6125 64.4635 16.1907 58.0417C10.1508 52.0018 6.66399 44.0895 6.27065 35.6139H1.98307C0.284435 35.6138 -0.624866 33.6144 0.491386 32.334Z" fill="white"/>
</svg>
