<svg width="55" height="47" viewBox="0 0 55 47" fill="none" xmlns="http://www.w3.org/2000/svg">
<path d="M35.0581 19.1796C29.4743 15.707 25.4062 8.60051 24.2495 0C23.0929 8.60051 19.0247 15.707 13.4809 19.1796C12.404 19.866 9.69189 20.9158 9.69189 20.9158C9.69189 20.9158 12.404 21.9656 13.4809 22.6521C19.0646 26.1246 23.1328 33.2311 24.2495 41.8316C25.4062 33.1907 29.4743 26.0842 35.0581 22.6117C36.135 21.9253 38.8471 20.8754 38.8471 20.8754C38.8471 20.8754 36.135 19.866 35.0581 19.1796Z" fill="#BB0B0B"/>
<path d="M8.33575 32.2627H7.57796V31.4956C7.57796 31.4956 7.57795 27.2559 6.26178 27.2559C4.94561 27.2559 4.94561 31.4956 4.94561 31.4956V32.2627H4.18782C4.18782 32.2627 0 32.2627 0 33.5952C0 34.9277 4.18782 34.9277 4.18782 34.9277H4.94561V35.6949C4.94561 35.6949 4.94561 39.9346 6.26178 39.9346C7.57795 39.9346 7.57796 35.6949 7.57796 35.6949V34.9277H8.33575C8.33575 34.9277 12.5236 34.9277 12.5236 33.5952C12.5236 32.2627 8.33575 32.2627 8.33575 32.2627Z" fill="#BB0B0B"/>
<path d="M52.4872 34.1202C48.8578 32.1417 46.1856 28.0635 45.4278 23.1777C44.67 28.0635 42.0376 32.1417 38.3683 34.1202C37.6504 34.524 35.8955 35.0892 35.8955 35.0892C35.8955 35.0892 37.6504 35.6949 38.3683 36.0583C41.9978 38.0368 44.67 42.115 45.4278 47.0008C46.1856 42.115 48.8179 38.0368 52.4872 36.0583C53.2052 35.6545 54.96 35.0892 54.96 35.0892C54.96 35.0892 53.2052 34.4836 52.4872 34.1202Z" fill="#BB0B0B"/>
<path d="M47.5417 12.517C47.5417 13.6879 46.5845 14.657 45.4278 14.657C44.2712 14.657 43.314 13.6879 43.314 12.517C43.314 11.346 44.2712 10.377 45.4278 10.377C46.5845 10.377 47.5417 11.346 47.5417 12.517Z" fill="#BB0B0B"/>
</svg>
