<svg width="26" height="26" viewBox="0 0 26 26" fill="none" xmlns="http://www.w3.org/2000/svg">
<path fill-rule="evenodd" clip-rule="evenodd" d="M12.6146 14.5274C12.7329 14.5914 12.8653 14.6249 12.9998 14.6249C13.1343 14.6249 13.2667 14.5914 13.385 14.5274L23.9475 8.8399C24.0766 8.77033 24.1845 8.6671 24.2597 8.54116C24.3349 8.41523 24.3746 8.27129 24.3746 8.12461C24.3746 7.97794 24.3349 7.834 24.2597 7.70806C24.1845 7.58213 24.0766 7.4789 23.9475 7.40933L13.385 1.72183C13.2667 1.65795 13.1343 1.62451 12.9998 1.62451C12.8653 1.62451 12.733 1.65795 12.6146 1.72183L2.05211 7.40933C1.92298 7.4789 1.8151 7.58213 1.7399 7.70806C1.66471 7.834 1.625 7.97794 1.625 8.12461C1.625 8.27129 1.66471 8.41523 1.7399 8.54116C1.8151 8.6671 1.92298 8.77033 2.05211 8.8399L12.6146 14.5274ZM12.9998 12.8896L4.1512 8.1249L12.9998 3.36023L21.8484 8.1249L12.9998 12.8896ZM12.9998 19.5C12.8653 19.5 12.7329 19.4665 12.6146 19.4025L2.05208 13.715L2.82249 12.285L12.9998 17.7647L23.1771 12.285L23.9475 13.7156L13.385 19.4031C13.2666 19.4669 13.1342 19.5002 12.9998 19.5ZM12.9998 24.375C12.8653 24.375 12.7329 24.3415 12.6146 24.2775L2.05208 18.59L2.82249 17.16L12.9998 22.6397L23.1771 17.16L23.9475 18.5906L13.385 24.2781C13.2666 24.3419 13.1342 24.3752 12.9998 24.375Z" fill="#629D23"/>
</svg>
