<svg width="26" height="26" viewBox="0 0 26 26" fill="none" xmlns="http://www.w3.org/2000/svg">
<path d="M13 1.625C10.7502 1.625 8.551 2.29213 6.68039 3.54203C4.80978 4.79193 3.35182 6.56847 2.49088 8.64698C1.62993 10.7255 1.40467 13.0126 1.84357 15.2192C2.28248 17.4257 3.36584 19.4525 4.95667 21.0433C6.54749 22.6342 8.57432 23.7175 10.7809 24.1564C12.9874 24.5953 15.2745 24.3701 17.353 23.5091C19.4315 22.6482 21.2081 21.1902 22.458 19.3196C23.7079 17.449 24.375 15.2498 24.375 13C24.375 9.98316 23.1766 7.08989 21.0433 4.95666C18.9101 2.82343 16.0168 1.625 13 1.625ZM22.75 12.1875H17.875C17.7802 9.19513 17.0049 6.26369 15.6081 3.61562C17.5326 4.14204 19.2492 5.24619 20.5264 6.77903C21.8035 8.31188 22.5796 10.1996 22.75 12.1875ZM13 22.75C12.8188 22.7622 12.6369 22.7622 12.4556 22.75C10.7724 20.0657 9.83817 16.9797 9.75001 13.8125H16.25C16.1692 16.9775 15.2434 20.0632 13.5688 22.75C13.3794 22.7633 13.1894 22.7633 13 22.75ZM9.75001 12.1875C9.83084 9.02255 10.7566 5.93679 12.4313 3.25C12.793 3.20935 13.1582 3.20935 13.52 3.25C15.2119 5.9319 16.1545 9.01799 16.25 12.1875H9.75001ZM10.3675 3.61562C8.97918 6.26571 8.21231 9.19705 8.12501 12.1875H3.25001C3.42039 10.1996 4.19652 8.31188 5.47365 6.77903C6.75078 5.24619 8.46742 4.14204 10.3919 3.61562H10.3675ZM3.29063 13.8125H8.16563C8.25042 16.8023 9.01451 19.7336 10.4 22.3844C8.48158 21.8523 6.77201 20.7457 5.50108 19.2133C4.23015 17.6809 3.45877 15.7962 3.29063 13.8125ZM15.6081 22.3844C17.0049 19.7363 17.7802 16.8049 17.875 13.8125H22.75C22.5796 15.8004 21.8035 17.6881 20.5264 19.221C19.2492 20.7538 17.5326 21.858 15.6081 22.3844Z" fill="#629D23"/>
</svg>
