<svg width="26" height="26" viewBox="0 0 26 26" fill="none" xmlns="http://www.w3.org/2000/svg">
<path fill-rule="evenodd" clip-rule="evenodd" d="M13.5123 24.3182C13.608 24.356 13.7101 24.3753 13.813 24.375C13.9962 24.374 14.1738 24.311 14.3167 24.1963L18.3792 20.9463C18.475 20.8706 18.5525 20.7744 18.6059 20.6647C18.6594 20.5549 18.6874 20.4346 18.688 20.3125V14.1457L21.7592 11.0826C22.5919 10.2545 23.252 9.26933 23.7011 8.18423C24.1502 7.09912 24.3794 5.93566 24.3755 4.7613V3.25005C24.3755 2.81907 24.2043 2.40575 23.8995 2.101C23.5948 1.79626 23.1814 1.62505 22.7505 1.62505H21.2392C20.0649 1.62109 18.9014 1.85031 17.8163 2.29942C16.7312 2.74852 15.746 3.40857 14.918 4.2413L11.8548 7.31255H5.68796C5.56526 7.31408 5.44449 7.34338 5.33473 7.39826C5.22497 7.45315 5.12906 7.53218 5.05421 7.62943L1.80421 11.6919C1.71353 11.8043 1.65443 11.9388 1.63301 12.0816C1.61159 12.2244 1.62862 12.3704 1.68234 12.5044C1.7354 12.6375 1.82273 12.7542 1.93546 12.8427C2.04818 12.9312 2.18231 12.9883 2.32421 13.0082L8.01171 13.8207L8.23921 12.1957L3.95734 11.5863L6.07796 8.93755H12.188C12.2949 8.93817 12.4009 8.91767 12.4999 8.87724C12.5989 8.8368 12.6889 8.77723 12.7648 8.70192L16.0717 5.39505C16.7485 4.71366 17.5537 4.17323 18.4407 3.80505C19.3276 3.43686 20.2788 3.24823 21.2392 3.25005H22.7505V4.7613C22.7523 5.72167 22.5637 6.67287 22.1955 7.55986C21.8273 8.44685 21.2869 9.25203 20.6055 9.9288L17.2986 13.2357C17.2233 13.3116 17.1637 13.4016 17.1233 13.5006C17.0828 13.5996 17.0623 13.7056 17.063 13.8125V19.9225L14.4305 22.0432L13.8211 17.7613L12.1961 17.9888L13.0086 23.6763C13.0285 23.8182 13.0856 23.9523 13.174 24.0651C13.2625 24.1778 13.3792 24.2651 13.5123 24.3182ZM5.92203 18.9247L12.4199 12.4269L13.5689 13.5759L7.07108 20.0738L5.92203 18.9247Z" fill="#629D23"/>
<path fill-rule="evenodd" clip-rule="evenodd" d="M13.5123 24.3182C13.608 24.356 13.7101 24.3753 13.813 24.375C13.9962 24.374 14.1738 24.311 14.3167 24.1963L18.3792 20.9463C18.475 20.8706 18.5525 20.7744 18.6059 20.6647C18.6594 20.5549 18.6874 20.4346 18.688 20.3125V14.1457L21.7592 11.0826C22.5919 10.2545 23.252 9.26933 23.7011 8.18423C24.1502 7.09912 24.3794 5.93566 24.3755 4.7613V3.25005C24.3755 2.81907 24.2043 2.40575 23.8995 2.101C23.5948 1.79626 23.1814 1.62505 22.7505 1.62505H21.2392C20.0649 1.62109 18.9014 1.85031 17.8163 2.29942C16.7312 2.74852 15.746 3.40857 14.918 4.2413L11.8548 7.31255H5.68796C5.56526 7.31408 5.44449 7.34338 5.33473 7.39826C5.22497 7.45315 5.12906 7.53218 5.05421 7.62943L1.80421 11.6919C1.71353 11.8043 1.65443 11.9388 1.63301 12.0816C1.61159 12.2244 1.62862 12.3704 1.68234 12.5044C1.7354 12.6375 1.82273 12.7542 1.93546 12.8427C2.04818 12.9312 2.18231 12.9883 2.32421 13.0082L8.01171 13.8207L8.23921 12.1957L3.95734 11.5863L6.07796 8.93755H12.188C12.2949 8.93817 12.4009 8.91767 12.4999 8.87724C12.5989 8.8368 12.6889 8.77723 12.7648 8.70192L16.0717 5.39505C16.7485 4.71366 17.5537 4.17323 18.4407 3.80505C19.3276 3.43686 20.2788 3.24823 21.2392 3.25005H22.7505V4.7613C22.7523 5.72167 22.5637 6.67287 22.1955 7.55986C21.8273 8.44685 21.2869 9.25203 20.6055 9.9288L17.2986 13.2357C17.2233 13.3116 17.1637 13.4016 17.1233 13.5006C17.0828 13.5996 17.0623 13.7056 17.063 13.8125V19.9225L14.4305 22.0432L13.8211 17.7613L12.1961 17.9888L13.0086 23.6763C13.0285 23.8182 13.0856 23.9523 13.174 24.0651C13.2625 24.1778 13.3792 24.2651 13.5123 24.3182ZM5.92203 18.9247L12.4199 12.4269L13.5689 13.5759L7.07108 20.0738L5.92203 18.9247Z" fill="#629D23"/>
</svg>
