<svg width="26" height="26" viewBox="0 0 26 26" fill="none" xmlns="http://www.w3.org/2000/svg">
<path fill-rule="evenodd" clip-rule="evenodd" d="M21.0437 6.5H24.375V8.125H21.0437C20.6375 9.99375 19.0125 11.375 17.0625 11.375C15.1125 11.375 13.4875 9.99375 13.0813 8.125H1.625V6.5H13.0813C13.4875 4.63125 15.1125 3.25 17.0625 3.25C19.0125 3.25 20.6375 4.63125 21.0437 6.5ZM14.625 7.3125C14.625 8.69375 15.6812 9.75 17.0625 9.75C18.4438 9.75 19.5 8.69375 19.5 7.3125C19.5 5.93125 18.4438 4.875 17.0625 4.875C15.6812 4.875 14.625 5.93125 14.625 7.3125ZM4.95625 19.5H1.625V17.875H4.95625C5.3625 16.0063 6.9875 14.625 8.9375 14.625C10.8875 14.625 12.5125 16.0063 12.9187 17.875H24.375V19.5H12.9187C12.5125 21.3687 10.8875 22.75 8.9375 22.75C6.9875 22.75 5.3625 21.3687 4.95625 19.5ZM11.375 18.6875C11.375 17.3062 10.3188 16.25 8.9375 16.25C7.55625 16.25 6.5 17.3062 6.5 18.6875C6.5 20.0688 7.55625 21.125 8.9375 21.125C10.3188 21.125 11.375 20.0688 11.375 18.6875Z" fill="#629D23"/>
<path fill-rule="evenodd" clip-rule="evenodd" d="M21.0437 6.5H24.375V8.125H21.0437C20.6375 9.99375 19.0125 11.375 17.0625 11.375C15.1125 11.375 13.4875 9.99375 13.0813 8.125H1.625V6.5H13.0813C13.4875 4.63125 15.1125 3.25 17.0625 3.25C19.0125 3.25 20.6375 4.63125 21.0437 6.5ZM14.625 7.3125C14.625 8.69375 15.6812 9.75 17.0625 9.75C18.4438 9.75 19.5 8.69375 19.5 7.3125C19.5 5.93125 18.4438 4.875 17.0625 4.875C15.6812 4.875 14.625 5.93125 14.625 7.3125ZM4.95625 19.5H1.625V17.875H4.95625C5.3625 16.0063 6.9875 14.625 8.9375 14.625C10.8875 14.625 12.5125 16.0063 12.9187 17.875H24.375V19.5H12.9187C12.5125 21.3687 10.8875 22.75 8.9375 22.75C6.9875 22.75 5.3625 21.3687 4.95625 19.5ZM11.375 18.6875C11.375 17.3062 10.3188 16.25 8.9375 16.25C7.55625 16.25 6.5 17.3062 6.5 18.6875C6.5 20.0688 7.55625 21.125 8.9375 21.125C10.3188 21.125 11.375 20.0688 11.375 18.6875Z" fill="#629D23"/>
</svg>
