<svg width="26" height="26" viewBox="0 0 26 26" fill="none" xmlns="http://www.w3.org/2000/svg">
<path d="M9.43349 24.3098C9.26722 24.2396 9.12905 24.1161 9.04077 23.9587C8.9525 23.8012 8.91915 23.6189 8.94599 23.4404L10.4247 13.8123H6.50037C6.37595 13.8157 6.25243 13.7904 6.13934 13.7384C6.02624 13.6865 5.92659 13.6092 5.84808 13.5126C5.76957 13.4161 5.71429 13.3028 5.68651 13.1814C5.65873 13.0601 5.6592 12.934 5.68787 12.8129L8.12537 2.25043C8.16826 2.06865 8.27247 1.90719 8.42045 1.79324C8.56844 1.6793 8.75116 1.61981 8.93787 1.6248H17.0629C17.1842 1.62439 17.3042 1.65118 17.4139 1.7032C17.5235 1.75523 17.6201 1.83116 17.6966 1.92543C17.7742 2.02076 17.8291 2.13244 17.8572 2.25207C17.8854 2.37169 17.886 2.49614 17.8591 2.61605L16.4535 8.9373H20.3129C20.4651 8.937 20.6144 8.97949 20.7437 9.05994C20.873 9.14039 20.9771 9.25556 21.0441 9.3923C21.1023 9.52355 21.1247 9.66789 21.109 9.81061C21.0933 9.95333 21.0401 10.0893 20.9547 10.2048L10.3922 24.0173C10.3209 24.1231 10.2255 24.2106 10.114 24.2727C10.0025 24.3349 9.87792 24.3698 9.75037 24.3748C9.64165 24.3728 9.53423 24.3507 9.43349 24.3098ZM14.4222 10.5623L16.0472 3.2498H9.58787L7.52412 12.1873H12.326L11.0341 20.5398L18.6879 10.5623H14.4222Z" fill="#629D23"/>
<path d="M9.43349 24.3098C9.26722 24.2396 9.12905 24.1161 9.04077 23.9587C8.9525 23.8012 8.91915 23.6189 8.94599 23.4404L10.4247 13.8123H6.50037C6.37595 13.8157 6.25243 13.7904 6.13934 13.7384C6.02624 13.6865 5.92659 13.6092 5.84808 13.5126C5.76957 13.4161 5.71429 13.3028 5.68651 13.1814C5.65873 13.0601 5.6592 12.934 5.68787 12.8129L8.12537 2.25043C8.16826 2.06865 8.27247 1.90719 8.42045 1.79324C8.56844 1.6793 8.75116 1.61981 8.93787 1.6248H17.0629C17.1842 1.62439 17.3042 1.65118 17.4139 1.7032C17.5235 1.75523 17.6201 1.83116 17.6966 1.92543C17.7742 2.02076 17.8291 2.13244 17.8572 2.25207C17.8854 2.37169 17.886 2.49614 17.8591 2.61605L16.4535 8.9373H20.3129C20.4651 8.937 20.6144 8.97949 20.7437 9.05994C20.873 9.14039 20.9771 9.25556 21.0441 9.3923C21.1023 9.52355 21.1247 9.66789 21.109 9.81061C21.0933 9.95333 21.0401 10.0893 20.9547 10.2048L10.3922 24.0173C10.3209 24.1231 10.2255 24.2106 10.114 24.2727C10.0025 24.3349 9.87792 24.3698 9.75037 24.3748C9.64165 24.3728 9.53423 24.3507 9.43349 24.3098ZM14.4222 10.5623L16.0472 3.2498H9.58787L7.52412 12.1873H12.326L11.0341 20.5398L18.6879 10.5623H14.4222Z" fill="#629D23"/>
</svg>
