<svg width="29" height="20" viewBox="0 0 29 20" fill="none" xmlns="http://www.w3.org/2000/svg">
<path d="M0 19.9997L13.8896 0.103516L21.3345 4.43186L10.4664 19.9997H0Z" fill="#629D23"/>
<path d="M13.5977 0H22.1474V20H13.5977V0Z" fill="#629D23"/>
<path d="M4.73489 8.06716C7.07537 8.06716 8.9727 6.3357 8.9727 4.19984C8.9727 2.06398 7.07537 0.33252 4.73489 0.33252C2.39441 0.33252 0.49707 2.06398 0.49707 4.19984C0.49707 6.3357 2.39441 8.06716 4.73489 8.06716Z" fill="#629D23"/>
<path d="M28.2359 14.4432C28.2359 15.9171 27.5943 17.3305 26.4524 18.3727C25.3104 19.4148 23.7615 20.0003 22.1465 20.0003V8.88672C23.7614 8.88672 25.3102 9.47212 26.4522 10.5142C27.5941 11.5562 28.2358 12.9695 28.2359 14.4432Z" fill="#629D23"/>
<path d="M22.145 8.88672V20.0003C20.5402 19.9862 19.0064 19.3945 17.8771 18.354C16.7478 17.3134 16.1143 15.9081 16.1143 14.4435C16.1143 12.979 16.7478 11.5736 17.8771 10.5331C19.0064 9.4925 20.5402 8.90083 22.145 8.88672Z" fill="white"/>
<path d="M26.8329 4.60975C26.8328 5.74397 26.339 6.83169 25.4601 7.6337C24.5813 8.43571 23.3894 8.88633 22.1465 8.88647V0.33252C23.3895 0.332656 24.5815 0.783353 25.4603 1.58547C26.3392 2.3876 26.8329 3.47545 26.8329 4.60975Z" fill="#629D23"/>
<path d="M22.1462 0.33252V8.88647C20.9122 8.8741 19.7332 8.41804 18.8654 7.61729C17.9975 6.81655 17.5107 5.73575 17.5107 4.60949C17.5107 3.48324 17.9975 2.40244 18.8654 1.60169C19.7332 0.80095 20.9122 0.344893 22.1462 0.33252Z" fill="white"/>
</svg>
