<svg width="26" height="26" viewBox="0 0 26 26" fill="none" xmlns="http://www.w3.org/2000/svg">
<path fill-rule="evenodd" clip-rule="evenodd" d="M17.9427 7.86039C16.4474 6.97078 14.7399 6.50083 13 6.50002C10.4151 6.50297 7.93682 7.53114 6.10898 9.35898C4.28114 11.1868 3.25296 13.6651 3.25002 16.25H1.62502C1.6217 14.2089 2.16855 12.2046 3.20806 10.448C4.24756 8.69134 5.74128 7.24735 7.53207 6.2679C9.32287 5.28845 11.3445 4.80974 13.3844 4.88215C15.4243 4.95455 17.4069 5.57539 19.1237 6.67934L17.9427 7.86039ZM22.75 7.64887L21.6011 6.5L14.6405 13.4606C14.1451 13.1621 13.5783 13.003 13 13C12.3572 13 11.7289 13.1906 11.1944 13.5477C10.66 13.9048 10.2434 14.4124 9.99741 15.0063C9.75142 15.6001 9.68706 16.2536 9.81246 16.884C9.93786 17.5145 10.2474 18.0936 10.7019 18.5481C11.1564 19.0026 11.7355 19.3122 12.366 19.4376C12.9964 19.563 13.6499 19.4986 14.2437 19.2526C14.8376 19.0066 15.3452 18.5901 15.7023 18.0556C16.0594 17.5211 16.25 16.8928 16.25 16.25C16.247 15.6717 16.0878 15.1049 15.7894 14.6095L22.75 7.64887ZM13 17.875C12.6786 17.875 12.3644 17.7797 12.0972 17.6011C11.83 17.4226 11.6217 17.1688 11.4987 16.8719C11.3757 16.5749 11.3435 16.2482 11.4062 15.933C11.4689 15.6178 11.6237 15.3282 11.851 15.101C12.0782 14.8737 12.3678 14.7189 12.683 14.6562C12.9982 14.5935 13.3249 14.6257 13.6219 14.7487C13.9188 14.8717 14.1726 15.08 14.3512 15.3472C14.5297 15.6144 14.625 15.9286 14.625 16.25C14.6245 16.6808 14.4532 17.0939 14.1485 17.3985C13.8439 17.7031 13.4308 17.8745 13 17.875ZM24.375 16.25C24.3739 14.0789 23.7449 11.9546 22.5639 10.1328L21.3896 11.3071C22.2799 12.8022 22.7499 14.5099 22.75 16.25H24.375Z" fill="#629D23"/>
</svg>
