<svg width="30" height="21" viewBox="0 0 30 21" fill="none" xmlns="http://www.w3.org/2000/svg">
<path d="M1.50293 0C0.68058 0 0 0.683769 0 1.51592V15.6828C0 16.515 0.68058 17.1987 1.50293 17.1987H13V12.1411H1.00098V1.51592C1.00098 1.22686 1.21728 1.01194 1.50293 1.01194H20.5039C20.7895 1.01194 21.002 1.22686 21.002 1.51592V2.01991H22.002V1.51592C22.002 0.683769 21.3263 0 20.5039 0H1.50293ZM15.502 3.03185C14.6796 3.03185 14 3.72054 14 4.55267V18.7196C14 19.5517 14.6796 20.2355 15.502 20.2355H22.5186C22.1994 19.8109 22.002 19.2892 22.002 18.7196V16.1888H15V5.05765H25.0029V8.0934H26.0029V4.55267C26.0029 3.72052 25.3233 3.03185 24.501 3.03185H15.502ZM2.49512 4.03684C2.42913 4.03762 2.36394 4.05159 2.30331 4.07798C2.24269 4.10438 2.18782 4.14266 2.14189 4.19061C2.09595 4.23857 2.05985 4.29526 2.03567 4.3574C2.01148 4.41954 1.99969 4.4859 2.00098 4.55267V5.56461C1.99948 5.63201 2.01131 5.69903 2.03577 5.76174C2.06022 5.82446 2.09681 5.88156 2.14339 5.92976C2.18997 5.97796 2.24559 6.0163 2.307 6.04245C2.36841 6.0686 2.43436 6.08202 2.50098 6.08202C2.5676 6.08202 2.63355 6.0686 2.69496 6.04245C2.75637 6.0163 2.81199 5.97796 2.85857 5.92976C2.90515 5.88156 2.94174 5.82446 2.96619 5.76174C2.99065 5.69903 3.00248 5.63201 3.00098 5.56461V4.55267C3.00229 4.4849 2.99012 4.41758 2.96521 4.35466C2.9403 4.29174 2.90315 4.23453 2.85597 4.18641C2.80879 4.1383 2.75253 4.10023 2.69054 4.07454C2.62856 4.04885 2.5621 4.03604 2.49512 4.03684ZM2.49512 7.07359C2.42913 7.07436 2.36394 7.08834 2.30331 7.11473C2.24269 7.14112 2.18782 7.17941 2.14189 7.22736C2.09595 7.27532 2.05985 7.33201 2.03567 7.39415C2.01148 7.45629 1.99969 7.52265 2.00098 7.58942V10.6213C1.99948 10.6887 2.01131 10.7557 2.03577 10.8184C2.06022 10.8811 2.09681 10.9382 2.14339 10.9864C2.18997 11.0346 2.24559 11.073 2.307 11.0991C2.36841 11.1253 2.43436 11.1387 2.50098 11.1387C2.5676 11.1387 2.63355 11.1253 2.69496 11.0991C2.75637 11.073 2.81199 11.0346 2.85857 10.9864C2.90515 10.9382 2.94174 10.8811 2.96619 10.8184C2.99065 10.7557 3.00248 10.6887 3.00098 10.6213V7.58942C3.00229 7.52165 2.99012 7.45433 2.96521 7.39141C2.9403 7.32849 2.90315 7.27128 2.85597 7.22316C2.80879 7.17505 2.75253 7.13698 2.69054 7.11129C2.62856 7.0856 2.5621 7.07279 2.49512 7.07359ZM16.4951 7.07359C16.4291 7.07436 16.3639 7.08834 16.3033 7.11473C16.2427 7.14112 16.1878 7.17941 16.1419 7.22736C16.096 7.27532 16.0599 7.33201 16.0357 7.39415C16.0115 7.45629 15.9997 7.52265 16.001 7.58942V8.60136C15.9995 8.66872 16.0114 8.73571 16.0359 8.79838C16.0604 8.86104 16.097 8.91811 16.1435 8.96627C16.1901 9.01443 16.2457 9.05267 16.3071 9.07879C16.3685 9.10491 16.4344 9.11841 16.501 9.11841C16.5676 9.11841 16.6335 9.10491 16.6949 9.07879C16.7562 9.05267 16.8119 9.01443 16.8584 8.96627C16.905 8.91811 16.9416 8.86104 16.9661 8.79838C16.9906 8.73571 17.0024 8.66872 17.001 8.60136V7.58942C17.0023 7.52165 16.9901 7.45433 16.9652 7.39141C16.9403 7.32849 16.9032 7.27128 16.856 7.22316C16.8088 7.17505 16.7525 7.13698 16.6905 7.11129C16.6286 7.0856 16.5621 7.07279 16.4951 7.07359ZM24.501 9.10534C23.6786 9.10534 23.002 9.78911 23.002 10.6213V18.7196C23.002 19.5517 23.6786 20.2355 24.501 20.2355H28.502C29.3243 20.2355 30 19.5517 30 18.7196V10.6213C30 9.78911 29.3243 9.10534 28.502 9.10534H24.501ZM16.4951 10.1103C16.3627 10.1119 16.2363 10.1666 16.1436 10.2624C16.051 10.3582 15.9997 10.4872 16.001 10.6213V13.658C15.9995 13.7254 16.0114 13.7924 16.0359 13.855C16.0604 13.9177 16.097 13.9748 16.1435 14.0229C16.1901 14.0711 16.2457 14.1093 16.3071 14.1354C16.3685 14.1616 16.4344 14.175 16.501 14.175C16.5676 14.175 16.6335 14.1616 16.6949 14.1354C16.7562 14.1093 16.8119 14.0711 16.8584 14.0229C16.905 13.9748 16.9416 13.9177 16.9661 13.855C16.9906 13.7924 17.0024 13.7254 17.001 13.658V10.6213C17.0016 10.5539 16.989 10.4871 16.9638 10.4247C16.9386 10.3624 16.9013 10.3057 16.8542 10.2582C16.8071 10.2106 16.7511 10.173 16.6894 10.1476C16.6277 10.1222 16.5617 10.1095 16.4951 10.1103ZM24.0029 11.1302H29V18.2107H24.0029V11.1302ZM10.4775 14.166H11.502C12.1688 14.166 12.1688 15.1788 11.502 15.1788H10.501C9.83416 15.2112 9.78673 14.1983 10.4775 14.166ZM19.5039 17.1987H20.5039C20.6346 17.2016 20.759 17.2562 20.8504 17.3508C20.9419 17.4453 20.9931 17.5724 20.9931 17.7047C20.9931 17.837 20.9419 17.964 20.8504 18.0586C20.759 18.1532 20.6346 18.2078 20.5039 18.2107H19.5039C19.3732 18.2078 19.2488 18.1532 19.1574 18.0586C19.0659 17.964 19.0147 17.837 19.0147 17.7047C19.0147 17.5724 19.0659 17.4453 19.1574 17.3508C19.2488 17.2562 19.3732 17.2016 19.5039 17.1987ZM8.16211 18.2107C7.9862 18.5269 7.72256 18.8704 7.31641 19.2236H6.5C6.43342 19.2221 6.36722 19.2341 6.30529 19.2589C6.24335 19.2836 6.18693 19.3207 6.13933 19.3678C6.09173 19.4149 6.05391 19.4712 6.02809 19.5333C6.00227 19.5954 5.98897 19.6621 5.98897 19.7295C5.98897 19.7969 6.00227 19.8637 6.02809 19.9258C6.05391 19.9879 6.09173 20.0442 6.13933 20.0913C6.18693 20.1384 6.24335 20.1754 6.30529 20.2002C6.36722 20.225 6.43342 20.237 6.5 20.2355H13.5176C13.1982 19.8112 13 19.2898 13 18.7196V18.2107H8.16211Z" fill="#4AAB3D"/>
</svg>
