<svg width="26" height="26" viewBox="0 0 26 26" fill="none" xmlns="http://www.w3.org/2000/svg">
<path fill-rule="evenodd" clip-rule="evenodd" d="M5.50875 8.12513H9.75V9.75013H3.25V3.25013H4.875V6.24013C6.26351 4.56856 8.13379 3.36593 10.2308 2.79622C12.3279 2.22651 14.5496 2.31746 16.593 3.05665C18.6365 3.79585 20.4022 5.14732 21.6494 6.92678C22.8967 8.70625 23.5647 10.8271 23.5625 13.0001H21.9375C21.9376 11.0734 21.3151 9.19813 20.1627 7.65399C19.0102 6.10984 17.3897 4.97945 15.5425 4.43133C13.6953 3.88321 11.7205 3.94671 9.91235 4.61235C8.10421 5.278 6.55959 6.51015 5.50875 8.12513ZM20.4913 17.875H16.25V16.25H22.75V22.75H21.125V19.76C19.7365 21.4315 17.8662 22.6342 15.7692 23.2039C13.6722 23.7736 11.4504 23.6827 9.40699 22.9435C7.36353 22.2043 5.5978 20.8528 4.35056 19.0733C3.10332 17.2939 2.43527 15.173 2.43751 13H4.06251C4.06238 14.9267 4.68493 16.802 5.83735 18.3461C6.98976 19.8903 8.61034 21.0207 10.4575 21.5688C12.3047 22.1169 14.2795 22.0534 16.0877 21.3878C17.8958 20.7221 19.4404 19.49 20.4913 17.875Z" fill="#629D23"/>
</svg>
