<svg width="26" height="26" viewBox="0 0 26 26" fill="none" xmlns="http://www.w3.org/2000/svg">
<path fill-rule="evenodd" clip-rule="evenodd" d="M13 23.5625L14.4103 24.375L17.1962 19.5H21.125C21.5518 19.5001 21.9745 19.4161 22.3688 19.2528C22.7632 19.0895 23.1215 18.8501 23.4233 18.5483C23.7251 18.2465 23.9645 17.8882 24.1278 17.4938C24.2911 17.0995 24.3751 16.6768 24.375 16.25V4.875C24.3751 4.44817 24.2912 4.02549 24.1279 3.63113C23.9646 3.23676 23.7252 2.87843 23.4234 2.57662C23.1216 2.2748 22.7632 2.03541 22.3689 1.87213C21.9745 1.70885 21.5518 1.62487 21.125 1.625H4.875C4.44817 1.62487 4.02549 1.70885 3.63113 1.87213C3.23676 2.03541 2.87843 2.2748 2.57662 2.57662C2.2748 2.87843 2.03541 3.23676 1.87213 3.63113C1.70885 4.02549 1.62487 4.44817 1.625 4.875V16.25C1.62493 16.6768 1.70894 17.0995 1.87224 17.4938C2.03554 17.8882 2.27493 18.2465 2.57674 18.5483C2.87854 18.8501 3.23685 19.0895 3.63119 19.2528C4.02553 19.4161 4.44818 19.5001 4.875 19.5H12.1875V17.875H4.875C4.6615 17.8754 4.45003 17.8336 4.25271 17.752C4.05539 17.6705 3.87611 17.5508 3.72514 17.3999C3.57417 17.2489 3.45449 17.0696 3.37295 16.8723C3.29142 16.675 3.24964 16.4635 3.25 16.25V4.875C3.24964 4.6615 3.29142 4.45003 3.37295 4.25271C3.45449 4.05539 3.57417 3.87611 3.72514 3.72514C3.87611 3.57417 4.05539 3.45449 4.25271 3.37295C4.45003 3.29142 4.6615 3.24964 4.875 3.25H21.125C21.3385 3.24964 21.55 3.29142 21.7473 3.37295C21.9446 3.45449 22.1239 3.57417 22.2749 3.72514C22.4258 3.87611 22.5455 4.05539 22.627 4.25271C22.7086 4.45003 22.7504 4.6615 22.75 4.875V16.25C22.7504 16.4635 22.7086 16.675 22.627 16.8723C22.5455 17.0696 22.4258 17.2489 22.2749 17.3999C22.1239 17.5508 21.9446 17.6705 21.7473 17.752C21.55 17.8336 21.3385 17.8754 21.125 17.875H16.25L13 23.5625ZM9.75 6.49998C9.42861 6.49998 9.11443 6.59528 8.8472 6.77384C8.57997 6.9524 8.37169 7.20619 8.2487 7.50312C8.1257 7.80005 8.09352 8.12678 8.15622 8.442C8.21893 8.75722 8.37369 9.04677 8.60095 9.27403C8.82821 9.50129 9.11776 9.65605 9.43298 9.71875C9.7482 9.78145 10.0749 9.74927 10.3719 9.62628C10.6688 9.50329 10.9226 9.29501 11.1011 9.02778C11.2797 8.76055 11.375 8.44637 11.375 8.12498C11.3771 7.91099 11.3365 7.69874 11.2556 7.50063C11.1747 7.30253 11.0551 7.12255 10.9037 6.97124C10.7524 6.81992 10.5724 6.7003 10.3743 6.61938C10.1762 6.53847 9.96398 6.49787 9.75 6.49998ZM15.3472 6.77384C15.6144 6.59528 15.9286 6.49998 16.25 6.49998C16.464 6.49787 16.6762 6.53847 16.8743 6.61938C17.0724 6.7003 17.2524 6.81992 17.4037 6.97124C17.5551 7.12255 17.6747 7.30253 17.7556 7.50063C17.8365 7.69874 17.8771 7.91099 17.875 8.12498C17.875 8.44637 17.7797 8.76055 17.6011 9.02778C17.4226 9.29501 17.1688 9.50329 16.8719 9.62628C16.5749 9.74927 16.2482 9.78145 15.933 9.71875C15.6178 9.65605 15.3282 9.50129 15.101 9.27403C14.8737 9.04677 14.7189 8.75722 14.6562 8.442C14.5935 8.12678 14.6257 7.80005 14.7487 7.50312C14.8717 7.20619 15.08 6.9524 15.3472 6.77384ZM10.3104 14.7629C11.1374 15.2065 12.0615 15.4383 13 15.4375C13.9385 15.4383 14.8625 15.2065 15.6896 14.7629C16.5166 14.3193 17.2208 13.6777 17.7393 12.8954L16.3857 11.9957C16.015 12.5543 15.5119 13.0126 14.9212 13.3296C14.3304 13.6466 13.6704 13.8125 13 13.8125C12.3296 13.8125 11.6696 13.6466 11.0788 13.3296C10.4881 13.0126 9.98495 12.5543 9.61431 11.9957L8.26068 12.8954C8.77915 13.6777 9.48338 14.3193 10.3104 14.7629Z" fill="#629D23"/>
</svg>
