<svg width="1920" height="600" viewBox="0 0 1920 600" fill="none" xmlns="http://www.w3.org/2000/svg">
  <defs>
    <linearGradient id="constructionGradient" x1="0%" y1="0%" x2="100%" y2="100%">
      <stop offset="0%" style="stop-color:#2C3C28;stop-opacity:0.95"/>
      <stop offset="50%" style="stop-color:#629D23;stop-opacity:0.85"/>
      <stop offset="100%" style="stop-color:#FFE884;stop-opacity:0.75"/>
    </linearGradient>
  </defs>
  
  <!-- Background -->
  <rect width="1920" height="600" fill="url(#constructionGradient)"/>
  
  <!-- Construction site silhouette -->
  <g opacity="0.3">
    <!-- Buildings in background -->
    <rect x="1400" y="200" width="120" height="400" fill="#1A2815"/>
    <rect x="1550" y="150" width="150" height="450" fill="#1A2815"/>
    <rect x="1720" y="250" width="100" height="350" fill="#1A2815"/>
    <rect x="1830" y="180" width="90" height="420" fill="#1A2815"/>
    
    <!-- Construction crane -->
    <g transform="translate(1600, 50)">
      <!-- Crane tower -->
      <rect x="0" y="100" width="8" height="500" fill="#4A5A45"/>
      <!-- Crane arm -->
      <rect x="-150" y="90" width="350" height="6" fill="#4A5A45"/>
      <!-- Crane hook -->
      <circle cx="180" cy="110" r="4" fill="#FFE884"/>
      <line x1="180" y1="110" x2="180" y2="150" stroke="#FFE884" stroke-width="2"/>
    </g>
  </g>
  
  <!-- Geometric patterns -->
  <g opacity="0.1">
    <polygon points="100,500 200,400 300,500" fill="#FFE884"/>
    <polygon points="400,450 500,350 600,450" fill="#FFE884"/>
    <polygon points="800,550 900,450 1000,550" fill="#FFE884"/>
  </g>
  
  <!-- Construction equipment silhouettes -->
  <g opacity="0.2" transform="translate(100, 400)">
    <!-- Excavator -->
    <rect x="0" y="80" width="60" height="40" rx="8" fill="#1A2815"/>
    <rect x="15" y="60" width="30" height="20" rx="4" fill="#1A2815"/>
    <circle cx="15" cy="130" r="12" fill="#1A2815"/>
    <circle cx="45" cy="130" r="12" fill="#1A2815"/>
    <!-- Excavator arm -->
    <rect x="50" y="70" width="40" height="4" fill="#1A2815" transform="rotate(-20 70 72)"/>
    <rect x="85" y="55" width="25" height="4" fill="#1A2815" transform="rotate(-45 97 57)"/>
  </g>
  
  <!-- Steel beam pattern -->
  <g opacity="0.15">
    <rect x="0" y="550" width="1920" height="4" fill="#4A5A45"/>
    <rect x="0" y="540" width="1920" height="2" fill="#629D23"/>
  </g>
</svg>
