<svg width="46" height="52" viewBox="0 0 46 52" fill="none" xmlns="http://www.w3.org/2000/svg">
<g clip-path="url(#clip0_821_834)">
<path d="M46 34.4102C46 36.0926 44.8515 38.2338 43.447 39.1682L25.553 51.0671C24.1485 52 21.8515 52 20.447 51.0671L2.553 39.1682C1.14847 38.2338 0 36.0941 0 34.4102V17.5898C0 15.9074 1.14847 13.7662 2.553 12.8318L20.447 0.932952C21.8515 1.055e-05 24.1485 1.055e-05 25.553 0.932952L43.447 12.8318C44.8515 13.7662 46 15.9059 46 17.5898V34.4102Z" fill="#C94E4B"/>
<path d="M30.8031 27.9618C27.0909 23.4317 19.6313 23.1901 15.5695 27.3623C13.4397 29.5509 12.4553 32.3099 14.3014 34.991C15.7519 37.0985 17.4907 37.8265 19.9609 37.2056C20.7322 37.0129 21.5249 36.7911 22.4097 36.7911H22.8421C23.6915 36.8798 24.4459 37.1995 25.1543 37.4901C25.6174 37.6797 26.0912 37.8724 26.588 37.9565C27.6751 38.1538 28.842 37.5619 29.739 36.9976C33.1491 34.8488 33.2718 30.9732 30.8031 27.9618ZM17.3742 20.2245C18.0504 20.5518 18.8048 20.7461 19.5561 20.7751C22.8666 20.7751 23.7559 10.3201 19.8536 10.9762C17.9477 11.2958 16.5723 13.5517 15.7719 15.1117C14.6939 17.2177 15.0343 19.0943 17.3742 20.2245ZM16.4281 23.5816C16.2533 21.6729 13.0471 17.3829 10.7793 18.9689C8.46706 20.717 8.74306 25.5851 11.2915 27.0839C13.0931 28.1423 16.2457 25.3465 16.4281 23.5816C16.3791 23.0585 16.2978 24.8296 16.4281 23.5816ZM25.5883 21.0504C27.4359 21.3242 30.4796 20.2322 30.5639 18.0084C30.5639 15.907 28.0845 10.4623 25.3138 11.4793C22.655 12.3297 22.7087 20.6252 25.5883 21.0504ZM36.7816 22.2311C36.6789 21.0366 36.1468 19.9248 35.2651 19.1081C34.0431 18.0772 32.3533 19.5393 31.5269 20.3943C29.9537 22.0185 28.7009 23.8875 30.4459 25.8115C31.2953 26.749 32.9835 28.0949 34.3651 27.5412C36.1836 26.8148 36.9319 23.9624 36.7816 22.2311Z" fill="white"/>
<path d="M23 1.7611C23.6578 1.7611 24.2788 1.92322 24.702 2.20463L42.596 14.1035C43.5758 14.755 44.4667 16.4159 44.4667 17.589V34.4095C44.4667 35.5825 43.5758 37.2435 42.5975 37.895L24.7035 49.7938C24.2803 50.0752 23.6593 50.2373 23.0015 50.2373C22.3437 50.2373 21.7227 50.0752 21.2995 49.7938L3.40553 37.895C2.4242 37.2435 1.53333 35.5825 1.53333 34.4095V17.589C1.53333 16.4159 2.4242 14.755 3.40247 14.1035L21.2965 2.20463C21.7212 1.92322 22.3422 1.7611 23 1.7611ZM23 0.231689C22.0754 0.231689 21.1493 0.465689 20.447 0.93216L2.553 12.831C1.14847 13.7655 0 15.9051 0 17.589V34.4095C0 36.0918 1.14847 38.233 2.553 39.1675L20.447 51.0663C21.1493 51.5328 22.0739 51.7668 23 51.7668C23.9261 51.7668 24.8507 51.5328 25.553 51.0663L43.447 39.1675C44.8515 38.233 46 36.0933 46 34.4095V17.589C46 15.9066 44.8515 13.7655 43.447 12.831L25.553 0.93216C24.8507 0.465689 23.9246 0.231689 23 0.231689Z" fill="#C94E4B"/>
<g clip-path="url(#clip1_821_834)">
<path d="M46 34.4102C46 36.0926 44.8515 38.2338 43.447 39.1682L25.553 51.0671C24.1485 52 21.8515 52 20.447 51.0671L2.553 39.1682C1.14847 38.2338 0 36.0941 0 34.4102V17.5898C0 15.9074 1.14847 13.7662 2.553 12.8318L20.447 0.932952C21.8515 1.05649e-05 24.1485 1.05649e-05 25.553 0.932952L43.447 12.8318C44.8515 13.7662 46 15.9059 46 17.5898V34.4102Z" fill="#C94E4B"/>
<path d="M30.8031 27.9618C27.0909 23.4317 19.6313 23.1901 15.5695 27.3623C13.4397 29.5509 12.4553 32.3099 14.3014 34.991C15.7519 37.0985 17.4907 37.8265 19.9609 37.2056C20.7322 37.0129 21.5249 36.7911 22.4097 36.7911H22.8421C23.6915 36.8798 24.4459 37.1995 25.1543 37.4901C25.6174 37.6797 26.0912 37.8724 26.588 37.9565C27.6751 38.1538 28.842 37.5619 29.739 36.9976C33.1491 34.8488 33.2718 30.9732 30.8031 27.9618ZM17.3742 20.2245C18.0504 20.5518 18.8048 20.7461 19.5561 20.7751C22.8666 20.7751 23.7559 10.3201 19.8536 10.9762C17.9477 11.2958 16.5723 13.5517 15.7719 15.1117C14.6939 17.2177 15.0343 19.0943 17.3742 20.2245ZM16.4281 23.5816C16.2533 21.6729 13.0471 17.3829 10.7793 18.9689C8.46706 20.717 8.74306 25.5851 11.2915 27.0839C13.0931 28.1423 16.2457 25.3465 16.4281 23.5816C16.3791 23.0585 16.2978 24.8296 16.4281 23.5816ZM25.5883 21.0504C27.4359 21.3242 30.4796 20.2322 30.5639 18.0084C30.5639 15.907 28.0845 10.4623 25.3138 11.4793C22.655 12.3297 22.7087 20.6252 25.5883 21.0504ZM36.7816 22.2311C36.6789 21.0366 36.1468 19.9248 35.2651 19.1081C34.0431 18.0772 32.3533 19.5393 31.5269 20.3943C29.9537 22.0185 28.7009 23.8875 30.4459 25.8115C31.2953 26.749 32.9835 28.0949 34.3651 27.5412C36.1836 26.8148 36.9319 23.9624 36.7816 22.2311Z" fill="white"/>
<path d="M23 1.7611C23.6578 1.7611 24.2788 1.92322 24.702 2.20463L42.596 14.1035C43.5758 14.755 44.4667 16.4159 44.4667 17.589V34.4095C44.4667 35.5825 43.5758 37.2435 42.5975 37.895L24.7035 49.7938C24.2803 50.0752 23.6593 50.2373 23.0015 50.2373C22.3437 50.2373 21.7227 50.0752 21.2995 49.7938L3.40553 37.895C2.4242 37.2435 1.53333 35.5825 1.53333 34.4095V17.589C1.53333 16.4159 2.4242 14.755 3.40247 14.1035L21.2965 2.20463C21.7212 1.92322 22.3422 1.7611 23 1.7611ZM23 0.231689C22.0754 0.231689 21.1493 0.465689 20.447 0.93216L2.553 12.831C1.14847 13.7655 0 15.9051 0 17.589V34.4095C0 36.0918 1.14847 38.233 2.553 39.1675L20.447 51.0663C21.1493 51.5327 22.0739 51.7667 23 51.7667C23.9261 51.7667 24.8507 51.5327 25.553 51.0663L43.447 39.1675C44.8515 38.233 46 36.0933 46 34.4095V17.589C46 15.9066 44.8515 13.7655 43.447 12.831L25.553 0.93216C24.8507 0.465689 23.9246 0.231689 23 0.231689Z" fill="#C94E4B"/>
<path d="M42.5852 38.4433C42.5852 35.3937 40.0859 33.2632 36.5086 33.2632C32.9881 33.2632 30.432 35.464 30.432 38.4968C30.432 39.5231 30.7571 40.4637 31.3398 41.2238C30.5424 42.0757 30.084 43.2028 30.084 44.4401C30.084 47.7161 32.7259 50.0056 36.5086 50.0056C40.2914 50.0056 42.9333 47.71 42.9333 44.4218C42.9333 43.2089 42.4626 42.0741 41.6775 41.2192C42.2571 40.4529 42.5852 39.4909 42.5852 38.4433Z" fill="#C94E4B"/>
<path d="M36.5088 48.4762C33.9328 48.4762 31.6174 47.1732 31.6174 44.4401C31.6174 42.8633 32.6846 41.7438 33.9527 41.3415V41.3033C32.8318 40.8827 31.9655 39.9284 31.9655 38.4968C31.9655 36.0957 34.0999 34.7926 36.5088 34.7926C38.8992 34.7926 41.052 36.0406 41.052 38.4433C41.052 39.8733 40.2225 40.9011 39.0648 41.2865V41.3415C40.3712 41.7086 41.3986 42.9 41.3986 44.4218C41.3986 47.1548 39.0832 48.4762 36.5088 48.4762ZM36.5088 42.5513C35.4431 42.5513 34.6887 43.3038 34.6887 44.3132C34.6887 45.3593 35.4431 46.0368 36.5088 46.0368C37.5744 46.0368 38.312 45.3593 38.312 44.3132C38.312 43.3221 37.5576 42.5513 36.5088 42.5513ZM36.5088 37.177C35.5888 37.177 34.9632 37.8193 34.9632 38.6635C34.9632 39.4894 35.552 40.2037 36.5088 40.2037C37.4104 40.2037 38.0728 39.4894 38.0728 38.6635C38.0728 37.8193 37.372 37.177 36.5088 37.177Z" fill="white"/>
</g>
</g>
<defs>
<clipPath id="clip0_821_834">
<rect width="46" height="52" fill="white"/>
</clipPath>
<clipPath id="clip1_821_834">
<rect width="46" height="52" fill="white"/>
</clipPath>
</defs>
</svg>
