<svg width="52" height="52" viewBox="0 0 52 52" fill="none" xmlns="http://www.w3.org/2000/svg">
<circle cx="26.3017" cy="26" r="25.6982" fill="#0A0A0A"/>
<g clip-path="url(#clip0_827_1234)">
<path fill-rule="evenodd" clip-rule="evenodd" d="M17.3111 14.4831C15.6426 14.4831 14.4079 15.9827 14.4632 17.609C14.5163 19.1714 14.4473 21.195 13.9512 22.8452C13.4534 24.5001 12.6119 25.5487 11.2373 25.6833V27.203C12.6119 27.3379 13.4534 28.3861 13.9512 30.0411C14.4473 31.6914 14.5162 33.7149 14.4631 35.2774C14.4079 36.9034 15.6425 38.4033 17.3113 38.4033H34.4085C36.077 38.4033 37.3115 36.9037 37.2562 35.2774C37.2031 33.7149 37.272 31.6914 37.7681 30.0411C38.266 28.3861 39.1054 27.3375 40.4801 27.203V25.6833C39.1054 25.5485 38.2661 24.5003 37.7681 22.8452C37.272 21.1952 37.2031 19.1714 37.2562 17.609C37.3115 15.9829 36.077 14.4831 34.4085 14.4831H17.3109H17.3111ZM31.0629 29.2075C31.0629 31.4469 29.4362 32.805 26.7367 32.805H22.1414C22.0099 32.805 21.8839 32.7513 21.7909 32.6559C21.6979 32.5604 21.6457 32.431 21.6457 32.296V20.5904C21.6457 20.4554 21.6979 20.326 21.7909 20.2305C21.8839 20.1351 22.0099 20.0815 22.1414 20.0815H26.7106C28.9615 20.0815 30.4388 21.3335 30.4388 23.2557C30.4388 24.6049 29.445 25.8127 28.1789 26.0243V26.0947C29.9024 26.2888 31.0629 27.5146 31.0629 29.2075ZM26.2356 21.6948H23.6154V25.4951H25.8223C27.5283 25.4951 28.469 24.7897 28.469 23.5289C28.4688 22.3472 27.6601 21.6948 26.2356 21.6948ZM23.6154 27.003V31.1911H26.3321C28.1083 31.1911 29.0492 30.4592 29.0492 29.0838C29.0492 27.7084 28.0819 27.0028 26.2178 27.0028H23.6154V27.003Z" fill="#9E22FF"/>
</g>
<defs>
<clipPath id="clip0_827_1234">
<rect width="29.2428" height="23.9259" fill="white" transform="translate(11.2373 14.4801)"/>
</clipPath>
</defs>
</svg>
