<svg width="28" height="28" viewBox="0 0 28 28" fill="none" xmlns="http://www.w3.org/2000/svg">
<g clip-path="url(#clip0_821_1194)">
<path d="M25.3398 2.74184L25.5527 1.94788L26.3466 2.16074L26.1337 2.9547L25.3398 2.74184Z" fill="#BB0B0B"/>
<path d="M24.6722 23.043C25.6793 22.1659 26.3913 21.0286 26.7395 19.7292L27.8429 15.6113C28.1362 14.5169 27.4844 13.388 26.39 13.0947L24.6698 12.6338L25.3366 10.1455C25.7769 9.86897 26.092 9.44339 26.2273 8.93847L27.9291 2.58729C28.0712 2.05717 27.9982 1.50342 27.7238 1.02809C27.4494 0.552753 27.0063 0.212814 26.4761 0.0707342C25.946 -0.0712907 25.3923 0.00158479 24.9169 0.275991C24.4416 0.550397 24.1016 0.993513 23.9596 1.52369L22.2577 7.87487C22.1185 8.39464 22.1927 8.92203 22.426 9.36416L21.7589 11.8539L20.0388 11.393C19.5086 11.2509 18.9549 11.3239 18.4796 11.5983C18.0042 11.8727 17.6642 12.3158 17.5222 12.8459L16.4188 16.9639C16.2921 17.4366 16.2185 17.9183 16.1971 18.4032C15.5507 18.0549 14.7933 17.8631 13.9997 17.8631C12.6703 17.8631 11.442 18.401 10.6681 19.312H10.6643C10.1756 19.312 9.70213 19.3842 9.26011 19.5199V15.9524C9.37129 15.239 9.73742 14.5893 10.3788 13.9859C10.7312 14.1163 11.5447 14.3762 12.4324 14.3762C13.0022 14.3762 13.6024 14.2691 14.1303 13.9519C15.7217 12.9957 15.9353 10.5647 15.9437 10.4617L15.9674 10.1683L15.6972 10.0514C15.6024 10.0104 13.3555 9.05775 11.7642 10.0139C10.4636 10.7954 10.0833 12.5619 9.98328 13.2375C9.70449 13.4809 9.46383 13.7324 9.26022 13.9928V11.8084C9.26022 11.4327 9.25792 11.0823 9.25239 10.752C9.57594 10.3844 11.1383 8.48922 10.752 6.58004C10.3309 4.49877 7.78227 3.3327 7.674 3.2841L7.40546 3.1635L7.20486 3.379C7.12398 3.46585 5.22895 5.53091 5.64998 7.61225C5.99058 9.29589 7.72337 10.3805 8.43043 10.7593C8.43602 11.0861 8.43832 11.4339 8.43832 11.8084V16.2942C8.2347 16.0337 7.99405 15.7822 7.71526 15.5388C7.61515 14.8632 7.23494 13.0967 5.93431 12.3152C4.3431 11.3591 2.09624 12.3117 2.00139 12.3528L1.73115 12.4696L1.75487 12.763C1.7632 12.866 1.97684 15.297 3.56816 16.2532C4.0962 16.5705 4.69619 16.6776 5.26605 16.6776C6.15365 16.6776 6.96722 16.4177 7.3196 16.2872C7.96101 16.8907 8.32714 17.5403 8.43832 18.2537V19.8658C8.00233 20.105 7.61822 20.416 7.30869 20.7886C7.15127 20.7703 6.9927 20.761 6.83484 20.761C5.23454 20.761 3.85226 21.6862 3.45194 22.9915C1.34737 23.8211 0 25.6051 0 27.5889V27.9999H27.9995V27.5889C27.9995 25.6446 26.7048 23.8929 24.6722 23.043ZM12.1875 10.7184C13.1314 10.1513 14.4944 10.5031 15.0828 10.6998C14.9801 11.3119 14.6508 12.6803 13.707 13.2474C12.9158 13.7228 11.8303 13.5525 11.153 13.3691C11.8405 12.8977 12.7187 12.4534 13.7992 12.0262L13.4969 11.2619C12.5147 11.6503 11.683 12.0585 10.994 12.4929C11.1898 11.8567 11.5471 11.1032 12.1875 10.7184ZM6.54531 15.6704C5.86812 15.8538 4.7826 16.0241 3.99133 15.5487C3.0474 14.9815 2.71809 13.6129 2.61552 13.0011C3.20422 12.8044 4.56704 12.4527 5.51086 13.0198C6.15123 13.4045 6.50854 14.1581 6.70427 14.7941C6.01535 14.3598 5.18358 13.9515 4.20135 13.5632L3.89911 14.3275C4.97964 14.7547 5.85782 15.1991 6.54531 15.6704ZM23.0517 8.08764L24.7535 1.7364C24.8387 1.41833 25.0427 1.15247 25.3279 0.987814C25.6131 0.823105 25.9454 0.779434 26.2634 0.864638C26.5815 0.949842 26.8473 1.15384 27.012 1.43904C27.1767 1.72424 27.2204 2.05651 27.1352 2.37453L25.4334 8.72576C25.3481 9.04384 25.1442 9.3097 24.859 9.47435C24.5738 9.63895 24.2414 9.68279 23.9235 9.59753C23.2669 9.42158 22.8758 8.74417 23.0517 8.08764ZM23.0797 10.1004C23.267 10.2293 23.4788 10.3293 23.7108 10.3915C23.8878 10.4389 24.0674 10.4623 24.2459 10.4623C24.2983 10.4623 24.3506 10.4597 24.4026 10.4556L23.876 12.4211L22.5528 12.0666L23.0797 10.1004ZM17.2127 17.1766L18.3162 13.0586C18.4014 12.7405 18.6054 12.4747 18.8906 12.31C19.1758 12.1453 19.5081 12.1016 19.8261 12.1869L26.1772 13.8886C26.8338 14.0646 27.2249 14.7419 27.049 15.3985L25.9456 19.5165C25.6528 20.6093 25.0671 21.5721 24.2406 22.3279C23.6721 21.4299 22.59 20.8232 21.3563 20.7659L22.5122 16.4521L21.7183 16.2394L20.544 20.6222C19.7675 19.7946 18.602 19.3119 17.3352 19.3119H17.3313C17.2345 19.1979 17.1305 19.0897 17.0201 18.9878C16.9901 18.3779 17.0539 17.7693 17.2127 17.1766ZM8.40226 5.94175L7.65225 6.27797C8.13301 7.35039 8.3272 8.34637 8.39942 9.78788C7.70091 9.34668 6.6744 8.53152 6.45545 7.44923C6.18954 6.1349 7.17434 4.72002 7.60951 4.17307C8.22336 4.50803 9.68038 5.42878 9.94629 6.743C10.1442 7.72134 9.64915 8.75518 9.20357 9.44558C9.1148 8.05794 8.89831 7.04837 8.40226 5.94175ZM0.845958 27.178C1.02541 25.6494 2.19733 24.3075 3.93358 23.6886L4.14963 23.6116L4.19752 23.3873C4.42053 22.3418 5.52966 21.583 6.83473 21.583C7.02804 21.583 7.22283 21.6003 7.41357 21.6347L7.66891 21.6806L7.82019 21.4699C8.41169 20.6459 9.50153 20.134 10.6643 20.134C10.7221 20.134 10.7809 20.1353 10.844 20.1381L11.0604 20.1476L11.1905 19.9744C11.7972 19.1671 12.8473 18.685 13.9998 18.685C15.1522 18.685 16.2023 19.1671 16.809 19.9744L16.9392 20.1476L17.1555 20.1381C17.2186 20.1354 17.2774 20.134 17.3352 20.134C18.498 20.134 19.5878 20.6459 20.1793 21.4699L20.3305 21.6806L20.5859 21.6347C20.7766 21.6004 20.9714 21.583 21.1647 21.583C22.4698 21.583 23.579 22.3418 23.802 23.3873L23.8499 23.6116L24.0659 23.6886C25.8022 24.3075 26.974 25.6494 27.1536 27.178H0.845958Z" fill="#BB0B0B"/>
<path d="M20.7801 24.0204C20.3926 24.0204 20.0226 24.1342 19.7082 24.3458C19.3938 24.1341 19.0239 24.0204 18.6364 24.0204C17.5752 24.0204 16.7119 24.8837 16.7119 25.9448H17.5338C17.5338 25.3369 18.0284 24.8423 18.6364 24.8423C18.9314 24.8423 19.2087 24.9574 19.4172 25.1665L19.7083 25.4583L19.9993 25.1664C20.2077 24.9574 20.485 24.8423 20.7801 24.8422C21.3881 24.8422 21.8826 25.3368 21.8826 25.9448H22.7045C22.7045 24.8837 21.8412 24.0204 20.7801 24.0204Z" fill="#BB0B0B"/>
<path d="M11.2488 23.0555C10.7064 22.7766 10.0878 22.7256 9.50711 22.9119C9.04784 23.0592 8.65584 23.3408 8.37393 23.7204C7.92385 23.5756 7.44112 23.5745 6.9819 23.7218C6.38722 23.9126 5.90762 24.3261 5.63135 24.8863L6.36849 25.2499C6.54536 24.8912 6.85237 24.6265 7.23291 24.5044C7.6054 24.385 8.0021 24.418 8.3496 24.5975L8.7159 24.7866L8.90389 24.4197C9.0823 24.0715 9.38569 23.8139 9.75818 23.6945C10.1299 23.5753 10.5258 23.6079 10.8729 23.7864C11.2201 23.9649 11.4769 24.268 11.5962 24.6397L12.3788 24.3887C12.1925 23.8079 11.7912 23.3344 11.2488 23.0555Z" fill="#BB0B0B"/>
<path d="M15.1364 20.5265C14.1026 20.3266 13.0924 21.0428 12.8838 22.1225L13.6908 22.2785C13.8135 21.6437 14.3922 21.2196 14.9805 21.3334C15.569 21.4472 15.948 22.0561 15.8253 22.6909L16.6323 22.8469C16.8409 21.7672 16.1699 20.7262 15.1364 20.5265Z" fill="#BB0B0B"/>
</g>
<defs>
<clipPath id="clip0_821_1194">
<rect width="28" height="28" fill="white"/>
</clipPath>
</defs>
</svg>
