<svg width="53" height="52" viewBox="0 0 53 52" fill="none" xmlns="http://www.w3.org/2000/svg">
<path d="M26.715 27.7717L20.6384 45.4298C22.4536 45.9618 24.3726 46.2554 26.361 46.2554C28.7189 46.2554 30.9818 45.8474 33.0858 45.107C33.0317 45.0201 32.9825 44.9279 32.9422 44.8277L26.715 27.7717Z" fill="#0A0A0A"/>
<path d="M6.10596 25.9989C6.10596 34.0168 10.7654 40.9451 17.522 44.2277L7.86068 17.7563C6.73715 20.2753 6.10596 23.0629 6.10596 25.9989Z" fill="#0A0A0A"/>
<path d="M40.0328 24.9771C40.0328 22.4741 39.1345 20.7411 38.3639 19.3907C37.3368 17.7224 36.3744 16.31 36.3744 14.6412C36.3744 12.7794 37.7862 11.0464 39.7757 11.0464C39.8658 11.0464 39.9506 11.0575 40.0386 11.0618C36.4359 7.76164 31.6354 5.74564 26.3617 5.74564C19.2845 5.74564 13.0589 9.37592 9.43872 14.8754C9.91357 14.8897 10.3603 14.8998 10.7419 14.8998C12.8607 14.8998 16.1407 14.6427 16.1407 14.6427C17.2335 14.577 17.3607 16.1812 16.2705 16.31C16.2705 16.31 15.173 16.4388 13.9525 16.5035L21.327 38.4426L25.7591 25.1483L22.6026 16.5029C21.5119 16.4383 20.479 16.3095 20.479 16.3095C19.3884 16.2459 19.5155 14.5776 20.6068 14.6422C20.6068 14.6422 23.9524 14.8993 25.9414 14.8993C28.0597 14.8993 31.3407 14.6422 31.3407 14.6422C32.4335 14.5776 32.5613 16.1807 31.4695 16.3095C31.4695 16.3095 30.3709 16.4383 29.1514 16.5029L36.4719 38.2756L38.4921 31.5249C39.3671 28.7235 40.0328 26.7107 40.0328 24.9771Z" fill="#0A0A0A"/>
<path d="M44.1327 16.282C44.2196 16.9264 44.2694 17.6201 44.2694 18.3647C44.2694 20.4199 43.8863 22.7306 42.7299 25.6195L36.5425 43.5064C42.5635 39.9949 46.6151 33.471 46.6151 26C46.6156 22.4778 45.7152 19.1666 44.1327 16.282Z" fill="#0A0A0A"/>
<path d="M26.3603 0.301819C12.1677 0.301819 0.662598 11.8074 0.662598 26C0.662598 40.1926 12.1677 51.6982 26.3603 51.6982C40.5528 51.6982 52.0579 40.1926 52.0579 26C52.0579 11.8074 40.5528 0.301819 26.3603 0.301819ZM26.3613 48.5274C13.9388 48.5274 3.83393 38.4225 3.83393 25.9989C3.83393 13.5775 13.9383 3.47262 26.3613 3.47262C38.7822 3.47262 48.8866 13.5781 48.8866 25.9989C48.8871 38.4214 38.7817 48.5274 26.3613 48.5274Z" fill="#0A0A0A"/>
</svg>
